
<svg viewBox="13 4 50 71" version="1.1" xmlns="http://www.w3.org/2000/svg" xmlns:xlink="http://www.w3.org/1999/xlink">
    <!-- Generator: Sketch Beta 3.8 (29681) - http://www.bohemiancoding.com/sketch -->
    <desc>Created with Sketch Beta.</desc>
    <defs></defs>
    <g id="svg5463" stroke="none" stroke-width="1" fill="none" fill-rule="evenodd" transform="translate(13.000000, 4.000000)">
        <path d="M0.337837838,70.2702703 C0.337837838,70.2702703 -1.40234459,55.0150123 13.5878382,53.3130645 L20.0022517,53.3130645 L20.0022517,50.3581073 C20.0022517,50.3581073 24.5143581,52.2961694 29.0833345,50.5743233 L29.2274784,53.3130645 L36.722972,53.3130645 C36.722972,53.3130645 49.7759226,54.6161497 48.9864865,70.2702703 L0.337837838,70.2702703 L0.337837838,70.2702703 Z" id="body-bg-flat" fill="#FFFFFF"></path>
        <path d="M49.100551,70.7072078 L49.100551,70.7072078 L1.04035051,70.7072078 L1.04035051,70.7072078 L0.108275507,70.7072078 L0.34093598,66.7325767 C0.795209797,58.9720649 6.90966419,53.0495515 13.906814,53.0495515 L19.2319819,53.0495515 L19.2319819,53.8423436 L14.3315959,53.8423436 C7.58778345,53.8423436 1.69470507,59.543089 1.25687568,67.0130084 L1.09526655,69.7702718 L48.9735628,69.7702718 L48.8840258,67.0130084 C48.4461965,59.543089 42.5531181,53.8423436 35.8093003,53.8423436 L29.2500007,53.8423436 L29.2500007,53.0495515 L36.1913424,53.0495515 C43.1884921,53.0495515 49.3029466,58.9720649 49.7572203,66.7325767 L49.9898807,70.7072078 L49.100551,70.7072078 L49.100551,70.7072078 Z" id="Rounded-Rectangle-13" fill="#3B434F"></path>
        <path d="M24.2770272,61.986485 C20.4160123,61.986485 17.2860326,58.8565157 17.2860326,54.9954956 C17.2860326,54.3199127 17.3837713,53.6675169 17.5625775,53.0495515 L17.5743258,53.0495515 L18.3161813,53.0495515 L19.5923419,53.0495515 L19.5923419,53.8423436 L18.1146363,53.8423436 C18.0446676,54.216189 18.0067527,54.6013034 18.0067527,54.9954956 C18.0067527,58.4584726 20.8140554,61.265765 24.2770272,61.265765 C27.7400042,61.265765 30.5472966,58.4584726 30.5472966,54.9954956 C30.5472966,54.6013034 30.5093868,54.216189 30.4394128,53.8423436 L28.9617127,53.8423436 L28.9617127,53.0495515 L30.2378681,53.0495515 L30.9797287,53.0495515 L30.9914718,53.0495515 C31.170278,53.6675169 31.2680167,54.3199127 31.2680167,54.9954956 C31.2680167,58.8565157 28.1380473,61.986485 24.2770272,61.986485 L24.2770272,61.986485 Z" id="Ellipse-4" fill="#3B434F"></path>
        <path d="M20.1689179,50.1935959 L20.1689179,54.6387132 C20.1689179,56.9453833 22.0404497,58.8153169 24.3490992,58.8153169 C26.6577488,58.8153169 28.5292806,56.9453833 28.5292806,54.6387132 L28.5292806,50.2853032 C28.7718747,50.2114632 29.0121851,50.1312617 29.2500007,50.0446166 L29.2500007,54.6689677 C29.2500007,57.3967753 27.039662,59.608109 24.3130659,59.608109 C21.5864698,59.608109 19.3761258,57.3967753 19.3761258,54.6689677 L19.3761258,49.9077152 C19.637247,50.0109647 19.9017242,50.1059301 20.1689179,50.1935959 L20.1689179,50.1935959 Z" id="neck" fill="#3B434F"></path>
        <path d="M24.5295035,4.97747365 C33.4953618,4.97747365 40.5721201,13.3560593 40.3420166,23.4231331 L40.0974532,34.1226527 C39.8806752,43.6068355 32.9130791,51.1036022 24.5295035,51.1036022 C16.1459279,51.1036022 9.17833176,43.6068355 8.96155389,34.1226527 L8.71699054,23.4231331 C8.48689206,13.3560593 15.5636453,4.97747365 24.5295035,4.97747365 L24.5295035,4.97747365 Z" id="2-copy-5" fill="#FFFFFF"></path>
        <path d="M41.0623963,23.091409 L40.8061363,34.2255927 C40.5789917,44.0950703 33.278089,51.8963943 24.4934804,51.8963943 C15.7088666,51.8963943 8.40796909,44.0950703 8.18081926,34.2255927 L7.92455422,23.091409 C7.68344983,12.6153584 15.0987316,3.89639358 24.4934804,3.89639358 C33.8882292,3.89639358 41.3035057,12.6153584 41.0623963,23.091409 L41.0623963,23.091409 Z M24.4574831,5.04954578 C15.6141951,5.04954578 8.63418581,13.3626731 8.86113446,23.3510971 L9.10235743,33.9670284 C9.31617111,43.3771133 16.1885184,50.8153142 24.4574831,50.8153142 C32.7264476,50.8153142 39.5987897,43.3771133 39.8126035,33.9670284 L40.0538213,23.3510971 C40.2807802,13.3626731 33.3007709,5.04954578 24.4574831,5.04954578 L24.4574831,5.04954578 Z" id="2-line" fill="#3B434F"></path>
        <path d="M22.7635152,45.409914 L26.2229713,45.409914 C26.3821938,45.409914 26.5112593,45.5389796 26.5112593,45.6981968 C26.5112593,45.8574193 26.3821938,45.9864848 26.2229713,45.9864848 L22.7635152,45.9864848 C22.6042927,45.9864848 22.4752272,45.8574193 22.4752272,45.6981968 C22.4752272,45.5389796 22.6042927,45.409914 22.7635152,45.409914 L22.7635152,45.409914 Z" id="Rounded-Rectangle-3" fill="#3B434F"></path>
        <path d="M19.7361765,41.9605514 L20.1376117,41.3986258 C21.4281855,42.1368264 22.9614515,42.564789 24.6064057,42.564789 C26.269686,42.564789 27.8186694,42.1270834 29.118141,41.3736755 L29.5384485,41.9540921 C28.1248196,42.7724426 26.4403782,43.2477539 24.631825,43.2477539 C22.8279836,43.2477539 21.1475372,42.7749995 19.7361765,41.9605514 L19.7361765,41.9605514 Z" id="2" fill="#3B434F"></path>
        <path d="M7.906625,24.7150576 C7.9046353,24.7151709 7.72966436,24.5754397 7.39925997,24.4714118 C7.23412483,24.4195113 7.02888902,24.3768176 6.79496047,24.3662912 C6.73653885,24.3636622 6.67641098,24.3630383 6.61488615,24.3647858 C6.55336115,24.3665334 6.49043412,24.3706471 6.42647095,24.3774775 C6.29856014,24.3911434 6.16645304,24.4157019 6.03351588,24.4539416 C5.50122652,24.606911 4.958225,24.9788284 4.63932145,25.7464693 C4.47923818,26.1303103 4.37363294,26.6131272 4.34571351,27.2172155 C4.33872838,27.3682414 4.33659426,27.5268451 4.33965625,27.6933774 C4.34272348,27.8599095 4.35099223,28.0343699 4.36480236,28.2171095 C4.39240743,28.582573 4.44225625,28.9811573 4.51652939,29.4154863 C4.51490557,29.4150584 4.44725659,30.7279845 4.91662922,32.236625 C5.35788666,33.7116189 6.41748581,35.5235177 8.37387399,36.0412855 C8.14886858,32.2947682 8.14187855,28.4780245 7.906625,24.7150576 L7.906625,24.7150576 L7.906625,24.7150576 Z" id="Shape-11-copy" fill="#FFFFFF"></path>
        <path d="M8.1297076,24.8660937 C8.1297076,24.8660937 4.72153328,23.8100671 4.84147466,27.3138666 C4.84147466,27.3138666 5.34889122,32.3944865 5.56923632,32.8627302 C5.56923632,32.8627302 6.90772078,35.8208424 9.11669865,35.9519392 C11.2756524,36.0800666 9.11669865,35.9519392 9.11669865,35.9519392 L9.1435098,36.9054073 C9.1435098,36.9054073 5.26096757,36.4076047 4.51108057,31.9333463 L3.91920963,27.8686988 C3.91920963,27.8686988 3.45964696,22.4895375 7.9174299,23.8572301 C12.2602154,25.1896421 7.9174299,23.8572301 7.9174299,23.8572301 L8.1297076,24.8660937" id="Shape-3" fill="#3B434F"></path>
        <path d="M7.00478429,31.9247993 C7.00478429,31.9247993 6.81404932,32.0689434 6.6501978,32.0689434 C6.48634628,32.0689434 6.29793632,31.9247993 6.29793632,31.9247993 L5.94621098,28.3804095 C5.94621098,28.3804095 6.4315022,26.6348916 8.49077382,27.5573473 L8.53945236,28.5708144 C8.53945236,28.5708144 6.73275507,27.9300689 6.77011334,28.7279437 C6.80607466,29.4959404 7.00478429,31.9247993 7.00478429,31.9247993 L7.00478429,31.9247993 Z" id="Shape-4" fill="#3B434F"></path>
        <path d="M41.0157797,24.7233314 C41.0177797,24.7234448 41.1935187,24.5838113 41.5253666,24.4798505 C41.6912285,24.4279861 41.8973613,24.3853235 42.1323157,24.374802 C42.1909899,24.3721782 42.2513807,24.3715544 42.3131789,24.373302 C42.3749718,24.3750443 42.438172,24.3791579 42.5024187,24.3859833 C42.6308863,24.3996389 42.763576,24.4241818 42.8970956,24.4623958 C43.431715,24.615262 43.9770931,24.9869269 44.2973936,25.7540471 C44.4581779,26.1376252 44.5642471,26.6201122 44.5922851,27.2237932 C44.5993012,27.374716 44.6014456,27.5332117 44.5983731,27.6996304 C44.5952905,27.866049 44.5869858,28.040391 44.5731137,28.2230068 C44.5453902,28.5882228 44.4953196,28.986539 44.4207218,29.4205691 C44.4223559,29.4201412 44.4902986,30.7321806 44.0188691,32.2397954 C43.5756838,33.7137892 42.51144,35.5244559 40.5464843,36.0418731 C40.7724742,32.2978973 40.7794953,28.4837465 41.0157797,24.7233314 L41.0157797,24.7233314 L41.0157797,24.7233314 Z" id="Shape-11-copy_1" fill="#FFFFFF"></path>
        <path d="M40.7909806,24.8742696 C40.7909806,24.8742696 44.2140836,23.8189595 44.0936166,27.3203772 C44.0936166,27.3203772 43.5839782,32.3975486 43.3626639,32.8654728 C43.3626639,32.8654728 42.0183182,35.8215796 39.7996696,35.9525887 C37.6312566,36.0806285 39.7996696,35.9525887 39.7996696,35.9525887 L39.7727399,36.9054073 C39.7727399,36.9054073 43.6722833,36.4079449 44.4254541,31.9367228 L45.0199179,27.8748331 C45.0199179,27.8748331 45.4814963,22.4993216 41.004186,23.8660863 C36.642384,25.1975961 41.004186,23.8660863 41.004186,23.8660863 L40.7909806,24.8742696" id="Shape-3_1" fill="#3B434F"></path>
        <path d="M41.9208321,31.9281811 C41.9208321,31.9281811 42.112402,32.072227 42.2769701,32.072227 C42.4415382,32.072227 42.630773,31.9281811 42.630773,31.9281811 L42.9840397,28.3861985 C42.9840397,28.3861985 42.4966245,26.6418664 40.4283318,27.5636931 L40.3794417,28.5764745 C40.3794417,28.5764745 42.194052,27.9361622 42.1565287,28.7334958 C42.1204128,29.5009716 41.9208321,31.9281811 41.9208321,31.9281811 L41.9208321,31.9281811 Z" id="Shape-4_1" fill="#3B434F"></path>
        <path d="M25.8265779,31.6441459 L26.0788274,31.6441459 C26.6003583,32.3524166 26.812538,33.4408373 27.0878353,34.3828819 C27.1731505,34.6748248 27.0903819,35.1854686 27.0157633,35.39189 C26.7424919,36.1478909 25.8844066,36.134323 25.1779299,36.4729701 C24.9881951,36.5639248 24.8470615,36.720915 24.6013539,36.7612632 C24.4411674,36.6201606 24.2477571,36.5924475 24.1689167,36.3648647 C23.9742691,36.0968358 24.225137,35.9294583 24.4211713,35.8243221 C24.7769535,35.633515 25.8752514,35.4454556 26.0067552,35.103602 C26.1694625,34.9185118 26.0612745,34.3620198 26.0067552,34.166666 C25.867127,33.6663014 25.8001069,33.2485715 25.6103618,32.797298 C25.4843223,32.4975503 25.2630336,32.1815027 25.3941459,31.8243233 C25.5027926,31.7776706 25.7376078,31.7246257 25.8265779,31.6441459 L25.8265779,31.6441459 Z" id="new_vector_shape_done" fill="#3B434F"></path>
        <path d="M15.3400885,26.5558552 L17.9346858,26.5558552 C18.292922,26.5558552 18.5833338,26.9043485 18.5833338,27.334234 C18.5833338,27.7641193 18.292922,28.1126125 17.9346858,28.1126125 L15.3400885,28.1126125 C14.9818524,28.1126125 14.6914405,27.7641193 14.6914405,27.334234 C14.6914405,26.9043485 14.9818524,26.5558552 15.3400885,26.5558552 L15.3400885,26.5558552 Z" id="Rounded-Rectangle-9" fill="#3B434F"></path>
        <path d="M31.1959448,26.3828845 L33.7905421,26.3828845 C34.1487782,26.3828845 34.43919,26.7313725 34.43919,27.1612632 C34.43919,27.5911486 34.1487782,27.9396367 33.7905421,27.9396367 L31.1959448,27.9396367 C30.8377086,27.9396367 30.5472966,27.5911486 30.5472966,27.1612632 C30.5472966,26.7313725 30.8377086,26.3828845 31.1959448,26.3828845 L31.1959448,26.3828845 Z" id="Rounded-Rectangle-9-copy" fill="#3B434F"></path>
        <path d="M33.2139659,30.8513539 C34.2090709,30.8513539 35.015766,31.6580488 35.015766,32.6531539 C35.015766,33.648259 34.2090709,34.4549541 33.2139659,34.4549541 C32.2188557,34.4549541 31.4121659,33.648259 31.4121659,32.6531539 C31.4121659,31.6580488 32.2188557,30.8513539 33.2139659,30.8513539 L33.2139659,30.8513539 Z" id="Ellipse-3" fill="#EDF1F1"></path>
        <path d="M15.7725257,30.8513539 C16.7676307,30.8513539 17.5743258,31.6580488 17.5743258,32.6531539 C17.5743258,33.648259 16.7676307,34.4549541 15.7725257,34.4549541 C14.7774155,34.4549541 13.9707257,33.648259 13.9707257,32.6531539 C13.9707257,31.6580488 14.7774155,30.8513539 15.7725257,30.8513539 L15.7725257,30.8513539 Z" id="Ellipse-3-copy" fill="#EDF1F1"></path>
        <path d="M38.9076595,24.2207193 L38.9076595,29.5540525 C38.9076595,30.8573851 37.6363032,32.891124 35.5646701,33.0075909 C35.2603448,32.9930796 29.1058566,33.0135139 29.1058566,33.0135139 C26.3392475,33.0135139 25.7905394,29.6981966 25.7905394,29.6981966 L25.7905394,26.0945965 L23.1959471,26.0945965 L23.1959471,29.6981966 C23.1959471,29.6981966 22.647239,33.0135139 19.8806299,33.0135139 C19.8806299,33.0135139 13.7261417,32.9930796 13.4218164,33.0075909 C11.3501833,32.891124 10.078827,30.8573851 10.078827,29.5540525 L10.078827,24.2207193 L7.77252297,24.2207193 L7.77252297,22.7792792 L21.177926,22.7792792 C21.177926,22.7792792 23.1959471,23.1052914 23.1959471,24.5090073 L25.7905394,24.5090073 C25.7905394,23.1052914 27.8085605,22.7792792 27.8085605,22.7792792 L41.2139635,22.7792792 L41.2139635,24.2207193 L38.9076595,24.2207193 L38.9076595,24.2207193 Z M21.754502,24.9414392 C21.754502,24.4276459 21.177926,24.3648632 21.177926,24.3648632 L11.5202723,24.3648632 L11.5202723,29.4099086 C11.5202723,30.9818422 13.6824324,31.5720738 13.6824324,31.5720738 L19.5923419,31.5720738 C21.6257044,31.5720738 21.754502,29.4099086 21.754502,29.4099086 L21.754502,24.9414392 L21.754502,24.9414392 Z M37.4662142,24.3648632 L27.8085605,24.3648632 C27.8085605,24.3648632 27.2319845,24.4276459 27.2319845,24.9414392 L27.2319845,29.4099086 C27.2319845,29.4099086 27.3607821,31.5720738 29.3941446,31.5720738 L35.3040541,31.5720738 C35.3040541,31.5720738 37.4662142,30.9818422 37.4662142,29.4099086 L37.4662142,24.3648632 L37.4662142,24.3648632 Z M35.4481981,33.0163569 C35.5063569,33.0151439 35.5632341,33.0108181 35.6205766,33.0075909 C35.6687944,33.0098949 35.6203554,33.0127711 35.4481981,33.0163569 L35.4481981,33.0163569 Z M13.4275378,33.0075909 C13.4848803,33.0108181 13.5417575,33.0151439 13.5999163,33.0163569 C13.427759,33.0127711 13.37932,33.0098949 13.4275378,33.0075909 L13.4275378,33.0075909 Z" id="Shape-1-copy-5" fill="#3B434F"></path>
        <path d="M8.81373429,24.0490836 C8.81373429,24.0490836 8.16776166,17.1847111 12.3851363,13.5540524 C12.3851363,13.5540524 22.4096968,23.406936 36.0247742,13.5540524 C36.0247742,13.5540524 40.9168502,18.4474326 40.4932434,23.7882872 C40.4932434,23.7882872 48.7429593,14.325611 42.3671155,12.5450444 C42.3671155,12.5450444 40.7951098,13.002777 40.2049554,10.6711723 C39.6148012,8.33956233 38.5152868,0.809318919 23.6283792,0.581081419 C8.74147162,0.352844088 9.79053902,9.51801503 9.79053902,9.51801503 C9.83783615,9.54670777 1.52189932,13.5905858 8.81373429,24.0490836 L8.81373429,24.0490836 Z" id="fill-copy" fill="#C1BFBD"></path>
        <path d="M40.5653154,24.5810792 C40.3914375,18.6549986 36.0247742,14.2027005 36.0247742,14.2027005 C22.4096968,23.6345549 12.4572084,14.2027005 12.4572084,14.2027005 C9.26939476,16.6429056 8.85360304,24.5090073 8.85360304,24.5090073 C0.630744764,14.0134914 9.33333209,9.40256368 9.28603514,9.37387111 C9.28603514,9.37387111 8.45361655,-0.178507264 23.3400912,0.0765775338 C38.8450983,0.342255743 39.9760581,7.80803057 40.6373875,10.4549562 C41.1647745,12.5657777 43.0157635,12.1846843 43.0157635,12.1846843 C49.6387946,14.7569193 40.5653154,24.5810792 40.5653154,24.5810792 L40.5653154,24.5810792 Z M42.1508995,12.9774764 C42.1508995,12.9774764 40.3877309,13.4377402 39.7004514,10.6711723 C39.1205814,8.33697956 38.5152868,1.31382297 23.6283792,1.08558547 C8.74147162,0.857347973 10.2229711,9.87838024 10.2229711,9.87838024 C10.2702682,9.90707297 2.7411022,13.4849135 8.27702703,22.3468471 C8.27702703,22.3468471 8.0956897,16.5360632 12.3130644,12.9054044 C12.3130644,12.9054044 22.0121745,23.1496193 36.1689181,12.9774764 C36.1689181,12.9774764 40.6546051,17.2486743 40.9977475,22.490991 C40.9977475,22.490991 47.6128914,14.1755542 42.1508995,12.9774764 L42.1508995,12.9774764 Z" id="line" fill="#3B434F"></path>
    </g>
</svg>