
<svg viewBox="13 1 50 74" version="1.1" xmlns="http://www.w3.org/2000/svg" xmlns:xlink="http://www.w3.org/1999/xlink">
    <!-- Generator: Sketch Beta 3.8 (29681) - http://www.bohemiancoding.com/sketch -->
    <desc>Created with Sketch Beta.</desc>
    <defs></defs>
    <g id="svg5448" stroke="none" stroke-width="1" fill="none" fill-rule="evenodd" transform="translate(13.000000, 1.000000)">
        <path d="M0.567565034,73.3108108 C0.567565034,73.3108108 -0.549831926,58.110098 13.7567571,56.6914429 L20.1711706,56.6914429 L20.1711706,53.7364856 C20.1711706,53.7364856 24.683277,55.6745478 29.2522534,53.9527017 L29.3963973,56.6914429 L36.8918909,56.6914429 C36.8918909,56.6914429 49.7272645,57.1955397 49.1441417,73.4549549 L0.567565034,73.3108108 L0.567565034,73.3108108 Z" id="body-bg-flat-copy" fill="#FFFFFF"></path>
        <path d="M49.100551,73.9166672 L49.100551,73.9166672 L1.04035051,73.9166672 L1.04035051,73.9166672 L0.108275507,73.9166672 L0.34093598,69.9420361 C0.795209797,62.1815243 6.90966419,56.259011 13.906814,56.259011 L19.2319819,56.259011 L19.2319819,57.051803 L14.3315959,57.051803 C7.58778345,57.051803 1.69470507,62.7525485 1.25687568,70.2224679 L1.09526655,72.9797313 L48.9735628,72.9797313 L48.8840258,70.2224679 C48.4461965,62.7525485 42.5531181,57.051803 35.8093003,57.051803 L29.2500007,57.051803 L29.2500007,56.259011 L36.1913424,56.259011 C43.1884921,56.259011 49.3029466,62.1815243 49.7572203,69.9420361 L49.9898807,73.9166672 L49.100551,73.9166672 L49.100551,73.9166672 Z" id="Rounded-Rectangle-13" fill="#3B434F"></path>
        <path d="M24.2770272,65.1959444 C20.4160123,65.1959444 17.2860326,62.0659752 17.2860326,58.2049551 C17.2860326,57.5293721 17.3837713,56.8769764 17.5625775,56.259011 L17.5743258,56.259011 L18.3161813,56.259011 L19.5923419,56.259011 L19.5923419,57.051803 L18.1146363,57.051803 C18.0446676,57.4256485 18.0067527,57.8107628 18.0067527,58.2049551 C18.0067527,61.6679321 20.8140554,64.4752245 24.2770272,64.4752245 C27.7400042,64.4752245 30.5472966,61.6679321 30.5472966,58.2049551 C30.5472966,57.8107628 30.5093868,57.4256485 30.4394128,57.051803 L28.9617127,57.051803 L28.9617127,56.259011 L30.2378681,56.259011 L30.9797287,56.259011 L30.9914718,56.259011 C31.170278,56.8769764 31.2680167,57.5293721 31.2680167,58.2049551 C31.2680167,62.0659752 28.1380473,65.1959444 24.2770272,65.1959444 L24.2770272,65.1959444 Z" id="Ellipse-4" fill="#3B434F"></path>
        <path d="M20.1689179,53.4030554 L20.1689179,57.8481726 C20.1689179,60.1548427 22.0404497,62.0247764 24.3490992,62.0247764 C26.6577488,62.0247764 28.5292806,60.1548427 28.5292806,57.8481726 L28.5292806,53.4947627 C28.7718747,53.4209226 29.0121851,53.3407211 29.2500007,53.254076 L29.2500007,57.8784272 C29.2500007,60.6062348 27.039662,62.8175684 24.3130659,62.8175684 C21.5864698,62.8175684 19.3761258,60.6062348 19.3761258,57.8784272 L19.3761258,53.1171747 C19.637247,53.2204242 19.9017242,53.3153895 20.1689179,53.4030554 L20.1689179,53.4030554 Z" id="neck" fill="#3B434F"></path>
        <path d="M24.5295035,8.18693311 C33.4953618,8.18693311 40.5721201,16.5655188 40.3420166,26.6325926 L40.0974532,37.3321122 C39.8806752,46.8162949 32.9130791,54.3130617 24.5295035,54.3130617 C16.1459279,54.3130617 9.17833176,46.8162949 8.96155389,37.3321122 L8.71699054,26.6325926 C8.48689206,16.5655188 15.5636453,8.18693311 24.5295035,8.18693311 L24.5295035,8.18693311 Z" id="2-copy-5" fill="#FFFFFF"></path>
        <path d="M41.0623963,26.3008684 L40.8061363,37.4350522 C40.5789917,47.3045297 33.278089,55.1058537 24.4934804,55.1058537 C15.7088666,55.1058537 8.40796909,47.3045297 8.18081926,37.4350522 L7.92455422,26.3008684 C7.68344983,15.8248179 15.0987316,7.10585304 24.4934804,7.10585304 C33.8882292,7.10585304 41.3035057,15.8248179 41.0623963,26.3008684 L41.0623963,26.3008684 Z M24.4574831,8.25900524 C15.6141951,8.25900524 8.63418581,16.5721326 8.86113446,26.5605566 L9.10235743,37.1764878 C9.31617111,46.5865728 16.1885184,54.0247736 24.4574831,54.0247736 C32.7264476,54.0247736 39.5987897,46.5865728 39.8126035,37.1764878 L40.0538213,26.5605566 C40.2807802,16.5721326 33.3007709,8.25900524 24.4574831,8.25900524 L24.4574831,8.25900524 Z" id="2-line" fill="#3B434F"></path>
        <path d="M40.6126125,28.1508986 L39.8918926,39.9707226 C39.8918926,39.9707226 36.6908409,53.6144618 24.3243243,55.2299603 L24.3243243,55.2499978 C24.3000186,55.2470284 24.276486,55.2430436 24.2522524,55.2399816 C24.2280187,55.2430436 24.2044861,55.2470284 24.1801802,55.2499978 L24.1801802,55.2299603 C11.8136689,53.6144618 8.61261216,39.9707226 8.61261216,39.9707226 L7.89189206,28.1508986 C11.1009752,42.3952721 13.8018015,43.28604 13.8018015,43.28604 C13.2552534,38.9665912 17.6936949,39.3941466 17.6936949,39.3941466 C20.3987843,39.8510856 22.5522221,40.0718946 24.2522524,40.1544468 C25.9522877,40.0718946 28.1057203,39.8510856 30.8108098,39.3941466 C30.8108098,39.3941466 35.2492461,38.9665912 34.702703,43.28604 C34.702703,43.28604 37.4035294,42.3952721 40.6126125,28.1508986 L40.6126125,28.1508986 Z M32.5984954,44.7510797 C32.3886922,42.2102645 30.8565655,42.4257123 30.8565655,42.4257123 C28.1328098,43.2271699 25.9947184,43.6724069 24.3243243,43.8986907 L24.3243243,43.8820812 C22.6656269,43.6576431 20.5425108,43.216061 17.8378389,42.4211708 C17.8378389,42.4211708 16.3164397,42.207486 16.1081056,44.7274801 C16.1081056,44.7274801 15.4971819,47.2522529 17.5495508,48.3310802 L20.1441429,51.0698216 C20.1441429,51.0698216 21.9172297,51.6317574 21.8738762,49.4842323 C21.8738762,49.4842323 21.6934101,47.8826007 22.7387402,47.6103603 L24.3243243,47.6103603 L24.3243243,47.6577861 L25.9210948,47.6577861 C26.9737965,47.9322794 26.7920623,49.547149 26.7920623,49.547149 C26.7483995,51.7124228 28.5339872,51.1458372 28.5339872,51.1458372 L31.1468846,48.3844654 C33.2137289,47.2967199 32.5984954,44.7510797 32.5984954,44.7510797 L32.5984954,44.7510797 Z" id="1-copy-4" fill="#3B434F" opacity="0.058824"></path>
        <path d="M32.2770248,43.8050554 C30.9670216,44.9425258 28.0081105,46.0247709 24.5653204,46.0247709 C21.1225252,46.0247709 18.163614,44.9425258 16.8536057,43.8050554 C16.8536057,43.8050554 16.7195758,43.4362566 16.9162235,43.239609 C17.1165105,43.039322 17.4301818,43.0829125 17.4301818,43.0829125 C18.7388137,44.2211564 21.1212106,45.1599122 24.5653204,45.1599122 C28.009425,45.1599122 30.391822,44.2211564 31.7004539,43.0829125 C31.7004539,43.0829125 32.0205586,42.9640022 32.176059,43.1195027 C32.4755591,43.4190029 32.2770248,43.8050554 32.2770248,43.8050554 L32.2770248,43.8050554 Z" id="usta" fill="#3B434F"></path>
        <path d="M22.1869392,47.7545042 L26.7995525,47.7545042 L26.7995525,48.4752243 L22.1869392,48.4752243 L22.1869392,47.7545042 L22.1869392,47.7545042 Z" id="-" fill="#3B434F"></path>
        <path d="M7.906625,27.9245171 C7.9046353,27.9246304 7.72966436,27.7848992 7.39925997,27.6808713 C7.23412483,27.6289708 7.02888902,27.586277 6.79496047,27.5757507 C6.73653885,27.5731216 6.67641098,27.5724978 6.61488615,27.5742453 C6.55336115,27.5759929 6.49043412,27.5801066 6.42647095,27.586937 C6.29856014,27.6006029 6.16645304,27.6251613 6.03351588,27.663401 C5.50122652,27.8163704 4.958225,28.1882878 4.63932145,28.9559287 C4.47923818,29.3397698 4.37363294,29.8225867 4.34571351,30.426675 C4.33872838,30.5777008 4.33659426,30.7363046 4.33965625,30.9028368 C4.34272348,31.0693689 4.35099223,31.2438294 4.36480236,31.4265689 C4.39240743,31.7920324 4.44225625,32.1906167 4.51652939,32.6249458 C4.51490557,32.6245179 4.44725659,33.9374439 4.91662922,35.4460845 C5.35788666,36.9210784 6.41748581,38.7329772 8.37387399,39.2507449 C8.14886858,35.5042277 8.14187855,31.687484 7.906625,27.9245171 L7.906625,27.9245171 L7.906625,27.9245171 Z" id="Shape-11-copy" fill="#FFFFFF"></path>
        <path d="M8.1297076,28.0755532 C8.1297076,28.0755532 4.72153328,27.0195265 4.84147466,30.523326 C4.84147466,30.523326 5.34889122,35.6039459 5.56923632,36.0721897 C5.56923632,36.0721897 6.90772078,39.0303019 9.11669865,39.1613986 C11.2756524,39.289526 9.11669865,39.1613986 9.11669865,39.1613986 L9.1435098,40.1148667 C9.1435098,40.1148667 5.26096757,39.6170642 4.51108057,35.1428057 L3.91920963,31.0781583 C3.91920963,31.0781583 3.45964696,25.698997 7.9174299,27.0666895 C12.2602154,28.3991015 7.9174299,27.0666895 7.9174299,27.0666895 L8.1297076,28.0755532" id="Shape-3" fill="#3B434F"></path>
        <path d="M7.00478429,35.1342588 C7.00478429,35.1342588 6.81404932,35.2784029 6.6501978,35.2784029 C6.48634628,35.2784029 6.29793632,35.1342588 6.29793632,35.1342588 L5.94621098,31.5898689 C5.94621098,31.5898689 6.4315022,29.844351 8.49077382,30.7668068 L8.53945236,31.7802738 C8.53945236,31.7802738 6.73275507,31.1395284 6.77011334,31.9374032 C6.80607466,32.7053998 7.00478429,35.1342588 7.00478429,35.1342588 L7.00478429,35.1342588 Z" id="Shape-4" fill="#3B434F"></path>
        <path d="M41.0157797,27.9327909 C41.0177797,27.9329042 41.1935188,27.7932708 41.5253666,27.68931 C41.6912285,27.6374456 41.8973613,27.5947829 42.1323157,27.5842615 C42.1909899,27.5816377 42.2513807,27.5810139 42.3131789,27.5827615 C42.3749718,27.5845037 42.438172,27.5886174 42.5024188,27.5954427 C42.6308863,27.6090983 42.763576,27.6336412 42.8970956,27.6718552 C43.431715,27.8247215 43.9770931,28.1963863 44.2973936,28.9635066 C44.4581779,29.3470846 44.5642471,29.8295716 44.5922851,30.4332527 C44.5993012,30.5841755 44.6014456,30.7426711 44.5983731,30.9090899 C44.5952905,31.0755084 44.5869858,31.2498505 44.5731137,31.4324662 C44.5453902,31.7976823 44.4953196,32.1959985 44.4207218,32.6300285 C44.4223559,32.6296007 44.4902986,33.94164 44.0188691,35.4492549 C43.5756838,36.9232486 42.51144,38.7339154 40.5464843,39.2513326 C40.7724742,35.5073568 40.7794953,31.6932059 41.0157797,27.9327909 L41.0157797,27.9327909 L41.0157797,27.9327909 Z" id="Shape-11-copy_1" fill="#FFFFFF"></path>
        <path d="M40.7909806,28.0837291 C40.7909806,28.0837291 44.2140836,27.0284189 44.0936166,30.5298367 C44.0936166,30.5298367 43.5839782,35.6070081 43.3626639,36.0749323 C43.3626639,36.0749323 42.0183182,39.031039 39.7996696,39.1620481 C37.6312566,39.290088 39.7996696,39.1620481 39.7996696,39.1620481 L39.7727399,40.1148667 C39.7727399,40.1148667 43.6722833,39.6174044 44.4254541,35.1461823 L45.0199179,31.0842926 C45.0199179,31.0842926 45.4814963,25.7087811 41.004186,27.0755458 C36.642384,28.4070556 41.004186,27.0755458 41.004186,27.0755458 L40.7909806,28.0837291" id="Shape-3_1" fill="#3B434F"></path>
        <path d="M41.9208321,35.1376405 C41.9208321,35.1376405 42.112402,35.2816865 42.2769701,35.2816865 C42.4415382,35.2816865 42.630773,35.1376405 42.630773,35.1376405 L42.9840397,31.5956579 C42.9840397,31.5956579 42.4966245,29.8513258 40.4283318,30.7731525 L40.3794417,31.785934 C40.3794417,31.785934 42.194052,31.1456216 42.1565287,31.9429552 C42.1204128,32.7104311 41.9208321,35.1376405 41.9208321,35.1376405 L41.9208321,35.1376405 Z" id="Shape-4_1" fill="#3B434F"></path>
        <path d="M25.8265779,34.8536054 L26.0788274,34.8536054 C26.6003583,35.561876 26.812538,36.6502968 27.0878353,37.5923414 C27.1731505,37.8842843 27.0903819,38.394928 27.0157633,38.6013495 C26.7424919,39.3573503 25.8844066,39.3437824 25.1779299,39.6824296 C24.9881951,39.7733843 24.8470615,39.9303745 24.6013539,39.9707226 C24.4411674,39.8296201 24.2477571,39.8019069 24.1689167,39.5743242 C23.9742691,39.3062953 24.225137,39.1389177 24.4211713,39.0337816 C24.7769535,38.8429745 25.8752514,38.654915 26.0067552,38.3130615 C26.1694625,38.1279713 26.0612745,37.5714792 26.0067552,37.3761255 C25.867127,36.8757608 25.8001069,36.4580309 25.6103618,36.0067574 C25.4843223,35.7070098 25.2630336,35.3909622 25.3941459,35.0337828 C25.5027926,34.9871301 25.7376078,34.9340851 25.8265779,34.8536054 L25.8265779,34.8536054 Z" id="new_vector_shape_done" fill="#3B434F"></path>
        <path d="M15.8445926,29.3040559 L16.8536057,29.3040559 C17.410866,29.3040559 17.8626139,29.7558037 17.8626139,30.313064 C17.8626139,30.8703242 17.410866,31.322072 16.8536057,31.322072 L15.8445926,31.322072 C15.2873323,31.322072 14.8355845,30.8703242 14.8355845,30.313064 C14.8355845,29.7558037 15.2873323,29.3040559 15.8445926,29.3040559 L15.8445926,29.3040559 Z" id="Rounded-Rectangle-8" fill="#3B434F"></path>
        <path d="M32.2770248,29.3040559 L33.286038,29.3040559 C33.8432981,29.3040559 34.2950459,29.7558037 34.2950459,30.313064 C34.2950459,30.8703242 33.8432981,31.322072 33.286038,31.322072 L32.2770248,31.322072 C31.7197645,31.322072 31.2680167,30.8703242 31.2680167,30.313064 C31.2680167,29.7558037 31.7197645,29.3040559 32.2770248,29.3040559 L32.2770248,29.3040559 Z" id="Rounded-Rectangle-8-copy" fill="#3B434F"></path>
        <path d="M33.2139659,34.0608133 C34.2090709,34.0608133 35.015766,34.8675083 35.015766,35.8626133 C35.015766,36.8577184 34.2090709,37.6644135 33.2139659,37.6644135 C32.2188557,37.6644135 31.4121659,36.8577184 31.4121659,35.8626133 C31.4121659,34.8675083 32.2188557,34.0608133 33.2139659,34.0608133 L33.2139659,34.0608133 Z" id="Ellipse-3" fill="#EDF1F1"></path>
        <path d="M15.7725257,34.0608133 C16.7676307,34.0608133 17.5743258,34.8675083 17.5743258,35.8626133 C17.5743258,36.8577184 16.7676307,37.6644135 15.7725257,37.6644135 C14.7774155,37.6644135 13.9707257,36.8577184 13.9707257,35.8626133 C13.9707257,34.8675083 14.7774155,34.0608133 15.7725257,34.0608133 L15.7725257,34.0608133 Z" id="Ellipse-3-copy" fill="#EDF1F1"></path>
        <path d="M29.1092743,26.7636736 C29.1092743,26.7636736 33.4242434,24.2966471 36.5067198,27.0147014 L37.3220701,27.1410813 C37.3220701,27.1410813 36.277735,23.3408541 28.6734247,25.8118861 L28.8851351,26.5202703 M29.0540541,26.5202703 C29.0540541,26.5202703 33.4437912,23.9989358 36.3378008,27.1836203 L37.8288269,27.1410812 C37.8288269,27.1410812 35.96926,23.0816196 28.3355868,25.6429672 L29.0540541,26.6891892" id="R-copy" fill="#3B434F"></path>
        <path d="M19.8375598,26.7779633 C19.8375598,26.7779633 15.5369939,24.3327682 12.4648017,27.0267693 L11.6521731,27.1520306 C11.6521731,27.1520306 12.6930236,23.3854345 20.2719559,25.834599 L20.0609517,26.5367147 M19.8925998,26.5367147 C19.8925998,26.5367147 15.5175079,24.037691 12.6331588,27.1941932 L11.1471073,27.1520306 C11.1471073,27.1520306 13.0004677,23.1284941 20.6086699,25.6671752 L19.8925998,26.7041387" id="R-copy-3" fill="#3B434F"></path>
        <path d="M8.9527027,35.472973 C8.9527027,35.472973 1.6796473,32.6133883 0.705791216,28.2922951 C-0.268059797,23.9712071 0.565250507,21.2513228 1.7729424,20.3613488 C1.7729424,20.3613488 1.25365895,13.7090373 3.75479105,11.5652032 C3.75479105,11.5652032 4.88308057,6.73490473 10.6150446,5.22043902 C10.6150446,5.22043902 19.5155015,-4.16752061 35.6168438,2.33646081 C35.6168438,2.33646081 39.5825,6.17127297 41.9723047,7.55949274 C42.0402475,7.59896453 42.1069223,7.63645693 42.1721948,7.67182534 C44.5331831,8.95121807 46.7595899,11.6151449 47.2030434,16.7563671 C47.2030434,16.7563671 47.1585764,21.3572218 49.4897946,24.3989223 C49.4897946,24.3989223 52.0703291,32.4094824 39.8854436,35.2138519 L39.4280924,24.1105208 C39.4280924,24.1105208 33.7910162,22.173598 33.1776439,17.0447684 C33.1776439,17.0447684 24.942166,19.6403503 19.7620443,16.9005677 C19.7620443,16.9005677 16.5455071,15.9306037 16.4081419,17.3331647 C16.4081419,17.3331647 15.3306703,23.135675 9.54789341,24.6873186 L8.9527027,35.472973 L8.9527027,35.472973 Z" id="Shape-1" fill="#3B434F"></path>
    </g>
</svg>