
<svg viewBox="12 3 50 72" version="1.1" xmlns="http://www.w3.org/2000/svg" xmlns:xlink="http://www.w3.org/1999/xlink">
    <!-- Generator: Sketch Beta 3.8 (29681) - http://www.bohemiancoding.com/sketch -->
    <desc>Created with Sketch Beta.</desc>
    <defs></defs>
    <g id="svg10411" stroke="none" stroke-width="1" fill="none" fill-rule="evenodd" transform="translate(12.000000, 3.000000)">
        <path d="M0.675675676,71.6216216 C0.675675676,71.6216216 -1.3494853,56.0038747 14.2612611,54.5923439 L18.0090105,54.5923439 C18.0090105,54.5923439 19.2356419,53.7995519 20.0990986,53.7995519 L20.0990986,51.5653147 C20.0990986,51.5653147 24.7770258,53.8978061 29.6126133,51.6373867 L29.6126133,53.6554079 C29.6126133,53.6554079 29.8181328,53.2691441 31.9189174,54.6644159 L37.5405389,54.6644159 C37.5405389,54.6644159 49.4932432,56.1388274 49.4932432,71.6216216 L0.675675676,71.6216216 L0.675675676,71.6216216 Z" id="body-bg" fill="#FFFFFF"></path>
        <path d="M49.0307318,71.8896402 L0.970531081,71.8896402 L0.03845625,71.8896402 L0.271116723,67.9150091 C0.725390541,60.1544973 6.83984493,54.231984 13.8369948,54.231984 L18.6484208,54.231984 C18.3362858,54.4901461 18.1075431,54.7579225 17.9430368,55.024776 L14.2617767,55.024776 C7.51796419,55.024776 1.62488581,60.7255215 1.18705642,68.1954409 L1.0254473,70.9527042 L48.9037436,70.9527042 L48.8142066,68.1954409 C48.3763772,60.7255215 42.4832988,55.024776 35.7394811,55.024776 L32.0550867,55.024776 C31.9141904,54.7598865 31.7138414,54.4921307 31.4341262,54.231984 L36.1215231,54.231984 C43.1186728,54.231984 49.2331274,60.1544973 49.687401,67.9150091 L49.9200615,71.8896402 L49.0307318,71.8896402 L49.0307318,71.8896402 Z M30.0085171,55.024776 L29.7567574,55.024776 L29.7567574,54.231984 L30.0364882,54.231984 C30.0197652,54.4380291 30.0090171,54.6977326 30.0085171,55.024776 L30.0085171,55.024776 Z M19.8715003,54.231984 L20.1711706,54.231984 L20.1711706,55.024776 L19.9121733,55.024776 C19.9083019,54.688098 19.892873,54.4297399 19.8715003,54.231984 L19.8715003,54.231984 Z" id="Rounded-Rectangle-13-copy-4" fill="#3B434F"></path>
        <path d="M27.2342321,65.2590108 C27.5128649,65.2590108 27.7387412,65.4848821 27.7387412,65.7635147 C27.7387412,66.0421422 27.5128649,66.2680188 27.2342321,66.2680188 C26.9556046,66.2680188 26.729728,66.0421422 26.729728,65.7635147 C26.729728,65.4848821 26.9556046,65.2590108 27.2342321,65.2590108 L27.2342321,65.2590108 Z" id="Ellipse-5" fill="#3B434F"></path>
        <path d="M27.2342321,68.5743228 C27.5128649,68.5743228 27.7387412,68.8001993 27.7387412,69.0788269 C27.7387412,69.3574596 27.5128649,69.5833309 27.2342321,69.5833309 C26.9556046,69.5833309 26.729728,69.3574596 26.729728,69.0788269 C26.729728,68.8001993 26.9556046,68.5743228 27.2342321,68.5743228 L27.2342321,68.5743228 Z" id="Ellipse-5-copy" fill="#3B434F"></path>
        <path d="M33.0720696,58.4842373 L29.3963973,63.9617147 C28.3964931,60.8625103 25.5045041,62.0157654 25.5045041,62.0157654 L25.5045041,71.1691728 C25.5045041,71.4078595 25.2786275,71.6013522 25,71.6013522 C24.7213725,71.6013522 24.4954959,71.4078595 24.4954959,71.1691728 L24.4954959,62.015549 C24.4720975,62.0062699 21.6031203,60.8751554 20.6083762,63.9617147 L16.9366939,58.4842373 C16.9366939,58.4842373 15.51641,54.8733068 19.8164449,53.2950478 L19.8164449,51.6373867 L20.6295529,51.6373867 L20.6295529,56.8542326 C20.7339416,57.7522535 21.3522473,60.3110287 25,61.1509014 C28.6517169,60.3110287 29.270698,57.7522535 29.3752,56.8542326 L29.3752,51.6373867 L30.1891894,51.6373867 L30.1891894,53.2950478 C34.4938948,54.8733068 33.0720696,58.4842373 33.0720696,58.4842373 L33.0720696,58.4842373 Z M20.5657547,58.9691213 C20.3697669,58.747173 20.0874792,58.1959441 20.0874792,58.1959441 C20.0874792,58.1959441 19.8164449,57.2939228 19.8164449,56.898648 L19.8164449,55.0705627 C19.755147,54.2460777 19.6004662,54.231984 19.6004662,54.231984 C16.3920583,55.8122583 17.8006198,58.268016 17.8006198,58.268016 L20.4643919,62.4481975 C21.5046135,60.6856166 22.6242066,61.0067574 22.6242066,61.0067574 C21.6357,60.5029441 20.9874024,59.7210291 20.5657547,58.9691213 L20.5657547,58.9691213 Z M30.4054054,54.231984 C30.4054054,54.231984 30.2505544,54.2460777 30.1891894,55.0705627 L30.1891894,56.898648 C30.1891894,57.2939228 29.9178613,58.1959441 29.9178613,58.1959441 C29.9178613,58.1959441 29.6352644,58.747173 29.4390652,58.9691213 C29.0169588,59.7210291 28.3679549,60.5029441 27.3783762,61.0067574 C27.3783762,61.0067574 28.4991856,60.6856166 29.5405414,62.4481975 L32.2072054,58.268016 C32.2072054,58.268016 33.617298,55.8122583 30.4054054,54.231984 L30.4054054,54.231984 Z" id="Shape-2-copy-9" fill="#3B434F"></path>
        <path d="M25.0002269,7.77005372 C34.0022422,7.77005372 40.8765071,12.8326003 40.8765071,24.9493985 L40.4839284,35.4161186 C38.085489,48.8535083 32.0573446,52.0275889 25.0002269,52.0275889 C17.9426554,52.0275889 11.6388321,48.7206073 9.5165201,35.4161186 L9.12394139,24.9493985 C9.12394139,12.8848875 15.9982115,7.77005372 25.0002269,7.77005372 L25.0002269,7.77005372 Z" id="3-copy-5" fill="#FFFFFF"></path>
        <path d="M41.2367537,35.3560937 C38.7217032,49.3608216 32.4004662,52.6689169 25.0002372,52.6689169 C17.5995338,52.6689169 10.9892149,49.2223172 8.76371537,35.3560937 L8.35205287,24.4474617 C8.35205287,11.8735752 15.5605471,6.54278834 25.0002372,6.54278834 C34.4399272,6.54278834 41.6484162,11.8190818 41.6484162,24.4474617 L41.2367537,35.3560937 L41.2367537,35.3560937 Z M25.0002216,7.47972432 C16.1747752,7.47972432 9.43533919,12.5939498 9.43533919,24.6570226 L9.82021639,35.1224899 C11.9009019,48.4253961 18.0810826,51.7319807 25.0002216,51.7319807 C31.9189174,51.7319807 37.8288269,48.5582764 40.1802218,35.1224899 L40.565099,24.6570226 C40.565099,12.5416679 33.8256681,7.47972432 25.0002216,7.47972432 L25.0002216,7.47972432 Z" id="3-copy-6" fill="#3B434F"></path>
        <path d="M32.7837816,41.7780284 C31.4737784,42.9154988 28.5148672,43.9977439 25.0720772,43.9977439 C21.6292819,43.9977439 18.6703708,42.9154988 17.3603625,41.7780284 C17.3603625,41.7780284 17.2263326,41.4092296 17.4229802,41.2125819 C17.6232672,41.0122949 17.9369385,41.0558855 17.9369385,41.0558855 C19.2455704,42.1941294 21.6279674,43.1328851 25.0720772,43.1328851 C28.5161818,43.1328851 30.8985787,42.1941294 32.2072106,41.0558855 C32.2072106,41.0558855 32.5273154,40.9369752 32.6828157,41.0924757 C32.9823159,41.3919758 32.7837816,41.7780284 32.7837816,41.7780284 L32.7837816,41.7780284 Z" id="usta" fill="#3B434F"></path>
        <path d="M22.6936959,45.7274772 L27.3063093,45.7274772 L27.3063093,46.4481973 L22.6936959,46.4481973 L22.6936959,45.7274772 L22.6936959,45.7274772 Z" id="-" fill="#3B434F"></path>
        <path d="M8.41338176,25.89749 C8.41139206,25.8976034 8.23642111,25.7578721 7.90601672,25.6538443 C7.74088159,25.6019437 7.53564578,25.55925 7.30171723,25.5487236 C7.24329561,25.5460946 7.18316774,25.5454708 7.12164291,25.5472182 C7.06011791,25.5489659 6.99719088,25.5530796 6.9332277,25.55991 C6.80531689,25.5735758 6.6732098,25.5981343 6.54027264,25.636374 C6.00798328,25.7893434 5.46498176,26.1612608 5.14607821,26.9289017 C4.98599493,27.3127427 4.8803897,27.7955596 4.85247027,28.399648 C4.84548514,28.5506738 4.84335101,28.7092775 4.84641301,28.8758098 C4.84948024,29.0423419 4.85774899,29.2168024 4.87155912,29.3995419 C4.89916419,29.7650054 4.94901301,30.1635897 5.02328615,30.5979187 C5.02166233,30.5974909 4.95401334,31.9104169 5.42338598,33.4190574 C5.86464341,34.8940514 6.92424257,36.7059502 8.88063074,37.2237179 C8.65562534,33.4772007 8.6486353,29.6604569 8.41338176,25.89749 L8.41338176,25.89749 L8.41338176,25.89749 Z" id="Shape-11-copy" fill="#FFFFFF"></path>
        <path d="M8.63646436,26.0485262 C8.63646436,26.0485262 5.22829003,24.9924995 5.34823142,28.496299 C5.34823142,28.496299 5.85564797,33.5769189 6.07599307,34.0451627 C6.07599307,34.0451627 7.41447753,37.0032748 9.62345541,37.1343716 C11.7824091,37.262499 9.62345541,37.1343716 9.62345541,37.1343716 L9.65026655,38.0878397 C9.65026655,38.0878397 5.76772432,37.5900372 5.01783733,33.1157787 L4.42596639,29.0511313 C4.42596639,29.0511313 3.96640372,23.6719699 8.42418666,25.0396625 C12.7669721,26.3720745 8.42418666,25.0396625 8.42418666,25.0396625 L8.63646436,26.0485262" id="Shape-3" fill="#3B434F"></path>
        <path d="M7.51154105,33.1072318 C7.51154105,33.1072318 7.32080608,33.2513758 7.15695456,33.2513758 C6.99310304,33.2513758 6.80469307,33.1072318 6.80469307,33.1072318 L6.45296774,29.5628419 C6.45296774,29.5628419 6.93825895,27.817324 8.99753057,28.7397797 L9.04620912,29.7532468 C9.04620912,29.7532468 7.23951182,29.1125014 7.2768701,29.9103762 C7.31283142,30.6783728 7.51154105,33.1072318 7.51154105,33.1072318 L7.51154105,33.1072318 Z" id="Shape-4" fill="#3B434F"></path>
        <path d="M41.2977373,26.056702 C41.2977373,26.056702 44.7208404,25.0013919 44.6003733,28.5028096 C44.6003733,28.5028096 44.090735,33.5799811 43.8694206,34.0479052 C43.8694206,34.0479052 42.525075,37.004012 40.3064264,37.1350211 C38.1380133,37.263061 40.3064264,37.1350211 40.3064264,37.1350211 L40.2794966,38.0878397 C40.2794966,38.0878397 44.17904,37.5903774 44.9322108,33.1191552 L45.5266747,29.0572655 C45.5266747,29.0572655 45.988253,23.6817541 41.5109427,25.0485188 C37.1491407,26.3800285 41.5109427,25.0485188 41.5109427,25.0485188 L41.2977373,26.056702" id="Shape-3_1" fill="#3B434F"></path>
        <path d="M42.4275889,33.1106135 C42.4275889,33.1106135 42.6191588,33.2546595 42.7837269,33.2546595 C42.9482949,33.2546595 43.1375297,33.1106135 43.1375297,33.1106135 L43.4907965,29.5686309 C43.4907965,29.5686309 43.0033813,27.8242988 40.9350885,28.7461255 L40.8861985,29.7589069 C40.8861985,29.7589069 42.7008088,29.1185946 42.6632855,29.9159282 C42.6271696,30.6834041 42.4275889,33.1106135 42.4275889,33.1106135 L42.4275889,33.1106135 Z" id="Shape-4_1" fill="#3B434F"></path>
        <path d="M41.2740758,25.9036142 C41.2760709,25.9037328 41.4512324,25.7633519 41.7820079,25.6588446 C41.9473287,25.6067019 42.1527914,25.5638123 42.3869829,25.5532341 C42.4454664,25.5505897 42.5056611,25.5499659 42.5672583,25.5517238 C42.6288502,25.5534765 42.6918443,25.5576108 42.7558796,25.5644721 C42.8839348,25.5782051 43.0161863,25.6028716 43.149278,25.6412919 C43.6821603,25.7949674 44.2257701,26.1686068 44.5450242,26.9398046 C44.7052929,27.325424 44.8110117,27.810473 44.838962,28.4173605 C44.8459574,28.5690823 44.8480916,28.7284181 44.8450243,28.8957235 C44.8419571,29.0630289 44.8336782,29.2382988 44.8198525,29.4218785 C44.7922166,29.789038 44.7423162,30.1894627 44.6679605,30.6258022 C44.6695792,30.6253743 44.7373056,31.9443831 44.2674122,33.4600035 C43.8256598,34.9418279 42.7648802,36.7621139 40.8063064,37.282284 C41.0315591,33.5184149 41.0385596,29.6840049 41.2740758,25.9036142 L41.2740758,25.9036142 L41.2740758,25.9036142 Z" id="Shape-11" fill="#FFFFFF"></path>
        <path d="M41.3720723,26.056697 C41.3720723,26.056697 44.7951703,25.0013919 44.6747084,28.5028149 C44.6747084,28.5028149 44.1650649,33.5799758 43.9437608,34.0479103 C43.9437608,34.0479103 42.5994152,37.0040069 40.3807563,37.1350159 C38.2123483,37.263066 40.3807563,37.1350159 40.3807563,37.1350159 L40.3538318,38.0878397 C40.3538318,38.0878397 44.2533802,37.5903774 45.006551,33.1191502 L45.6010149,29.0572655 C45.6010149,29.0572655 46.062588,23.6817591 41.5852779,25.0485187 C37.2234757,26.3800235 41.5852779,25.0485187 41.5852779,25.0485187 L41.3720723,26.056697" id="Shape-3_2" fill="#3B434F"></path>
        <path d="M42.5019238,33.1106135 L43.2118649,33.1106135 L43.5651264,29.5686258 C43.5651264,29.5686258 43.0777164,27.8242936 41.0094235,28.7461255 L40.9605336,29.7589069 C40.9605336,29.7589069 42.7751438,29.1185946 42.7376206,29.9159333 C42.7015047,30.6834041 42.5019238,33.1106135 42.5019238,33.1106135 L42.5019238,33.1106135 Z" id="Shape-4_2" fill="#3B434F"></path>
        <path d="M26.3333346,32.8265784 L26.5855841,32.8265784 C27.107115,33.534849 27.3192948,34.6232698 27.5945921,35.5653144 C27.6799073,35.8572573 27.5971387,36.367901 27.5225201,36.5743225 C27.2492486,37.3303233 26.3911633,37.3167554 25.6846867,37.6554025 C25.4949519,37.7463573 25.3538182,37.9033475 25.1081106,37.9436956 C24.9479242,37.8025931 24.7545139,37.7748799 24.6756735,37.5472971 C24.4810258,37.2792682 24.7318937,37.1118907 24.927928,37.0067546 C25.2837103,36.8159475 26.3820081,36.627888 26.513512,36.2860345 C26.6762193,36.1009443 26.5680312,35.5444522 26.513512,35.3490985 C26.3738838,34.8487338 26.3068637,34.4310039 26.1171186,33.9797304 C25.9910791,33.6799828 25.7697904,33.3639351 25.9009027,33.0067557 C26.0095493,32.960103 26.2443645,32.9070581 26.3333346,32.8265784 L26.3333346,32.8265784 Z" id="new_vector_shape_done" fill="#3B434F"></path>
        <path d="M17.0720745,26.7004529 C17.8681605,26.7004529 18.5135145,27.3458069 18.5135145,28.1418929 C18.5135145,28.9379791 17.8681605,29.5833329 17.0720745,29.5833329 C16.2759883,29.5833329 15.6306292,28.9379791 15.6306292,28.1418929 C15.6306292,27.3458069 16.2759883,26.7004529 17.0720745,26.7004529 L17.0720745,26.7004529 Z" id="oko" fill="#3B434F"></path>
        <path d="M33.0720696,26.7004529 C33.8681556,26.7004529 34.5135096,27.3458069 34.5135096,28.1418929 C34.5135096,28.9379791 33.8681556,29.5833329 33.0720696,29.5833329 C32.2759887,29.5833329 31.6306294,28.9379791 31.6306294,28.1418929 C31.6306294,27.3458069 32.2759887,26.7004529 33.0720696,26.7004529 L33.0720696,26.7004529 Z" id="oko_1" fill="#3B434F"></path>
        <path d="M33.7207226,32.0337863 C34.7158277,32.0337863 35.5225228,32.8404812 35.5225228,33.8355863 C35.5225228,34.8306914 34.7158277,35.6373865 33.7207226,35.6373865 C32.7256125,35.6373865 31.9189226,34.8306914 31.9189226,33.8355863 C31.9189226,32.8404812 32.7256125,32.0337863 33.7207226,32.0337863 L33.7207226,32.0337863 Z" id="Ellipse-3-copy-3" fill="#EDF1F1"></path>
        <path d="M16.2792824,32.0337863 C17.2743875,32.0337863 18.0810826,32.8404812 18.0810826,33.8355863 C18.0810826,34.8306914 17.2743875,35.6373865 16.2792824,35.6373865 C15.2841723,35.6373865 14.4774824,34.8306914 14.4774824,33.8355863 C14.4774824,32.8404812 15.2841723,32.0337863 16.2792824,32.0337863 L16.2792824,32.0337863 Z" id="Ellipse-3-copy-4" fill="#EDF1F1"></path>
        <path d="M9.73601993,23.3813416 C9.73601993,23.3813416 14.4814929,20.9753758 13.9569824,12.7019057 C13.9569824,12.7019057 21.5482867,21.0197088 39.8468481,18.4842341 L40.7117122,26.2680157 C40.7117122,26.2680157 51.4687873,6.33560389 32.2072054,1.76351385 C13.357312,-2.71085794 13.1400186,9.09399088 13.1400186,9.09399088 C13.1400186,9.09399088 7.35934493,8.23017331 6.87665676,13.8564394 C6.39397382,19.4827054 8.13513581,25.4031517 8.13513581,25.4031517 L9.57657584,26.5563037 L9.73601993,23.3813416 L9.73601993,23.3813416 Z" id="fill" fill="#C1BFBD"></path>
        <path d="M40.5675682,27.1328797 L39.4864882,18.9887382 C21.1879267,21.2090878 14.4614865,13.7829858 14.4614865,13.7829858 C14.1890758,22.0564559 10.1684519,23.5975574 10.1684519,23.5975574 L9.86486385,26.9166637 L7.8468478,25.7635117 C7.8468478,25.7635117 5.92458564,19.4856076 6.37215287,13.8564394 C6.85484088,7.78563733 12.7075865,8.66155878 12.7075865,8.66155878 C12.7075865,8.66155878 13.402315,-3.47295709 32.2072054,1.18693784 C52.73005,6.27254274 40.5675682,27.1328797 40.5675682,27.1328797 L40.5675682,27.1328797 Z M32.0630615,2.19594595 C13.1600921,-2.04859037 13.5405412,9.76351149 13.5405412,9.76351149 C13.5405412,9.76351149 7.86384899,8.23017331 7.38116081,13.8564394 C6.89847787,19.4827054 8.49549578,25.0427916 8.49549578,25.0427916 L9.14414375,25.5472956 L9.23151588,23.0930534 C9.23151588,23.0930534 13.9850564,21.4592341 13.4524784,11.6208257 C13.4524784,11.6208257 20.2367267,20.5091992 40.2792802,17.9797301 L41.0000002,24.4662155 C41.0000002,24.4662155 49.7629887,6.17034493 32.0630615,2.19594595 L32.0630615,2.19594595 Z" id="line" fill="#3B434F"></path>
        <path d="M29.6160311,24.7366466 C29.6160311,24.7366466 33.9310002,22.2696201 37.0134765,24.9876743 L37.8288269,25.1140542 C37.8288269,25.1140542 36.7844917,21.313827 29.1801814,23.7848591 L29.3918919,24.4932432 M29.5608108,24.4932432 C29.5608108,24.4932432 33.950548,21.9719088 36.8445576,25.1565932 L38.3355836,25.1140542 C38.3355836,25.1140542 36.4760167,21.0545926 28.8423436,23.6159402 L29.5608108,24.6621622" id="R-copy" fill="#3B434F"></path>
        <path d="M20.3443166,24.7509363 C20.3443166,24.7509363 16.0437507,22.3057412 12.9715584,24.9997422 L12.1589299,25.1250035 C12.1589299,25.1250035 13.1997804,21.3584074 20.7787127,23.807572 L20.5677084,24.5096877 M20.3993566,24.5096877 C20.3993566,24.5096877 16.0242647,22.010664 13.1399155,25.1671662 L11.653864,25.1250035 C11.653864,25.1250035 13.5072245,21.1014671 21.1154267,23.6401481 L20.3993566,24.6771117" id="R-copy-3" fill="#3B434F"></path>
    </g>
</svg>