
<svg viewBox="12 7 50 69" version="1.1" xmlns="http://www.w3.org/2000/svg">
    <defs></defs>
    <g id="svg11811" stroke="none" stroke-width="1" fill="none" fill-rule="evenodd" transform="translate(12.000000, 7.000000)">
        <path d="M49.910973,50.5432318 C46.7440398,64.3954211 30.5337846,58.9703483 25,56.6688727 L25,56.6541494 C19.4662154,58.9573925 3.25596025,64.3866307 0.0890270186,50.5238078 C0.0890270186,50.5238078 5.76914907,50.5848856 4.06418323,32.7681168 C4.06418323,32.7681168 -2.08955854,-2.52689332 25,0.42319441 L25,0.481030901 C52.0895585,-2.46679643 45.9358168,32.8011506 45.9358168,32.8011506 C44.2308509,50.6042623 49.910973,50.5432318 49.910973,50.5432318 L49.910973,50.5432318 Z" id="Shape-12" fill="#3B434F"></path>
        <path d="M2.85092935,67.3913043 C2.85092935,67.3913043 1.82375699,53.4179783 14.9751556,52.113873 L20.8716351,52.113873 L20.8716351,49.3975148 C20.8716351,49.3975148 25.0194099,51.1790874 29.2194627,49.5962724 L29.3519677,52.113873 L36.2422351,52.113873 C36.2422351,52.113873 48.0412121,52.5772663 47.5051738,67.5238095 L2.85092935,67.3913043 L2.85092935,67.3913043 Z" id="body-bg-flat-copy" fill="#FFFFFF"></path>
        <path d="M47.6203823,67.9482407 L47.6203823,67.9482407 L3.4408191,67.9482407 L3.4408191,67.9482407 L2.58400481,67.9482407 L2.79787904,64.2945425 C3.21547236,57.1606559 8.83621304,51.7163579 15.2683756,51.7163579 L20.163561,51.7163579 L20.163561,52.4451357 L15.6588584,52.4451357 C9.45957733,52.4451357 4.04233758,57.6855725 3.63986087,64.5523307 L3.49130093,67.0869579 L47.5036478,67.0869579 L47.4213405,64.5523307 C47.0188638,57.6855725 41.6016241,52.4451357 35.4023382,52.4451357 L29.3726714,52.4451357 L29.3726714,51.7163579 L35.7535321,51.7163579 C42.1856946,51.7163579 47.8064354,57.1606559 48.2240286,64.2945425 L48.4379028,67.9482407 L47.6203823,67.9482407 L47.6203823,67.9482407 Z" id="Rounded-Rectangle-13" fill="#3B434F"></path>
        <path d="M24.8012424,59.9316756 C21.2519865,59.9316756 18.374738,57.0544368 18.374738,53.5051761 C18.374738,52.8841433 18.4645848,52.2844255 18.6289533,51.7163579 L18.639753,51.7163579 L19.321707,51.7163579 L20.4948236,51.7163579 L20.4948236,52.4451357 L19.1364359,52.4451357 C19.0721168,52.7887949 19.0372634,53.142813 19.0372634,53.5051761 C19.0372634,56.6885339 21.6178894,59.2691505 24.8012424,59.2691505 C27.9846002,59.2691505 30.5652168,56.6885339 30.5652168,53.5051761 C30.5652168,53.142813 30.530368,52.7887949 30.4660441,52.4451357 L29.1076613,52.4451357 L29.1076613,51.7163579 L30.2807731,51.7163579 L30.962732,51.7163579 L30.9735269,51.7163579 C31.1378953,52.2844255 31.2277421,52.8841433 31.2277421,53.5051761 C31.2277421,57.0544368 28.3505031,59.9316756 24.8012424,59.9316756 L24.8012424,59.9316756 Z" id="Ellipse-4" fill="#3B434F"></path>
        <path d="M21.0248438,49.0910075 L21.0248438,53.1772022 C21.0248438,55.2976194 22.7452581,57.0165646 24.8674949,57.0165646 C26.9897318,57.0165646 28.7101461,55.2976194 28.7101461,53.1772022 L28.7101461,49.1753098 C28.9331519,49.107432 29.1540584,49.0337064 29.3726714,48.9540575 L29.3726714,53.2050138 C29.3726714,55.7125637 27.3408073,57.7453424 24.8343711,57.7453424 C22.3279349,57.7453424 20.296066,55.7125637 20.296066,53.2050138 L20.296066,48.8282102 C20.5361028,48.9231228 20.7792247,49.0104202 21.0248438,49.0910075 L21.0248438,49.0910075 Z" id="neck" fill="#3B434F"></path>
        <path d="M25.0333325,7.5258764 C33.2752394,7.5258764 39.7805825,15.2279303 39.5690587,24.4821348 L39.3442427,34.317718 C39.1449685,43.0360972 32.7399733,49.9275349 25.0333325,49.9275349 C17.3266915,49.9275349 10.9216963,43.0360972 10.7224222,34.317718 L10.4976062,24.4821348 C10.2860871,15.2279303 16.7914255,7.5258764 25.0333325,7.5258764 L25.0333325,7.5258764 Z" id="2-copy-5" fill="#FFFFFF"></path>
        <path d="M40.2312711,24.1771958 L39.995703,34.4123461 C39.7868992,43.4849093 33.0755104,50.6563127 25.000218,50.6563127 C16.9249208,50.6563127 10.2135368,43.4849093 10.0047283,34.4123461 L9.76915543,24.1771958 C9.5475191,14.5470376 16.3640514,6.53208851 25.000218,6.53208851 C33.6363846,6.53208851 40.4529121,14.5470376 40.2312711,24.1771958 L40.2312711,24.1771958 Z M24.9671273,7.59212904 C16.8378936,7.59212904 10.4214876,15.2340101 10.6301112,24.4159154 L10.8518565,34.1746596 C11.0484057,42.8249241 17.365843,49.6625248 24.9671273,49.6625248 C32.5684115,49.6625248 38.8858439,42.8249241 39.0823933,34.1746596 L39.3041339,24.4159154 C39.5127669,15.2340101 33.0963609,7.59212904 24.9671273,7.59212904 L24.9671273,7.59212904 Z" id="2-line" fill="#3B434F"></path>
        <path d="M32.1552775,40.2680012 C30.9510509,41.3136262 28.2310581,42.3084851 25.0662573,42.3084851 C21.9014517,42.3084851 19.1814589,41.3136262 17.9772276,40.2680012 C17.9772276,40.2680012 17.85402,39.9289812 18.0347893,39.748212 C18.218904,39.5640972 18.5072478,39.604168 18.5072478,39.604168 C19.7102138,40.650504 21.9002433,41.5134596 25.0662573,41.5134596 C28.2322665,41.5134596 30.422296,40.650504 31.625262,39.604168 C31.625262,39.604168 31.9195197,39.4948592 32.0624641,39.6378037 C32.3377811,39.9131207 32.1552775,40.2680012 32.1552775,40.2680012 L32.1552775,40.2680012 Z" id="usta" fill="#3B434F"></path>
        <path d="M22.8799193,43.8985505 L27.1200856,43.8985505 L27.1200856,44.5610758 L22.8799193,44.5610758 L22.8799193,43.8985505 L22.8799193,43.8985505 Z" id="-" fill="#3B434F"></path>
        <path d="M9.75267391,25.6697424 C9.75084488,25.6698466 9.59000202,25.541398 9.28627624,25.4457699 C9.134475,25.3980601 8.94581102,25.3588137 8.73077112,25.3491373 C8.67706677,25.3467205 8.62179394,25.346147 8.56523696,25.3477534 C8.50867981,25.3493599 8.45083385,25.3531415 8.3920354,25.3594203 C8.2744528,25.3719828 8.15301273,25.3945582 8.03080963,25.4297102 C7.54150016,25.5703281 7.04234348,25.9122149 6.74918991,26.6178724 C6.60203261,26.97072 6.5049545,27.4145517 6.47928944,27.9698627 C6.47286832,28.1086939 6.47090652,28.2544911 6.47372127,28.4075767 C6.47654084,28.5606621 6.48414193,28.7210357 6.49683696,28.8890199 C6.52221304,29.2249739 6.5680368,29.5913744 6.63631273,29.9906334 C6.63482003,29.9902401 6.57263339,31.1971534 7.00410637,32.5839783 C7.40973432,33.9398733 8.38377578,35.6054697 10.1821947,36.0814301 C9.97535745,32.6374267 9.96893183,29.1288672 9.75267391,25.6697424 L9.75267391,25.6697424 L9.75267391,25.6697424 Z" id="Shape-11-copy" fill="#FFFFFF"></path>
        <path d="M9.95774363,25.8085831 C9.95774363,25.8085831 6.82476351,24.8378256 6.93502019,28.0587096 C6.93502019,28.0587096 7.40146522,32.7290932 7.60401848,33.1595284 C7.60401848,33.1595284 8.83442655,35.8787868 10.8650398,35.9992981 C12.849668,36.1170798 10.8650398,35.9992981 10.8650398,35.9992981 L10.889686,36.8757781 C10.889686,36.8757781 7.32064099,36.4181708 6.63130388,32.3051879 L6.08722376,28.5687418 C6.08722376,28.5687418 5.66476863,23.6239227 9.76260637,24.8811804 C13.7547321,26.1060064 9.76260637,24.8811804 9.76260637,24.8811804 L9.95774363,25.8085831" id="Shape-3" fill="#3B434F"></path>
        <path d="M8.92365264,32.2973311 C8.92365264,32.2973311 8.74831863,32.4298362 8.59769736,32.4298362 C8.44707609,32.4298362 8.27387935,32.2973311 8.27387935,32.2973311 L7.95055419,29.0391342 C7.95055419,29.0391342 8.3966604,27.4345587 10.2896554,28.2825304 L10.3344034,29.2141648 C10.3344034,29.2141648 8.67358851,28.6251565 8.70793028,29.3586067 C8.74098789,30.0645911 8.92365264,32.2973311 8.92365264,32.2973311 L8.92365264,32.2973311 Z" id="Shape-4" fill="#3B434F"></path>
        <path d="M40.1884186,25.6773481 C40.1902571,25.6774523 40.3518061,25.5490936 40.6568587,25.4535272 C40.8093281,25.4058506 40.9988166,25.3666328 41.2147995,25.3569609 C41.268736,25.3545489 41.3242506,25.3539755 41.3810589,25.355582 C41.4378623,25.3571835 41.4959593,25.3609651 41.5550185,25.3672393 C41.6731129,25.3797922 41.7950885,25.4023534 41.917827,25.4374818 C42.4092784,25.5780048 42.9106197,25.9196595 43.2050575,26.6248384 C43.3528592,26.9774443 43.4503638,27.4209727 43.4761379,27.9759093 C43.4825874,28.1146458 43.4845587,28.2603436 43.4817343,28.4133248 C43.4789006,28.5663059 43.4712665,28.7265707 43.4585144,28.894441 C43.4330295,29.2301675 43.3870019,29.5963216 43.3184275,29.9953057 C43.3199297,29.9949124 43.3823863,31.2010107 42.9490225,32.5868927 C42.5416224,33.9418683 41.5633113,35.6063321 39.7570166,36.0819703 C39.9647589,32.6403031 39.971213,29.1341272 40.1884186,25.6773481 L40.1884186,25.6773481 L40.1884186,25.6773481 Z" id="Shape-11-copy_1" fill="#FFFFFF"></path>
        <path d="M39.981771,25.8160988 C39.981771,25.8160988 43.1284744,24.846 43.0177345,28.0646946 C43.0177345,28.0646946 42.549247,32.7319081 42.3458028,33.1620495 C42.3458028,33.1620495 41.1100068,35.8794644 39.0705037,35.9998952 C37.07718,36.1175964 39.0705037,35.9998952 39.0705037,35.9998952 L39.0457484,36.8757781 C39.0457484,36.8757781 42.6304219,36.4184835 43.3227776,32.3082918 L43.8692413,28.5743807 C43.8692413,28.5743807 44.2935494,23.6329168 40.177761,24.8893216 C36.1681542,26.1133182 40.177761,24.8893216 40.177761,24.8893216 L39.981771,25.8160988" id="Shape-3_1" fill="#3B434F"></path>
        <path d="M41.0203922,32.3004398 C41.0203922,32.3004398 41.1964938,32.4328547 41.3477738,32.4328547 C41.4990537,32.4328547 41.6730087,32.3004398 41.6730087,32.3004398 L41.9977508,29.0444557 C41.9977508,29.0444557 41.5496921,27.4409703 39.6484043,28.2883638 L39.603462,29.2193679 C39.603462,29.2193679 41.2715509,28.6307578 41.2370575,29.3637104 C41.2038578,30.0692161 41.0203922,32.3004398 41.0203922,32.3004398 L41.0203922,32.3004398 Z" id="Shape-4_1" fill="#3B434F"></path>
        <path d="M26.2256741,32.0393391 L26.4575556,32.0393391 C26.9369753,32.6904202 27.1320225,33.6909561 27.3850908,34.5569349 C27.4635172,34.8253048 27.3874318,35.2947165 27.3188384,35.4844703 C27.0676323,36.1794276 26.2788334,36.1669553 25.6294014,36.4782582 C25.4549868,36.5618688 25.3252491,36.7061828 25.0993812,36.743273 C24.952129,36.6135638 24.7743357,36.5880884 24.7018613,36.3788818 C24.5229306,36.132495 24.7535421,35.9786325 24.9337475,35.8819856 C25.260802,35.7065852 26.2704174,35.5337107 26.391303,35.2194602 C26.5408724,35.0493152 26.44142,34.5377573 26.391303,34.3581775 C26.2629491,33.8982149 26.2013405,33.5142148 26.0269165,33.0993795 C25.911054,32.8238351 25.7076334,32.5333068 25.828159,32.204968 C25.9280329,32.1620823 26.1438879,32.1133205 26.2256741,32.0393391 L26.2256741,32.0393391 Z" id="new_vector_shape_done" fill="#3B434F"></path>
        <path d="M16.5859199,27.3619042 L18.9710155,27.3619042 C19.3003258,27.3619042 19.5672882,27.6822582 19.5672882,28.0774325 C19.5672882,28.4726065 19.3003258,28.7929606 18.9710155,28.7929606 L16.5859199,28.7929606 C16.2566096,28.7929606 15.9896472,28.4726065 15.9896472,28.0774325 C15.9896472,27.6822582 16.2566096,27.3619042 16.5859199,27.3619042 L16.5859199,27.3619042 Z" id="Rounded-Rectangle-9" fill="#3B434F"></path>
        <path d="M31.1614896,27.2029 L33.5465852,27.2029 C33.8758955,27.2029 34.1428579,27.5232492 34.1428579,27.9184283 C34.1428579,28.3136025 33.8758955,28.6339517 33.5465852,28.6339517 L31.1614896,28.6339517 C30.8321793,28.6339517 30.5652168,28.3136025 30.5652168,27.9184283 C30.5652168,27.5232492 30.8321793,27.2029 31.1614896,27.2029 L31.1614896,27.2029 Z" id="Rounded-Rectangle-9-copy" fill="#3B434F"></path>
        <path d="M33.0165649,31.3105613 C33.9313199,31.3105613 34.6728781,32.0521194 34.6728781,32.9668744 C34.6728781,33.8816293 33.9313199,34.6231876 33.0165649,34.6231876 C32.1018053,34.6231876 31.3602519,33.8816293 31.3602519,32.9668744 C31.3602519,32.0521194 32.1018053,31.3105613 33.0165649,31.3105613 L33.0165649,31.3105613 Z" id="Ellipse-3" fill="#EDF1F1"></path>
        <path d="M16.9834398,31.3105613 C17.8981947,31.3105613 18.639753,32.0521194 18.639753,32.9668744 C18.639753,33.8816293 17.8981947,34.6231876 16.9834398,34.6231876 C16.0686801,34.6231876 15.3271267,33.8816293 15.3271267,32.9668744 C15.3271267,32.0521194 16.0686801,31.3105613 16.9834398,31.3105613 L16.9834398,31.3105613 Z" id="Ellipse-3-copy" fill="#EDF1F1"></path>
        <path d="M38.2505193,25.2153196 L38.2505193,30.118011 C38.2505193,31.3161056 37.0818191,33.1856295 35.1774607,33.2926922 C34.8977082,33.2793526 29.2401663,33.298137 29.2401663,33.298137 C26.696948,33.298137 26.1925455,30.2505161 26.1925455,30.2505161 L26.1925455,26.9378899 L23.8074545,26.9378899 L23.8074545,30.2505161 C23.8074545,30.2505161 23.303052,33.298137 20.7598337,33.298137 C20.7598337,33.298137 15.1022918,33.2793526 14.8225393,33.2926922 C12.9181809,33.1856295 11.7494807,31.3161056 11.7494807,30.118011 L11.7494807,25.2153196 L9.6294,25.2153196 L9.6294,23.8902691 L21.9523792,23.8902691 C21.9523792,23.8902691 23.8074545,24.1899573 23.8074545,25.4803297 L26.1925455,25.4803297 C26.1925455,24.1899573 28.0476208,23.8902691 28.0476208,23.8902691 L40.3706,23.8902691 L40.3706,25.2153196 L38.2505193,25.2153196 L38.2505193,25.2153196 Z M22.4823994,25.8778447 C22.4823994,25.4055379 21.9523792,25.3478245 21.9523792,25.3478245 L13.074536,25.3478245 L13.074536,29.9855061 C13.074536,31.4305134 15.0621118,31.9730865 15.0621118,31.9730865 L20.4948236,31.9730865 C22.3640016,31.9730865 22.4823994,29.9855061 22.4823994,29.9855061 L22.4823994,25.8778447 L22.4823994,25.8778447 Z M36.925464,25.3478245 L28.0476208,25.3478245 C28.0476208,25.3478245 27.5176006,25.4055379 27.5176006,25.8778447 L27.5176006,29.9855061 C27.5176006,29.9855061 27.6359984,31.9730865 29.5051764,31.9730865 L34.9378882,31.9730865 C34.9378882,31.9730865 36.925464,31.4305134 36.925464,29.9855061 L36.925464,25.3478245 L36.925464,25.3478245 Z M35.0703933,33.3014582 C35.1285521,33.3002452 35.1854293,33.2959195 35.2427718,33.2926922 C35.2909896,33.2949962 35.2425506,33.2978725 35.0703933,33.3014582 L35.0703933,33.3014582 Z M14.8292231,33.2926922 C14.8865656,33.2959195 14.9434429,33.3002452 15.0016016,33.3014582 C14.8294444,33.2978725 14.7810054,33.2949962 14.8292231,33.2926922 L14.8292231,33.2926922 Z" id="Shape-1-copy-5" fill="#3B434F"></path>
        <path d="M25,14.7530076 L25,0.082421118 C25.044222,0.0820799689 25.0882025,0.0807436335 25.1325051,0.0807436335 C34.4264391,0.0807436335 41.9606606,7.61496972 41.9606606,16.9089039 L41.9606606,22.317287 C41.9572818,22.5057613 41.9571112,22.6907481 41.9606606,22.8716359 C41.9606606,22.8716359 26.3319738,18.6449371 25,14.7530076 L25,14.7530076 Z M8.03933944,22.8716359 C8.04288882,22.6907481 8.04271817,22.5057613 8.03933944,22.317287 L8.03933944,16.9089039 C8.03933944,7.61496972 15.5735609,0.0807436335 24.8674949,0.0807436335 C24.9117975,0.0807436335 24.955778,0.0820799689 25,0.082421118 L25,14.7530076 C23.6680262,18.6449371 8.03933944,22.8716359 8.03933944,22.8716359 L8.03933944,22.8716359 Z" id="Rounded-Rectangle-6" fill="#3B434F"></path>
    </g>
</svg>