
<svg viewBox="13 5 50 70" version="1.1" xmlns="http://www.w3.org/2000/svg" xmlns:xlink="http://www.w3.org/1999/xlink">
    <g id="svg7296" stroke="none" stroke-width="1" fill="none" fill-rule="evenodd" transform="translate(13.000000, 5.000000)">
        <path d="M2.71727078,58.3623834 C2.71727078,58.3623834 5.77862196,36.9555963 4.66116824,26.9193083 C3.53672432,16.8202838 6.70377889,0.0112584459 26.6456294,0.0112584459 C44.2330181,0.0112584459 46.1972882,19.2533184 45.7786611,22.8068894 C45.3126495,26.7626427 41.788426,51.7160931 45.8457225,60.4405738 C49.8583562,69.0690272 32.8665296,65.5900904 32.8665296,65.5900904 L10.063723,65.1254809 L2.71727078,58.3623834 L2.71727078,58.3623834 Z" id="back" fill="#3B434F"></path>
        <path d="M0.567565034,69.0878378 C0.567565034,69.0878378 -0.549831926,53.887125 13.7567571,52.4684699 L20.1711706,52.4684699 L20.1711706,49.5135127 C20.1711706,49.5135127 24.683277,51.4515748 29.2522534,49.7297287 L29.3963973,52.4684699 L36.8918909,52.4684699 C36.8918909,52.4684699 49.7272645,52.9725667 49.1441417,69.2319819 L0.567565034,69.0878378 L0.567565034,69.0878378 Z" id="body-bg-flat-copy" fill="#FFFFFF"></path>
        <path d="M0.506756757,69.4256757 C0.506756757,69.4256757 -1.23342568,54.1704177 13.7567571,52.4684699 L20.1711706,52.4684699 L20.1711706,49.5135127 C20.1711706,49.5135127 24.683277,51.4515748 29.2522534,49.7297287 L29.3963973,52.4684699 L36.8918909,52.4684699 C36.8918909,52.4684699 49.9448416,53.7715551 49.1554054,69.4256757 L0.506756757,69.4256757 L0.506756757,69.4256757 Z" id="body-bg-flat" fill="#FFFFFF"></path>
        <path d="M49.0307318,69.6936943 L49.0307318,69.6936943 L0.970531081,69.6936943 L0.970531081,69.6936943 L0.03845625,69.6936943 L0.271116723,65.7190632 C0.725390541,57.9585514 6.83984493,52.036038 13.8369948,52.036038 L19.1621625,52.036038 L19.1621625,52.8288301 L14.2617767,52.8288301 C7.51796419,52.8288301 1.62488581,58.5295755 1.18705642,65.9994949 L1.0254473,68.7567583 L48.9037436,68.7567583 L48.8142066,65.9994949 C48.3763772,58.5295755 42.4832988,52.8288301 35.7394811,52.8288301 L29.1801814,52.8288301 L29.1801814,52.036038 L36.1215231,52.036038 C43.1186728,52.036038 49.2331274,57.9585514 49.687401,65.7190632 L49.9200615,69.6936943 L49.0307318,69.6936943 L49.0307318,69.6936943 Z" id="Rounded-Rectangle-13-copy" fill="#3B434F"></path>
        <path d="M20.8918907,49.1800824 L20.8918907,53.6251997 C20.8918907,55.9318698 22.7634223,57.8018034 25.072072,57.8018034 C27.3807216,57.8018034 29.2522534,55.9318698 29.2522534,53.6251997 L29.2522534,49.2717897 C29.4948475,49.1979497 29.7351579,49.1177481 29.9729733,49.031103 L29.9729733,53.6554542 C29.9729733,56.3832618 27.7626346,58.5945954 25.0360385,58.5945954 C22.3094424,58.5945954 20.0990986,56.3832618 20.0990986,53.6554542 L20.0990986,48.8942017 C20.3602198,48.9974512 20.624697,49.0924166 20.8918907,49.1800824 L20.8918907,49.1800824 Z" id="neck-copy-5" fill="#3B434F"></path>
        <path d="M20.0630652,57.7297314 C20.3217894,57.7297314 20.5315306,57.9394676 20.5315306,58.1981968 L20.5315306,65.2612583 C20.5315306,65.5199875 20.3217894,65.7297289 20.0630652,65.7297289 C19.804336,65.7297289 19.5945946,65.5199875 19.5945946,65.2612583 L19.5945946,58.1981968 C19.5945946,57.9394676 19.804336,57.7297314 20.0630652,57.7297314 L20.0630652,57.7297314 Z" id="Rounded-Rectangle-14" fill="#3B434F"></path>
        <path d="M29.9009014,57.6576595 C30.1795289,57.6576595 30.4054054,57.8835307 30.4054054,58.1621633 L30.4054054,62.5585556 C30.4054054,62.8371883 30.1795289,63.0630649 29.9009014,63.0630649 C29.6222687,63.0630649 29.3963973,62.8371883 29.3963973,62.5585556 L29.3963973,58.1621633 C29.3963973,57.8835307 29.6222687,57.6576595 29.9009014,57.6576595 L29.9009014,57.6576595 Z" id="Rounded-Rectangle-15" fill="#3B434F"></path>
        <path d="M20.0630652,65.2252248 C20.2023789,65.2252248 20.3153147,65.3381605 20.3153147,65.4774794 L20.3153147,67.2792796 C20.3153147,67.4185934 20.2023789,67.5315291 20.0630652,67.5315291 C19.9237463,67.5315291 19.8108106,67.4185934 19.8108106,67.2792796 L19.8108106,65.4774794 C19.8108106,65.3381605 19.9237463,65.2252248 20.0630652,65.2252248 L20.0630652,65.2252248 Z" id="Rounded-Rectangle-16" fill="#3B434F"></path>
        <path d="M29.9369348,62.5585556 C30.0762537,62.5585556 30.1891894,62.6714965 30.1891894,62.8108101 L30.1891894,64.6126103 C30.1891894,64.7519292 30.0762537,64.8648649 29.9369348,64.8648649 C29.7976211,64.8648649 29.6846853,64.7519292 29.6846853,64.6126103 L29.6846853,62.8108101 C29.6846853,62.6714965 29.7976211,62.5585556 29.9369348,62.5585556 L29.9369348,62.5585556 Z" id="Rounded-Rectangle-16-copy" fill="#3B434F"></path>
        <path d="M17.3590377,47.4064441 L12.7942318,48.4546248 C12.7942318,48.4546248 7.20419493,49.7208466 10.9232515,53.4883345 C14.6423133,57.2558223 24.2072079,57.9211725 24.2072079,57.9211725 C24.2072079,57.9211725 21.6782596,56.7233267 20.6036027,55.0382872 L20.2432426,48.9842338 L17.3590377,47.4064441 L17.3590377,47.4064441 Z" id="Shape-1-copy" fill="#F5F3EF"></path>
        <path d="M24.351352,58.2815324 C24.0681159,58.6400213 16.1036105,58.3935299 10.5855838,53.5968471 C6.59020912,50.1237611 12.6036051,48.1193698 12.6036051,48.1193698 L17.0000025,47.1103617 L20.8198186,49.0563057 L21.1081066,54.8941432 C22.7161253,57.415488 24.8073216,57.70441 24.351352,58.2815324 L24.351352,58.2815324 Z M20.3873867,55.1824312 L19.9549546,49.0563057 L17.6486505,47.7590096 L13.2522532,48.8400897 C13.2522532,48.8400897 7.92709561,49.9320726 11.3063039,53.0923431 C14.9531493,56.5028937 21.6995909,57.4181736 22.4054079,57.3445965 C23.1369534,57.2683282 21.9954052,57.7037811 20.3873867,55.1824312 L20.3873867,55.1824312 Z" id="Shape-1-copy-2" fill="#3B434F"></path>
        <path d="M32.7802813,47.5762497 L37.3477936,48.6275699 C37.3477936,48.6275699 42.9411399,49.8975806 39.2198821,53.6763527 C35.4986139,57.4551247 25.9280488,58.1224647 25.9280488,58.1224647 C25.9280488,58.1224647 28.4585025,56.9210361 29.5337883,55.23095 L29.8943649,49.1587664 L32.7802813,47.5762497 L32.7802813,47.5762497 Z" id="Shape-1-copy-4" fill="#F5F3EF"></path>
        <path d="M25.7838223,58.4118302 C26.0672235,58.7713963 34.0364508,58.5241679 39.5577456,53.7131181 C43.5554917,50.2296294 37.5385336,48.2192375 37.5385336,48.2192375 L33.1395279,47.2072086 L29.3174486,49.1589779 L29.0289853,55.014301 C27.4200182,57.5431978 25.3275846,57.8329807 25.7838223,58.4118302 L25.7838223,58.4118302 Z M29.7501333,55.3034498 L30.182823,49.1589779 L32.4904983,47.8578 L36.889499,48.9421174 C36.889499,48.9421174 42.2178166,50.0373686 38.8365978,53.2071035 C35.1875924,56.6278716 28.4371505,57.5458887 27.7309211,57.4720899 C26.9989375,57.3955948 28.141166,57.8323468 29.7501333,55.3034498 L29.7501333,55.3034498 Z" id="Shape-1-copy-6" fill="#3B434F"></path>
        <path d="M25.0362603,3.96396014 C34.0021186,3.96396014 41.0788769,12.3425458 40.8487733,22.4096196 L40.60421,33.1091392 C40.3874319,42.593322 33.4198358,50.0900887 25.0362603,50.0900887 C16.6526846,50.0900887 9.68508851,42.593322 9.46831064,33.1091392 L9.2237473,22.4096196 C8.99364882,12.3425458 16.070402,3.96396014 25.0362603,3.96396014 L25.0362603,3.96396014 Z" id="2-copy-5" fill="#FFFFFF"></path>
        <path d="M41.569153,22.0778954 L41.3128931,33.2120792 C41.0857485,43.0815568 33.7848458,50.8828807 25.0002372,50.8828807 C16.2156233,50.8828807 8.91472584,43.0815568 8.68757601,33.2120792 L8.43131098,22.0778954 C8.19020659,11.6018449 15.6054883,2.88288007 25.0002372,2.88288007 C34.394986,2.88288007 41.8102625,11.6018449 41.569153,22.0778954 L41.569153,22.0778954 Z M24.9642399,4.03603226 C16.1209519,4.03603226 9.14094257,12.3491596 9.36789122,22.3375836 L9.60911419,32.9535149 C9.82292787,42.3635998 16.6952752,49.8018007 24.9642399,49.8018007 C33.2332044,49.8018007 40.1055465,42.3635998 40.3193603,32.9535149 L40.560578,22.3375836 C40.787537,12.3491596 33.8075277,4.03603226 24.9642399,4.03603226 L24.9642399,4.03603226 Z" id="2-line" fill="#3B434F"></path>
        <path d="M32.7837816,39.5820824 C31.4737784,40.7195529 28.5148672,41.801798 25.0720772,41.801798 C21.6292819,41.801798 18.6703708,40.7195529 17.3603625,39.5820824 C17.3603625,39.5820824 17.2263326,39.2132836 17.4229802,39.016636 C17.6232672,38.816349 17.9369385,38.8599395 17.9369385,38.8599395 C19.2455704,39.9981834 21.6279674,40.9369392 25.0720772,40.9369392 C28.5161818,40.9369392 30.8985787,39.9981834 32.2072106,38.8599395 C32.2072106,38.8599395 32.5273154,38.7410292 32.6828157,38.8965297 C32.9823159,39.1960299 32.7837816,39.5820824 32.7837816,39.5820824 L32.7837816,39.5820824 Z" id="usta" fill="#3B434F"></path>
        <path d="M22.6936959,43.5315313 L27.3063093,43.5315313 L27.3063093,44.2522514 L22.6936959,44.2522514 L22.6936959,43.5315313 L22.6936959,43.5315313 Z" id="-" fill="#3B434F"></path>
        <path d="M8.24446284,23.7015441 C8.24247314,23.7016574 8.0675022,23.5619262 7.7370978,23.4578983 C7.57196267,23.4059978 7.36672686,23.3633041 7.13279831,23.3527777 C7.07437669,23.3501486 7.01424882,23.3495248 6.95272399,23.3512723 C6.89119899,23.3530199 6.82827196,23.3571336 6.76430878,23.363964 C6.63639797,23.3776299 6.50429088,23.4021883 6.37135372,23.440428 C5.83906436,23.5933975 5.29606284,23.9653149 4.97715929,24.7329557 C4.81707601,25.1167968 4.71147078,25.5996137 4.68355135,26.203702 C4.67656622,26.3547279 4.67443209,26.5133316 4.67749409,26.6798639 C4.68056132,26.8463959 4.68883007,27.0208564 4.7026402,27.2035959 C4.73024527,27.5690595 4.78009409,27.9676437 4.85436723,28.4019728 C4.85274341,28.4015449 4.78509443,29.7144709 5.25446706,31.2231115 C5.69572449,32.6981054 6.75532365,34.5100042 8.71171182,35.027772 C8.48670642,31.2812547 8.47971639,27.464511 8.24446284,23.7015441 L8.24446284,23.7015441 L8.24446284,23.7015441 Z" id="Shape-11-copy" fill="#FFFFFF"></path>
        <path d="M8.63646436,23.8525802 C8.63646436,23.8525802 5.22829003,22.7965535 5.34823142,26.300353 C5.34823142,26.300353 5.85564797,31.380973 6.07599307,31.8492167 C6.07599307,31.8492167 7.41447753,34.8073289 9.62345541,34.9384257 C11.7824091,35.066553 9.62345541,34.9384257 9.62345541,34.9384257 L9.65026655,35.8918938 C9.65026655,35.8918938 5.76772432,35.3940912 5.01783733,30.9198328 L4.42596639,26.8551853 C4.42596639,26.8551853 3.96640372,21.476024 8.42418666,22.8437166 C12.7669721,24.1761285 8.42418666,22.8437166 8.42418666,22.8437166 L8.63646436,23.8525802" id="Shape-3" fill="#3B434F"></path>
        <path d="M7.51154105,30.9112858 C7.51154105,30.9112858 7.32080608,31.0554299 7.15695456,31.0554299 C6.99310304,31.0554299 6.80469307,30.9112858 6.80469307,30.9112858 L6.45296774,27.3668959 C6.45296774,27.3668959 6.93825895,25.621378 8.99753057,26.5438338 L9.04620912,27.5573008 C9.04620912,27.5573008 7.23951182,26.9165554 7.2768701,27.7144302 C7.31283142,28.4824269 7.51154105,30.9112858 7.51154105,30.9112858 L7.51154105,30.9112858 Z" id="Shape-4" fill="#3B434F"></path>
        <path d="M41.5225365,23.7098179 C41.5245365,23.7099313 41.7002755,23.5702978 42.0321233,23.466337 C42.1979853,23.4144726 42.4041181,23.37181 42.6390725,23.3612885 C42.6977466,23.3586647 42.7581375,23.3580409 42.8199356,23.3597885 C42.8817285,23.3615307 42.9449287,23.3656444 43.0091755,23.3724698 C43.1376431,23.3861253 43.2703328,23.4106682 43.4038524,23.4488823 C43.9384718,23.6017485 44.4838498,23.9734133 44.8041503,24.7405336 C44.9649346,25.1241117 45.0710039,25.6065986 45.0990419,26.2102797 C45.1060579,26.3612025 45.1082024,26.5196981 45.1051299,26.6861169 C45.1020473,26.8525355 45.0937426,27.0268775 45.0798704,27.2094932 C45.052147,27.5747093 45.0020764,27.9730255 44.9274785,28.4070556 C44.9291127,28.4066277 44.9970554,29.7186671 44.5256258,31.2262819 C44.0824405,32.7002757 43.0181968,34.5109424 41.053241,35.0283596 C41.2792309,31.2843838 41.286252,27.4702329 41.5225365,23.7098179 L41.5225365,23.7098179 L41.5225365,23.7098179 Z" id="Shape-11-copy_1" fill="#FFFFFF"></path>
        <path d="M41.2977373,23.8607561 C41.2977373,23.8607561 44.7208404,22.8054459 44.6003733,26.3068637 C44.6003733,26.3068637 44.090735,31.3840351 43.8694206,31.8519593 C43.8694206,31.8519593 42.525075,34.808066 40.3064264,34.9390752 C38.1380133,35.067115 40.3064264,34.9390752 40.3064264,34.9390752 L40.2794966,35.8918938 C40.2794966,35.8918938 44.17904,35.3944314 44.9322108,30.9232093 L45.5266747,26.8613196 C45.5266747,26.8613196 45.988253,21.4858081 41.5109427,22.8525728 C37.1491407,24.1840826 41.5109427,22.8525728 41.5109427,22.8525728 L41.2977373,23.8607561" id="Shape-3_1" fill="#3B434F"></path>
        <path d="M42.4275889,30.9146676 C42.4275889,30.9146676 42.6191588,31.0587135 42.7837269,31.0587135 C42.9482949,31.0587135 43.1375297,30.9146676 43.1375297,30.9146676 L43.4907965,27.372685 C43.4907965,27.372685 43.0033813,25.6283529 40.9350885,26.5501796 L40.8861985,27.562961 C40.8861985,27.562961 42.7008088,26.9226486 42.6632855,27.7199823 C42.6271696,28.4874581 42.4275889,30.9146676 42.4275889,30.9146676 L42.4275889,30.9146676 Z" id="Shape-4_1" fill="#3B434F"></path>
        <path d="M26.3333346,30.6306324 L26.5855841,30.6306324 C27.107115,31.338903 27.3192948,32.4273238 27.5945921,33.3693684 C27.6799073,33.6613113 27.5971387,34.1719551 27.5225201,34.3783765 C27.2492486,35.1343774 26.3911633,35.1208095 25.6846867,35.4594566 C25.4949519,35.5504113 25.3538182,35.7074015 25.1081106,35.7477497 C24.9479242,35.6066471 24.7545139,35.578934 24.6756735,35.3513512 C24.4810258,35.0833223 24.7318937,34.9159448 24.927928,34.8108086 C25.2837103,34.6200015 26.3820081,34.4319421 26.513512,34.0900885 C26.6762193,33.9049983 26.5680312,33.3485062 26.513512,33.1531525 C26.3738838,32.6527878 26.3068637,32.2350579 26.1171186,31.7837845 C25.9910791,31.4840368 25.7697904,31.1679892 25.9009027,30.8108098 C26.0095493,30.7641571 26.2443645,30.7111122 26.3333346,30.6306324 L26.3333346,30.6306324 Z" id="new_vector_shape_done" fill="#3B434F"></path>
        <path d="M17.0720745,24.5045069 C17.8681605,24.5045069 18.5135145,25.149861 18.5135145,25.945947 C18.5135145,26.7420331 17.8681605,27.387387 17.0720745,27.387387 C16.2759883,27.387387 15.6306292,26.7420331 15.6306292,25.945947 C15.6306292,25.149861 16.2759883,24.5045069 17.0720745,24.5045069 L17.0720745,24.5045069 Z" id="oko" fill="#3B434F"></path>
        <path d="M33.0720696,24.5045069 C33.8681556,24.5045069 34.5135096,25.149861 34.5135096,25.945947 C34.5135096,26.7420331 33.8681556,27.387387 33.0720696,27.387387 C32.2759887,27.387387 31.6306294,26.7420331 31.6306294,25.945947 C31.6306294,25.149861 32.2759887,24.5045069 33.0720696,24.5045069 L33.0720696,24.5045069 Z" id="oko_1" fill="#3B434F"></path>
        <path d="M17.0000025,29.8378404 C18.3931505,29.8378404 19.5225226,29.9177736 19.5225226,31.4954965 C19.5225226,33.1228463 18.3931505,33.1531525 17.0000025,33.1531525 C15.6068493,33.1531525 14.4774824,32.8567814 14.4774824,31.4954965 C14.4774824,29.9053449 15.6068493,29.8378404 17.0000025,29.8378404 L17.0000025,29.8378404 Z" id="Ellipse-3-copy" fill="#F5F3EF"></path>
        <path d="M33.7207226,29.8378404 C35.1138708,29.8378404 36.2432429,29.9177736 36.2432429,31.4954965 C36.2432429,33.1228463 35.1138708,33.1531525 33.7207226,33.1531525 C32.3275694,33.1531525 31.1982025,32.8567814 31.1982025,31.4954965 C31.1982025,29.9053449 32.3275694,29.8378404 33.7207226,29.8378404 L33.7207226,29.8378404 Z" id="Ellipse-3-copy-2" fill="#F5F3EF"></path>
        <path d="M28.8851351,21.8936095 L29.3026074,22.4238731 L29.5616253,22.7525196 C29.5616253,22.7525196 34.1478296,20.2200812 37.3310811,23.1418919 L37.6704654,23.3082642 C37.6704654,23.3082642 36.8862667,19.0723986 30.0215696,21.5500703 C29.6593846,21.6483142 29.2814873,21.7616983 28.8851351,21.8936095 L28.8851351,21.8936095 Z" id="R" fill="#3B434F"></path>
        <path d="M20.9459459,21.8965583 L20.5284736,22.4257186 L20.2694557,22.7536794 C20.2694557,22.7536794 15.6832515,20.2265095 12.5,23.1422424 L12.1606157,23.3082694 C12.1606157,23.3082694 12.9448144,19.0812084 19.8095115,21.5537302 C20.1716965,21.6517731 20.5495938,21.7649203 20.9459459,21.8965583 L20.9459459,21.8965583 Z" id="L" fill="#3B434F"></path>
        <path d="M8.99999983,22.1261257 C8.99999983,22.1261257 9.01900625,26.3284682 9.07207179,26.234235 C9.55492483,25.3768199 8.94088226,15.5588924 22.7657679,15.8558563 C30.4733225,16.021414 31.6306294,11.3513534 31.6306294,11.3513534 C31.6306294,11.3513534 33.6154784,12.1261184 36.6756748,15.2792802 C39.9563608,18.6596277 40.5675682,22.9189177 40.5675682,22.9189177 L43.2342323,13.261259 L33.3603627,3.02702416 L26.0090081,2.59459206 L19.5945946,3.60360541 L14.8378372,5.8378375 L9.57657584,12.5405389" id="Shape-26" fill="#3B434F"></path>
    </g>
</svg>