
<svg viewBox="12 5 50 70" version="1.1" xmlns="http://www.w3.org/2000/svg" xmlns:xlink="http://www.w3.org/1999/xlink">
    <!-- Generator: Sketch Beta 3.8 (29681) - http://www.bohemiancoding.com/sketch -->
    <desc>Created with Sketch Beta.</desc>
    <defs></defs>
    <g id="svg4155" stroke="none" stroke-width="1" fill="none" fill-rule="evenodd" transform="translate(12.000000, 5.000000)">
        <path d="M0.506756757,69.0878378 C0.506756757,69.0878378 -1.23342568,53.8325799 13.7567571,52.1306321 L20.1711706,52.1306321 L20.1711706,49.1756748 C20.1711706,49.1756748 24.683277,51.113737 29.2522534,49.3918909 L29.3963973,52.1306321 L36.8918909,52.1306321 C36.8918909,52.1306321 49.9448416,53.4337172 49.1554054,69.0878378 L0.506756757,69.0878378 L0.506756757,69.0878378 Z" id="body-bg-flat" fill="#FFFFFF"></path>
        <path d="M49.0307318,69.3558564 L49.0307318,69.3558564 L0.970531081,69.3558564 L0.970531081,69.3558564 L0.03845625,69.3558564 L0.271116723,65.3812253 C0.725390541,57.6207135 6.83984493,51.6982002 13.8369948,51.6982002 L19.1621625,51.6982002 L19.1621625,52.4909922 L14.2617767,52.4909922 C7.51796419,52.4909922 1.62488581,58.1917377 1.18705642,65.6616571 L1.0254473,68.4189204 L48.9037436,68.4189204 L48.8142066,65.6616571 C48.3763772,58.1917377 42.4832988,52.4909922 35.7394811,52.4909922 L29.1801814,52.4909922 L29.1801814,51.6982002 L36.1215231,51.6982002 C43.1186728,51.6982002 49.2331274,57.6207135 49.687401,65.3812253 L49.9200615,69.3558564 L49.0307318,69.3558564 L49.0307318,69.3558564 Z" id="Rounded-Rectangle-13-copy" fill="#3B434F"></path>
        <path d="M20.8918907,48.8422446 L20.8918907,53.2873618 C20.8918907,55.5940319 22.7634223,57.4639655 25.072072,57.4639655 C27.3807216,57.4639655 29.2522534,55.5940319 29.2522534,53.2873618 L29.2522534,48.9339519 C29.4948475,48.8601118 29.7351579,48.7799103 29.9729733,48.6932652 L29.9729733,53.3176164 C29.9729733,56.045424 27.7626346,58.2567576 25.0360385,58.2567576 C22.3094424,58.2567576 20.0990986,56.045424 20.0990986,53.3176164 L20.0990986,48.5563639 C20.3602198,48.6596133 20.624697,48.7545787 20.8918907,48.8422446 L20.8918907,48.8422446 Z" id="neck-copy-5" fill="#3B434F"></path>
        <path d="M20.0630652,57.3918936 C20.3217894,57.3918936 20.5315306,57.6016297 20.5315306,57.860359 L20.5315306,64.9234204 C20.5315306,65.1821497 20.3217894,65.391891 20.0630652,65.391891 C19.804336,65.391891 19.5945946,65.1821497 19.5945946,64.9234204 L19.5945946,57.860359 C19.5945946,57.6016297 19.804336,57.3918936 20.0630652,57.3918936 L20.0630652,57.3918936 Z" id="Rounded-Rectangle-14" fill="#3B434F"></path>
        <path d="M29.9009014,57.3198216 C30.1795289,57.3198216 30.4054054,57.5456929 30.4054054,57.8243255 L30.4054054,62.2207177 C30.4054054,62.4993505 30.1795289,62.725227 29.9009014,62.725227 C29.6222687,62.725227 29.3963973,62.4993505 29.3963973,62.2207177 L29.3963973,57.8243255 C29.3963973,57.5456929 29.6222687,57.3198216 29.9009014,57.3198216 L29.9009014,57.3198216 Z" id="Rounded-Rectangle-15" fill="#3B434F"></path>
        <path d="M20.0630652,64.887387 C20.2023789,64.887387 20.3153147,65.0003226 20.3153147,65.1396416 L20.3153147,66.9414417 C20.3153147,67.0807556 20.2023789,67.1936912 20.0630652,67.1936912 C19.9237463,67.1936912 19.8108106,67.0807556 19.8108106,66.9414417 L19.8108106,65.1396416 C19.8108106,65.0003226 19.9237463,64.887387 20.0630652,64.887387 L20.0630652,64.887387 Z" id="Rounded-Rectangle-16" fill="#3B434F"></path>
        <path d="M29.9369348,62.2207177 C30.0762537,62.2207177 30.1891894,62.3336586 30.1891894,62.4729723 L30.1891894,64.2747725 C30.1891894,64.4140914 30.0762537,64.527027 29.9369348,64.527027 C29.7976211,64.527027 29.6846853,64.4140914 29.6846853,64.2747725 L29.6846853,62.4729723 C29.6846853,62.3336586 29.7976211,62.2207177 29.9369348,62.2207177 L29.9369348,62.2207177 Z" id="Rounded-Rectangle-16-copy" fill="#3B434F"></path>
        <path d="M17.3590377,47.0686063 L12.7942318,48.116787 C12.7942318,48.116787 7.20419493,49.3830088 10.9232515,53.1504966 C14.6423133,56.9179845 24.2072079,57.5833346 24.2072079,57.5833346 C24.2072079,57.5833346 21.6782596,56.3854889 20.6036027,54.7004493 L20.2432426,48.6463959 L17.3590377,47.0686063 L17.3590377,47.0686063 Z" id="Shape-1-copy" fill="#F5F3EF"></path>
        <path d="M24.351352,57.9436946 C24.0681159,58.3021834 16.1036105,58.0556921 10.5855838,53.2590093 C6.59020912,49.7859233 12.6036051,47.7815319 12.6036051,47.7815319 L17.0000025,46.7725238 L20.8198186,48.7184679 L21.1081066,54.5563054 C22.7161253,57.0776502 24.8073216,57.3665721 24.351352,57.9436946 L24.351352,57.9436946 Z M20.3873867,54.8445934 L19.9549546,48.7184679 L17.6486505,47.4211718 L13.2522532,48.5022519 C13.2522532,48.5022519 7.92709561,49.5942348 11.3063039,52.7545052 C14.9531493,56.1650559 21.6995909,57.0803358 22.4054079,57.0067586 C23.1369534,56.9304904 21.9954052,57.3659432 20.3873867,54.8445934 L20.3873867,54.8445934 Z" id="Shape-1-copy-2" fill="#3B434F"></path>
        <path d="M32.7802812,47.2384118 L37.3477936,48.2897321 C37.3477936,48.2897321 42.9411399,49.5597427 39.2198821,53.3385149 C35.4986139,57.1172868 25.9280488,57.7846269 25.9280488,57.7846269 C25.9280488,57.7846269 28.4585025,56.5831983 29.5337883,54.8931122 L29.8943649,48.8209285 L32.7802812,47.2384118 L32.7802812,47.2384118 Z" id="Shape-1-copy-4" fill="#F5F3EF"></path>
        <path d="M25.7838223,58.0739924 C26.0672235,58.4335584 34.0364508,58.1863301 39.5577456,53.3752802 C43.5554917,49.8917916 37.5385336,47.8813997 37.5385336,47.8813997 L33.1395279,46.8693708 L29.3174486,48.82114 L29.0289853,54.6764632 C27.4200182,57.20536 25.3275846,57.4951429 25.7838223,58.0739924 L25.7838223,58.0739924 Z M29.7501333,54.965612 L30.182823,48.82114 L32.4904983,47.5199622 L36.889499,48.6042796 C36.889499,48.6042796 42.2178166,49.6995307 38.8365978,52.8692657 C35.1875924,56.2900338 28.4371505,57.2080508 27.7309211,57.134252 C26.9989375,57.0577569 28.141166,57.494509 29.7501333,54.965612 L29.7501333,54.965612 Z" id="Shape-1-copy-6" fill="#3B434F"></path>
        <path d="M25.3740981,3.6261223 C34.3399564,3.6261223 41.4167147,12.0047079 41.1866111,22.0717818 L40.9420478,32.7713014 C40.7252698,42.2554841 33.7576736,49.7522508 25.3740981,49.7522508 C16.9905225,49.7522508 10.0229264,42.2554841 9.80614848,32.7713014 L9.56158514,22.0717818 C9.33148666,12.0047079 16.4082399,3.6261223 25.3740981,3.6261223 L25.3740981,3.6261223 Z" id="2-copy-5" fill="#FFFFFF"></path>
        <path d="M41.9069909,21.7400576 L41.6507309,32.8742414 C41.4235863,42.7437189 34.1226836,50.5450429 25.338075,50.5450429 C16.5534611,50.5450429 9.25256368,42.7437189 9.02541385,32.8742414 L8.76914882,21.7400576 C8.52804443,11.2640071 15.9433262,2.54504223 25.338075,2.54504223 C34.7328238,2.54504223 42.1481003,11.2640071 41.9069909,21.7400576 L41.9069909,21.7400576 Z M25.3020777,3.69819443 C16.4587897,3.69819443 9.47878041,12.0113218 9.70572905,21.9997458 L9.94695203,32.615677 C10.1607657,42.025762 17.033113,49.4639628 25.3020777,49.4639628 C33.5710422,49.4639628 40.4433843,42.025762 40.6571981,32.615677 L40.8984159,21.9997458 C41.1253748,12.0113218 34.1453655,3.69819443 25.3020777,3.69819443 L25.3020777,3.69819443 Z" id="2-line" fill="#3B434F"></path>
        <path d="M40.4602154,39.1765027 C40.2470047,40.1848613 37.4455272,49.3281855 37.9523973,45.3702824 C38.4592623,41.4123792 33.0842715,48.9666706 33.0842715,48.9666706 C32.091053,49.9872105 28.068625,52.3632617 28.068625,52.3632617 L28.068625,51.3642647 L25.1182453,52.5630642 L23.790576,51.3642647 L23.6430554,52.5630642 C23.2479868,51.9777144 15.234478,46.5690819 15.234478,46.5690819 C15.234478,46.5690819 16.6100941,49.0172463 15.5295191,47.7678764 C15.4909392,47.7232701 15.4513488,47.6754833 15.4108821,47.6247993 C14.3178115,46.2558282 12.5791343,42.772891 12.5791343,42.772891 L12.2840985,45.170485 C9.67693328,40.1024432 9.77628041,33.7819177 9.77628041,33.7819177 L9.33783767,20.5823743 L10.5179916,20.5823743 L10.9564292,29.9857269 L12.8741753,33.1825154 C14.1142561,34.9953831 17.4472603,34.1815123 17.4472603,34.1815123 C27.0793296,40.8648052 33.2317919,33.7819177 33.2317919,33.7819177 C33.2317919,33.7819177 37.4044985,34.7078633 38.6899897,34.1815123 C39.9754757,33.6551666 40.1610606,20.5637905 40.1610606,20.5637905 L41.1936941,20.5637905 C41.1936941,20.5637905 40.673426,38.168139 40.4602154,39.1765027 L40.4602154,39.1765027 Z M33.5427723,40.1902689 C33.3310514,37.6494537 31.784934,37.8649015 31.784934,37.8649015 C29.0363002,38.6663591 26.8786868,39.1115961 25.193034,39.3378799 L25.193034,39.3212704 C23.5191912,39.0968323 21.3766872,38.6552502 18.6473125,37.86036 C18.6473125,37.86036 17.1120206,37.6466752 16.9017843,40.1666693 C16.9017843,40.1666693 16.2852777,42.114866 18.3563902,43.1936934 L20.9746799,44.6351387 C20.9746799,44.6351387 22.7639584,45.1970745 22.7202081,43.0495495 C22.7202081,43.0495495 22.5380924,42.7452139 23.5929696,42.4729733 L25.193034,42.4729733 L25.193034,42.5203993 L26.8043878,42.5203993 C27.8667037,42.7948926 27.6833096,43.1124662 27.6833096,43.1124662 C27.6392498,45.2777399 29.4411427,44.7111542 29.4411427,44.7111542 L32.0779027,43.2470785 C34.1636194,42.1593331 33.5427723,40.1902689 33.5427723,40.1902689 L33.5427723,40.1902689 Z" id="Shape-1" fill="#3B434F"></path>
        <path d="M33.1216194,39.2442446 C31.8116162,40.381715 28.8527051,41.4639601 25.409915,41.4639601 C21.9671198,41.4639601 19.0082086,40.381715 17.6982003,39.2442446 C17.6982003,39.2442446 17.5641704,38.8754458 17.7608181,38.6787981 C17.9611051,38.4785111 18.2747764,38.5221017 18.2747764,38.5221017 C19.5834083,39.6603456 21.9658052,40.5991014 25.409915,40.5991014 C28.8540196,40.5991014 31.2364166,39.6603456 32.5450485,38.5221017 C32.5450485,38.5221017 32.8651532,38.4031914 33.0206535,38.5586919 C33.3201537,38.8581921 33.1216194,39.2442446 33.1216194,39.2442446 L33.1216194,39.2442446 Z" id="usta" fill="#3B434F"></path>
        <path d="M23.0315338,43.1936934 L27.6441471,43.1936934 L27.6441471,43.9144135 L23.0315338,43.9144135 L23.0315338,43.1936934 L23.0315338,43.1936934 Z" id="-" fill="#3B434F"></path>
        <path d="M8.75121959,23.3637063 C8.7492299,23.3638196 8.57425895,23.2240883 8.24385456,23.1200605 C8.07871943,23.06816 7.87348361,23.0254662 7.63955507,23.0149399 C7.58113345,23.0123108 7.52100557,23.011687 7.45948074,23.0134345 C7.39795574,23.0151821 7.33502872,23.0192958 7.27106554,23.0261262 C7.14315473,23.0397921 7.01104764,23.0643505 6.87811047,23.1025902 C6.34582111,23.2555596 5.80281959,23.627477 5.48391605,24.3951179 C5.32383277,24.778959 5.21822753,25.2617758 5.19030811,25.8658642 C5.18332297,26.01689 5.18118885,26.1754938 5.18425084,26.342026 C5.18731807,26.5085581 5.19558682,26.6830186 5.20939696,26.8657581 C5.23700203,27.2312216 5.28685084,27.6298059 5.36112399,28.064135 C5.35950017,28.0637071 5.29185118,29.3766331 5.76122382,30.8852736 C6.20248125,32.3602676 7.26208041,34.1721664 9.21846858,34.6899341 C8.99346318,30.9434169 8.98647314,27.1266731 8.75121959,23.3637063 L8.75121959,23.3637063 L8.75121959,23.3637063 Z" id="Shape-11-copy" fill="#FFFFFF"></path>
        <path d="M8.9743022,23.5147424 C8.9743022,23.5147424 5.56612787,22.4587157 5.68606926,25.9625152 C5.68606926,25.9625152 6.19348581,31.0431351 6.41383091,31.5113789 C6.41383091,31.5113789 7.75231537,34.469491 9.96129324,34.6005878 C12.120247,34.7287152 9.96129324,34.6005878 9.96129324,34.6005878 L9.98810439,35.5540559 C9.98810439,35.5540559 6.10556216,35.0562534 5.35567517,30.5819949 L4.76380422,26.5173475 C4.76380422,26.5173475 4.30424155,21.1381861 8.76202449,22.5058787 C13.10481,23.8382907 8.76202449,22.5058787 8.76202449,22.5058787 L8.9743022,23.5147424" id="Shape-3" fill="#3B434F"></path>
        <path d="M7.84937889,30.573448 C7.84937889,30.573448 7.65864392,30.7175921 7.4947924,30.7175921 C7.33094088,30.7175921 7.14253091,30.573448 7.14253091,30.573448 L6.79080557,27.0290581 C6.79080557,27.0290581 7.27609679,25.2835402 9.33536841,26.2059959 L9.38404696,27.219463 C9.38404696,27.219463 7.57734966,26.5787176 7.61470794,27.3765924 C7.65066926,28.144589 7.84937889,30.573448 7.84937889,30.573448 L7.84937889,30.573448 Z" id="Shape-4" fill="#3B434F"></path>
        <path d="M41.8603743,23.3719801 C41.8623743,23.3720934 42.0381133,23.23246 42.3699611,23.1284992 C42.5358231,23.0766348 42.7419559,23.0339721 42.9769103,23.0234507 C43.0355845,23.0208269 43.0959753,23.020203 43.1577735,23.0219507 C43.2195664,23.0236929 43.2827666,23.0278066 43.3470133,23.0346319 C43.4754809,23.0482875 43.6081706,23.0728304 43.7416902,23.1110444 C44.2763096,23.2639106 44.8216877,23.6355755 45.1419882,24.4026958 C45.3027725,24.7862738 45.4088417,25.2687608 45.4368797,25.8724419 C45.4438958,26.0233647 45.4460402,26.1818603 45.4429677,26.3482791 C45.4398851,26.5146976 45.4315804,26.6890397 45.4177083,26.8716554 C45.3899848,27.2368715 45.3399142,27.6351877 45.2653164,28.0692177 C45.2669505,28.0687899 45.3348932,29.3808292 44.8634637,30.8884441 C44.4202784,32.3624378 43.3560346,34.1731046 41.3910789,34.6905218 C41.6170687,30.9465459 41.6240899,27.1323951 41.8603743,23.3719801 L41.8603743,23.3719801 L41.8603743,23.3719801 Z" id="Shape-11-copy_1" fill="#FFFFFF"></path>
        <path d="M41.6355752,23.5229182 C41.6355752,23.5229182 45.0586782,22.4676081 44.9382111,25.9690258 C44.9382111,25.9690258 44.4285728,31.0461973 44.2072584,31.5141215 C44.2072584,31.5141215 42.8629128,34.4702282 40.6442642,34.6012373 C38.4758512,34.7292772 40.6442642,34.6012373 40.6442642,34.6012373 L40.6173345,35.5540559 C40.6173345,35.5540559 44.5168779,35.0565936 45.2700486,30.5853715 L45.8645125,26.5234818 C45.8645125,26.5234818 46.3260909,21.1479703 41.8487806,22.514735 C37.4869785,23.8462448 41.8487806,22.514735 41.8487806,22.514735 L41.6355752,23.5229182" id="Shape-3_1" fill="#3B434F"></path>
        <path d="M42.7654267,30.5768297 C42.7654267,30.5768297 42.9569966,30.7208757 43.1215647,30.7208757 C43.2861328,30.7208757 43.4753676,30.5768297 43.4753676,30.5768297 L43.8286343,27.0348471 C43.8286343,27.0348471 43.3412191,25.290515 41.2729264,26.2123417 L41.2240363,27.2251231 C41.2240363,27.2251231 43.0386466,26.5848108 43.0011233,27.3821444 C42.9650074,28.1496203 42.7654267,30.5768297 42.7654267,30.5768297 L42.7654267,30.5768297 Z" id="Shape-4_1" fill="#3B434F"></path>
        <path d="M26.6711725,30.2927946 L26.923422,30.2927946 C27.4449529,31.0010652 27.6571326,32.089486 27.9324299,33.0315306 C28.0177451,33.3234735 27.9349765,33.8341172 27.8603579,34.0405387 C27.5870865,34.7965395 26.7290012,34.7829716 26.0225245,35.1216188 C25.8327897,35.2125735 25.6916561,35.3695637 25.4459485,35.4099118 C25.285762,35.2688093 25.0923517,35.2410961 25.0135113,35.0135133 C24.8188637,34.7454845 25.0697316,34.5781069 25.2657659,34.4729708 C25.6215481,34.2821637 26.7198459,34.0941042 26.8513498,33.7522507 C27.0140571,33.5671605 26.9058691,33.0106684 26.8513498,32.8153147 C26.7117216,32.31495 26.6447015,31.8972201 26.4549564,31.4459466 C26.3289169,31.146199 26.1076282,30.8301514 26.2387405,30.472972 C26.3473872,30.4263193 26.5822024,30.3732743 26.6711725,30.2927946 L26.6711725,30.2927946 Z" id="new_vector_shape_done" fill="#3B434F"></path>
        <path d="M16.6891872,24.7432451 L17.6982003,24.7432451 C18.2554606,24.7432451 18.7072084,25.1949929 18.7072084,25.7522532 C18.7072084,26.3095133 18.2554606,26.7612611 17.6982003,26.7612611 L16.6891872,26.7612611 C16.1319269,26.7612611 15.6801791,26.3095133 15.6801791,25.7522532 C15.6801791,25.1949929 16.1319269,24.7432451 16.6891872,24.7432451 L16.6891872,24.7432451 Z" id="Rounded-Rectangle-8" fill="#3B434F"></path>
        <path d="M33.1216194,24.7432451 L34.1306326,24.7432451 C34.6878927,24.7432451 35.1396405,25.1949929 35.1396405,25.7522532 C35.1396405,26.3095133 34.6878927,26.7612611 34.1306326,26.7612611 L33.1216194,26.7612611 C32.5643591,26.7612611 32.1126113,26.3095133 32.1126113,25.7522532 C32.1126113,25.1949929 32.5643591,24.7432451 33.1216194,24.7432451 L33.1216194,24.7432451 Z" id="Rounded-Rectangle-8-copy" fill="#3B434F"></path>
        <path d="M34.0585605,29.5000025 C35.0536655,29.5000025 35.8603606,30.3066975 35.8603606,31.3018025 C35.8603606,32.2969076 35.0536655,33.1036027 34.0585605,33.1036027 C33.0634503,33.1036027 32.2567605,32.2969076 32.2567605,31.3018025 C32.2567605,30.3066975 33.0634503,29.5000025 34.0585605,29.5000025 L34.0585605,29.5000025 Z" id="Ellipse-3" fill="#EDF1F1"></path>
        <path d="M16.6171203,29.5000025 C17.6122253,29.5000025 18.4189204,30.3066975 18.4189204,31.3018025 C18.4189204,32.2969076 17.6122253,33.1036027 16.6171203,33.1036027 C15.6220101,33.1036027 14.8153203,32.2969076 14.8153203,31.3018025 C14.8153203,30.3066975 15.6220101,29.5000025 16.6171203,29.5000025 L16.6171203,29.5000025 Z" id="Ellipse-3-copy" fill="#EDF1F1"></path>
        <path d="M41.0371471,22.6147986 C40.9396507,23.4475522 40.8539953,24.4665971 40.6739313,25.3776807 C40.1354867,28.1020912 37.7944895,30.6262404 33.797228,30.9138427 C29.7999718,31.2014451 26.397937,29.1891201 26.1985728,26.419186 C26.1647715,25.94954 26.0743476,25.4225086 26.0049563,24.9101176 C25.4392726,24.596503 24.8562323,24.5957865 24.2558402,24.9079833 C24.185722,25.4319731 24.0918907,25.9728664 24.0572851,26.4537451 C23.8572971,29.2328603 20.444535,31.2518557 16.4346694,30.9632997 C12.4248041,30.6747436 10.0764248,28.1422331 9.53627922,25.4087912 C9.35564814,24.4946867 9.26972466,23.4722654 9.17191892,22.6367486 L8.58267703,22.5943436 L8.66544561,21.444166 L8.80921858,21.4545122 L12.4559299,21.7169375 L15.5341535,21.9384529 L18.6180992,22.1603755 L23.4215917,22.5060437 C23.7528723,22.5479436 23.9731557,22.6900204 24.115016,22.9021176 C24.8048628,23.2040921 25.4748319,23.2052983 26.1249181,22.9056848 C26.2654949,22.6799424 26.4887422,22.5279628 26.832266,22.4845216 L31.6206596,22.1399978 L34.6949139,21.9188071 L37.7634615,21.6980238 L41.3987083,21.4364645 L41.5420274,21.4261544 L41.6245383,22.5725329 L41.0371471,22.6147986 L41.0371471,22.6147986 Z M22.1317343,23.8576476 L12.7176182,23.1801936 C11.4863267,23.0740419 11.0498892,24.4576892 10.9740025,25.512252 C10.814012,27.73554 13.291261,29.7254769 16.5070921,29.9568949 C19.7229231,30.1883079 22.4595715,28.5735775 22.6195618,26.3502843 C22.6954486,25.2957267 23.0399003,24.6444444 22.1317343,23.8576476 L22.1317343,23.8576476 Z M39.2407289,25.4808014 C39.1650792,24.4297233 38.730013,23.0506432 37.5025929,23.1564444 L28.1180716,23.8316613 C27.2127615,24.6158652 27.5561307,25.2649875 27.6317752,26.3160654 C27.7912655,28.5320127 30.5193101,30.1414128 33.7250323,29.9107578 C36.9307544,29.6801078 39.4002193,27.6967436 39.2407289,25.4808014 L39.2407289,25.4808014 Z" id="glasses" fill="#3B444F"></path>
        <path d="M9.63124459,28.0585573 C9.63124459,28.0585573 11.6362495,19.2754642 13.3809785,16.872973 C15.1257076,14.4704819 16.6355184,13.8958493 17.4191552,13.8223596 C18.2027921,13.7488752 24.3738535,15.573084 32.85075,13.483398 C32.85075,13.483398 36.1931723,13.3500022 37.6100282,16.7034975 C37.6100282,16.7034975 40.5972507,22.0476975 41.0713196,27.3806443 L41.6481998,27.3806443 C41.6481998,27.3806443 42.8706968,18.0321823 42.3693115,12.4665285 C41.8679108,6.90088007 34.5813958,4.16208209 34.5813958,4.16208209 L36.1678201,2.97572669 C36.1678201,2.97572669 32.4640017,1.83075574 30.9758831,2.46729983 L32.1296434,0.0945942568 C32.1296434,0.0945942568 24.6549657,0.109492061 20.4477826,3.48416402 L20.5920039,1.78937652 C20.5920039,1.78937652 5.76264155,4.06344139 8.91014307,27.7196008 L9.63124459,28.0585573 L9.63124459,28.0585573 Z" id="Shape-7" fill="#3B434F"></path>
    </g>
</svg>