
<svg viewBox="12 3 50 72" version="1.1" xmlns="http://www.w3.org/2000/svg" xmlns:xlink="http://www.w3.org/1999/xlink">
    <!-- Generator: Sketch Beta 3.8 (29671) - http://www.bohemiancoding.com/sketch -->
    <defs></defs>
    <g id="svg7956" stroke="none" stroke-width="1" fill="none" fill-rule="evenodd" transform="translate(12.000000, 3.000000)">
        <path d="M0.506756757,71.4527027 C0.506756757,71.4527027 -1.23342568,56.1974448 13.7567571,54.495497 L20.1711706,54.495497 L20.1711706,51.5405397 C20.1711706,51.5405397 24.683277,53.4786019 29.2522534,51.7567557 L29.3963973,54.495497 L36.8918909,54.495497 C36.8918909,54.495497 49.9448416,55.7985821 49.1554054,71.4527027 L0.506756757,71.4527027 L0.506756757,71.4527027 Z" id="body-bg-flat" fill="#FFFFFF"></path>
        <path d="M49.0307318,71.7207213 L49.0307318,71.7207213 L0.970531081,71.7207213 L0.970531081,71.7207213 L0.03845625,71.7207213 L0.271116723,67.7460902 C0.725390541,59.9855784 6.83984493,54.063065 13.8369948,54.063065 L20.1711706,54.063065 L20.1711706,54.8558571 L14.2617767,54.8558571 C7.51796419,54.8558571 1.62488581,60.5566025 1.18705642,68.026522 L1.0254473,70.7837853 L48.9037436,70.7837853 L48.8142066,68.026522 C48.3763772,60.5566025 42.4832988,54.8558571 35.7394811,54.8558571 L29.7567574,54.8558571 L29.7567574,54.063065 L36.1215231,54.063065 C43.1186728,54.063065 49.2331274,59.9855784 49.687401,67.7460902 L49.9200615,71.7207213 L49.0307318,71.7207213 L49.0307318,71.7207213 Z" id="Rounded-Rectangle-13-copy-3" fill="#3B434F"></path>
        <path d="M20.6756747,51.2071095 L20.6756747,55.6522267 C20.6756747,57.9588968 22.5472064,59.8288304 24.8558559,59.8288304 C27.1645056,59.8288304 29.0360373,57.9588968 29.0360373,55.6522267 L29.0360373,51.2988167 C29.2786314,51.2249767 29.5189419,51.1447752 29.7567574,51.0581301 L29.7567574,55.6824813 C29.7567574,58.4102889 27.5464188,60.6216225 24.8198226,60.6216225 C22.0932265,60.6216225 19.8828826,58.4102889 19.8828826,55.6824813 L19.8828826,50.9212287 C20.1440037,51.0244782 20.4084809,51.1194436 20.6756747,51.2071095 L20.6756747,51.2071095 Z" id="neck-copy-7" fill="#3B434F"></path>
        <path d="M37.7905304,63.5961738 L35.749085,67.8540978 C35.6458355,68.0694529 35.3875547,68.1603302 35.1722047,68.0570809 C34.9568497,67.9538314 34.8659721,67.6955507 34.9692216,67.4801956 L36.9408478,63.3679054 L35.4002772,60.6995608 C35.2808669,60.4927321 35.3517275,60.2282601 35.5585563,60.1088498 C35.7653902,59.9894343 36.0298569,60.0603 36.1492725,60.2671289 L37.8069285,63.1382762 C37.8923519,63.2862297 37.8799645,63.4634275 37.7905304,63.5961738 L37.7905304,63.5961738 Z" id="Rounded-Rectangle-2" fill="#3B434F"></path>
        <path d="M11.8855399,63.6003289 L13.9379399,67.8713618 C14.0417409,68.0873819 14.3014083,68.1785377 14.517913,68.0749688 C14.7344228,67.9713997 14.82579,67.712325 14.7219838,67.4963101 L12.7397846,63.3713593 L14.2886188,60.6947976 C14.4086682,60.4873348 14.3374262,60.2220483 14.1294892,60.1022669 C13.921547,59.9824853 13.6556625,60.0535676 13.5356078,60.2610356 L11.8690595,63.1410238 C11.7831772,63.2894309 11.7956265,63.4671752 11.8855399,63.6003289 L11.8855399,63.6003289 Z" id="Rounded-Rectangle-2-copy-3" fill="#3B434F"></path>
        <path d="M19.8828826,53.9189209 L20.6756747,53.9189209 L20.6756747,71.4324333 L19.8828826,71.4324333 L19.8828826,53.9189209 L19.8828826,53.9189209 Z" id="Rectangle-24" fill="#3B434F"></path>
        <path d="M29.0360373,54.063065 L29.8288294,54.063065 L29.8288294,71.5765772 L29.0360373,71.5765772 L29.0360373,54.063065 L29.0360373,54.063065 Z" id="Rectangle-24-copy" fill="#3B434F"></path>
        <path d="M25.0362603,5.99098716 C34.0021186,5.99098716 41.0788769,14.3695728 40.8487733,24.4366466 L40.60421,35.1361662 C40.3874319,44.620349 33.4198358,52.1171157 25.0362603,52.1171157 C16.6526846,52.1171157 9.68508851,44.620349 9.46831064,35.1361662 L9.2237473,24.4366466 C8.99364882,14.3695728 16.070402,5.99098716 25.0362603,5.99098716 L25.0362603,5.99098716 Z" id="2-copy-5" fill="#FFFFFF"></path>
        <path d="M41.569153,24.1049225 L41.3128931,35.2391063 C41.0857485,45.1085838 33.7848458,52.9099078 25.0002372,52.9099078 C16.2156233,52.9099078 8.91472584,45.1085838 8.68757601,35.2391063 L8.43131098,24.1049225 C8.19020659,13.628872 15.6054883,4.90990709 25.0002372,4.90990709 C34.394986,4.90990709 41.8102625,13.628872 41.569153,24.1049225 L41.569153,24.1049225 Z M24.9642399,6.06305929 C16.1209519,6.06305929 9.14094257,14.3761867 9.36789122,24.3646106 L9.60911419,34.9805419 C9.82292787,44.3906269 16.6952752,51.8288277 24.9642399,51.8288277 C33.2332044,51.8288277 40.1055465,44.3906269 40.3193603,34.9805419 L40.560578,24.3646106 C40.787537,14.3761867 33.8075277,6.06305929 24.9642399,6.06305929 L24.9642399,6.06305929 Z" id="2-line" fill="#3B434F"></path>
        <path d="M41.1193693,25.9549527 L40.3986493,37.7747767 C40.3986493,37.7747767 37.1975976,51.4185159 24.8310811,53.0340144 L24.8310811,53.0540519 C24.8067753,53.0510824 24.7832427,53.0470976 24.7590091,53.0440356 C24.7347755,53.0470976 24.7112429,53.0510824 24.686937,53.0540519 L24.686937,53.0340144 C12.3204257,51.4185159 9.11936892,37.7747767 9.11936892,37.7747767 L8.39864882,25.9549527 C11.6077319,40.1993262 14.3085583,41.0900941 14.3085583,41.0900941 C13.7620101,36.7706453 18.2004517,37.1982007 18.2004517,37.1982007 C20.905541,37.6551397 23.0589789,37.8759486 24.7590091,37.9585008 C26.4590444,37.8759486 28.612477,37.6551397 31.3175666,37.1982007 C31.3175666,37.1982007 35.7560029,36.7706453 35.2094598,41.0900941 C35.2094598,41.0900941 37.9102861,40.1993262 41.1193693,25.9549527 L41.1193693,25.9549527 Z M33.1052522,42.5551338 C32.895449,40.0143186 31.3633223,40.2297664 31.3633223,40.2297664 C28.6395666,41.031224 26.5014752,41.476461 24.8310811,41.7027448 L24.8310811,41.6861353 C23.1723836,41.4616971 21.0492676,41.020115 18.3445956,40.2252248 C18.3445956,40.2252248 16.8231965,40.01154 16.6148623,42.5315341 C16.6148623,42.5315341 16.0039387,45.0563069 18.0563076,46.1351343 L20.6508997,48.8738757 C20.6508997,48.8738757 22.4239865,49.4358115 22.3806329,47.2882863 C22.3806329,47.2882863 22.2001669,45.6866547 23.245497,45.4144144 L24.8310811,45.4144144 L24.8310811,45.4618402 L26.4278515,45.4618402 C27.4805532,45.7363334 27.2988191,47.351203 27.2988191,47.351203 C27.2551562,49.5164769 29.0407439,48.9498912 29.0407439,48.9498912 L31.6536414,46.1885194 C33.7204856,45.100774 33.1052522,42.5551338 33.1052522,42.5551338 L33.1052522,42.5551338 Z" id="1-copy-4" fill="#3B434F" opacity="0.058824"></path>
        <path d="M23.270272,46.4234275 L26.729728,46.4234275 C26.8889505,46.4234275 27.018016,46.5524931 27.018016,46.7117103 C27.018016,46.8709328 26.8889505,46.9999983 26.729728,46.9999983 L23.270272,46.9999983 C23.1110495,46.9999983 22.981984,46.8709328 22.981984,46.7117103 C22.981984,46.5524931 23.1110495,46.4234275 23.270272,46.4234275 L23.270272,46.4234275 Z" id="Rounded-Rectangle-3" fill="#3B434F"></path>
        <path d="M20.2429333,42.9740649 L20.6443684,42.4121394 C21.9349422,43.1503399 23.4682083,43.5783025 25.1131625,43.5783025 C26.7764427,43.5783025 28.3254262,43.140597 29.6248978,42.387189 L30.0452052,42.9676056 C28.6315764,43.7859561 26.947135,44.2612674 25.1385818,44.2612674 C23.3347404,44.2612674 21.6542939,43.788513 20.2429333,42.9740649 L20.2429333,42.9740649 Z" id="2" fill="#3B434F"></path>
        <path d="M8.41338176,25.7285711 C8.41139206,25.7286845 8.23642111,25.5889532 7.90601672,25.4849253 C7.74088159,25.4330248 7.53564578,25.3903311 7.30171723,25.3798047 C7.24329561,25.3771757 7.18316774,25.3765519 7.12164291,25.3782993 C7.06011791,25.380047 6.99719088,25.3841606 6.9332277,25.390991 C6.80531689,25.4046569 6.6732098,25.4292154 6.54027264,25.4674551 C6.00798328,25.6204245 5.46498176,25.9923419 5.14607821,26.7599828 C4.98599493,27.1438238 4.8803897,27.6266407 4.85247027,28.2307291 C4.84548514,28.3817549 4.84335101,28.5403586 4.84641301,28.7068909 C4.84948024,28.873423 4.85774899,29.0478834 4.87155912,29.230623 C4.89916419,29.5960865 4.94901301,29.9946708 5.02328615,30.4289998 C5.02166233,30.428572 4.95401334,31.741498 5.42338598,33.2501385 C5.86464341,34.7251324 6.92424257,36.5370312 8.88063074,37.054799 C8.65562534,33.3082818 8.6486353,29.491538 8.41338176,25.7285711 L8.41338176,25.7285711 L8.41338176,25.7285711 Z" id="Shape-11-copy" fill="#F7FBFB"></path>
        <path d="M8.63646436,25.8796073 C8.63646436,25.8796073 5.22829003,24.8235806 5.34823142,28.3273801 C5.34823142,28.3273801 5.85564797,33.408 6.07599307,33.8762438 C6.07599307,33.8762438 7.41447753,36.8343559 9.62345541,36.9654527 C11.7824091,37.0935801 9.62345541,36.9654527 9.62345541,36.9654527 L9.65026655,37.9189208 C9.65026655,37.9189208 5.76772432,37.4211182 5.01783733,32.9468598 L4.42596639,28.8822123 C4.42596639,28.8822123 3.96640372,23.503051 8.42418666,24.8707436 C12.7669721,26.2031556 8.42418666,24.8707436 8.42418666,24.8707436 L8.63646436,25.8796073" id="Shape-3" fill="#3B434F"></path>
        <path d="M7.51154105,32.9383128 C7.51154105,32.9383128 7.32080608,33.0824569 7.15695456,33.0824569 C6.99310304,33.0824569 6.80469307,32.9383128 6.80469307,32.9383128 L6.45296774,29.393923 C6.45296774,29.393923 6.93825895,27.6484051 8.99753057,28.5708608 L9.04620912,29.5843279 C9.04620912,29.5843279 7.23951182,28.9435824 7.2768701,29.7414573 C7.31283142,30.5094539 7.51154105,32.9383128 7.51154105,32.9383128 L7.51154105,32.9383128 Z" id="Shape-4" fill="#3B434F"></path>
        <path d="M41.5225365,25.7368449 C41.5245365,25.7369583 41.7002755,25.5973248 42.0321233,25.493364 C42.1979853,25.4414997 42.4041181,25.398837 42.6390725,25.3883155 C42.6977466,25.3856917 42.7581375,25.3850679 42.8199356,25.3868155 C42.8817285,25.3885578 42.9449287,25.3926715 43.0091755,25.3994968 C43.1376431,25.4131524 43.2703328,25.4376953 43.4038524,25.4759093 C43.9384718,25.6287755 44.4838498,26.0004404 44.8041503,26.7675606 C44.9649346,27.1511387 45.0710039,27.6336257 45.0990419,28.2373068 C45.1060579,28.3882296 45.1082024,28.5467252 45.1051299,28.7131439 C45.1020473,28.8795625 45.0937426,29.0539046 45.0798704,29.2365203 C45.052147,29.6017363 45.0020764,30.0000525 44.9274785,30.4340826 C44.9291127,30.4336547 44.9970554,31.7456941 44.5256258,33.253309 C44.0824405,34.7273027 43.0181968,36.5379694 41.053241,37.0553867 C41.2792309,33.3114108 41.286252,29.49726 41.5225365,25.7368449 L41.5225365,25.7368449 L41.5225365,25.7368449 Z" id="Shape-11-copy_1" fill="#F7FBFB"></path>
        <path d="M41.2977373,25.8877831 C41.2977373,25.8877831 44.7208404,24.832473 44.6003733,28.3338907 C44.6003733,28.3338907 44.090735,33.4110622 43.8694206,33.8789863 C43.8694206,33.8789863 42.525075,36.8350931 40.3064264,36.9661022 C38.1380133,37.0941421 40.3064264,36.9661022 40.3064264,36.9661022 L40.2794966,37.9189208 C40.2794966,37.9189208 44.17904,37.4214584 44.9322108,32.9502363 L45.5266747,28.8883466 C45.5266747,28.8883466 45.988253,23.5128351 41.5109427,24.8795998 C37.1491407,26.2111096 41.5109427,24.8795998 41.5109427,24.8795998 L41.2977373,25.8877831" id="Shape-3_1" fill="#3B434F"></path>
        <path d="M42.4275889,32.9416946 C42.4275889,32.9416946 42.6191588,33.0857405 42.7837269,33.0857405 C42.9482949,33.0857405 43.1375297,32.9416946 43.1375297,32.9416946 L43.4907965,29.399712 C43.4907965,29.399712 43.0033813,27.6553799 40.9350885,28.5772066 L40.8861985,29.589988 C40.8861985,29.589988 42.7008088,28.9496757 42.6632855,29.7470093 C42.6271696,30.5144851 42.4275889,32.9416946 42.4275889,32.9416946 L42.4275889,32.9416946 Z" id="Shape-4_1" fill="#3B434F"></path>
        <path d="M26.3333346,32.6576595 L26.5855841,32.6576595 C27.107115,33.3659301 27.3192948,34.4543508 27.5945921,35.3963954 C27.6799073,35.6883383 27.5971387,36.1989821 27.5225201,36.4054035 C27.2492486,37.1614044 26.3911633,37.1478365 25.6846867,37.4864836 C25.4949519,37.5774383 25.3538182,37.7344285 25.1081106,37.7747767 C24.9479242,37.6336742 24.7545139,37.605961 24.6756735,37.3783782 C24.4810258,37.1103493 24.7318937,36.9429718 24.927928,36.8378356 C25.2837103,36.6470285 26.3820081,36.4589691 26.513512,36.1171155 C26.6762193,35.9320253 26.5680312,35.3755333 26.513512,35.1801796 C26.3738838,34.6798149 26.3068637,34.262085 26.1171186,33.8108115 C25.9910791,33.5110639 25.7697904,33.1950162 25.9009027,32.8378368 C26.0095493,32.7911841 26.2443645,32.7381392 26.3333346,32.6576595 L26.3333346,32.6576595 Z" id="new_vector_shape_done" fill="#3B434F"></path>
        <path d="M17.0720745,26.531534 C17.8681605,26.531534 18.5135145,27.176888 18.5135145,27.972974 C18.5135145,28.7690601 17.8681605,29.414414 17.0720745,29.414414 C16.2759883,29.414414 15.6306292,28.7690601 15.6306292,27.972974 C15.6306292,27.176888 16.2759883,26.531534 17.0720745,26.531534 L17.0720745,26.531534 Z" id="eye" fill="#3B434F"></path>
        <path d="M33.0720696,26.531534 C33.8681556,26.531534 34.5135096,27.176888 34.5135096,27.972974 C34.5135096,28.7690601 33.8681556,29.414414 33.0720696,29.414414 C32.2759887,29.414414 31.6306294,28.7690601 31.6306294,27.972974 C31.6306294,27.176888 32.2759887,26.531534 33.0720696,26.531534 L33.0720696,26.531534 Z" id="eye_1" fill="#3B434F"></path>
        <path d="M33.7207226,31.8648674 C34.7158277,31.8648674 35.5225228,32.6715623 35.5225228,33.6666674 C35.5225228,34.6617725 34.7158277,35.4684676 33.7207226,35.4684676 C32.7256125,35.4684676 31.9189226,34.6617725 31.9189226,33.6666674 C31.9189226,32.6715623 32.7256125,31.8648674 33.7207226,31.8648674 L33.7207226,31.8648674 Z" id="Ellipse-3" fill="#EDF1F1"></path>
        <path d="M16.2792824,31.8648674 C17.2743875,31.8648674 18.0810826,32.6715623 18.0810826,33.6666674 C18.0810826,34.6617725 17.2743875,35.4684676 16.2792824,35.4684676 C15.2841723,35.4684676 14.4774824,34.6617725 14.4774824,33.6666674 C14.4774824,32.6715623 15.2841723,31.8648674 16.2792824,31.8648674 L16.2792824,31.8648674 Z" id="Ellipse-3-copy" fill="#EDF1F1"></path>
        <path d="M39.4144162,25.2342328 L39.4144162,30.567566 C39.4144162,31.8708986 38.14306,33.9046375 36.0714269,34.0211044 C35.7671015,34.0065931 29.6126133,34.0270274 29.6126133,34.0270274 C26.8460042,34.0270274 26.2972961,30.7117101 26.2972961,30.7117101 L26.2972961,27.10811 L23.7027039,27.10811 L23.7027039,30.7117101 C23.7027039,30.7117101 23.1539958,34.0270274 20.3873867,34.0270274 C20.3873867,34.0270274 14.2328985,34.0065931 13.9285731,34.0211044 C11.85694,33.9046375 10.5855838,31.8708986 10.5855838,30.567566 L10.5855838,25.2342328 L8.27927973,25.2342328 L8.27927973,23.7927927 L21.6846828,23.7927927 C21.6846828,23.7927927 23.7027039,24.1188049 23.7027039,25.5225208 L26.2972961,25.5225208 C26.2972961,24.1188049 28.3153172,23.7927927 28.3153172,23.7927927 L41.7207203,23.7927927 L41.7207203,25.2342328 L39.4144162,25.2342328 L39.4144162,25.2342328 Z M22.2612588,25.9549527 C22.2612588,25.4411595 21.6846828,25.3783767 21.6846828,25.3783767 L12.0270291,25.3783767 L12.0270291,30.4234221 C12.0270291,31.9953557 14.1891892,32.5855873 14.1891892,32.5855873 L20.0990986,32.5855873 C22.1324611,32.5855873 22.2612588,30.4234221 22.2612588,30.4234221 L22.2612588,25.9549527 L22.2612588,25.9549527 Z M37.9729709,25.3783767 L28.3153172,25.3783767 C28.3153172,25.3783767 27.7387412,25.4411595 27.7387412,25.9549527 L27.7387412,30.4234221 C27.7387412,30.4234221 27.8675389,32.5855873 29.9009014,32.5855873 L35.8108108,32.5855873 C35.8108108,32.5855873 37.9729709,31.9953557 37.9729709,30.4234221 L37.9729709,25.3783767 L37.9729709,25.3783767 Z M35.9549549,34.0298704 C36.0131136,34.0286574 36.0699909,34.0243316 36.1273334,34.0211044 C36.1755511,34.0234084 36.1271121,34.0262846 35.9549549,34.0298704 L35.9549549,34.0298704 Z M13.9342945,34.0211044 C13.991637,34.0243316 14.0485143,34.0286574 14.106673,34.0298704 C13.9345158,34.0262846 13.8860768,34.0234084 13.9342945,34.0211044 L13.9342945,34.0211044 Z" id="Shape-1-copy-5" fill="#3B434F"></path>
        <path d="M8.91063277,25.0900939 C8.91063277,25.0900939 9.46673834,16.4082193 14.8244343,12.5495498 C14.8244343,12.5495498 22.5603877,17.811935 34.7294421,12.5495498 C34.7294421,12.5495498 40.1119284,15.0011269 40.9317274,25.0900939 L41.2206753,25.0900939 C41.2206753,25.0900939 42.7617563,13.5337829 38.7681343,8.94594443 C38.7681343,8.94594443 37.7843806,5.43243311 32.5658541,2.89189105 L30.6907448,4.04504831 C30.6907448,4.04504831 29.4309049,2.50337449 26.0750899,0.585586993 C26.0750899,0.585586993 23.5931603,1.69144189 22.3248715,3.61261115 L20.3055253,2.31531503 C20.3055253,2.31531503 17.4838453,3.60698193 15.8341125,5.91892044 L12.8050882,6.3513473 L11.2184576,9.23423243 C11.2184576,9.23423243 7.43113851,12.2854696 8.62167973,24.8018007 L8.91063277,25.0900939 L8.91063277,25.0900939 Z" id="Shape-6-copy-3" fill="#9EA0A4"></path>
        <path d="M41.7972514,25.0900939 L40.4272235,25.0180218 C39.6074243,14.9290549 34.7294421,13.1261258 34.7294421,13.1261258 C22.5603877,18.388511 14.8244343,13.0540539 14.8244343,13.0540539 C10.1448524,17.0461706 9.41513682,25.1621659 9.41513682,25.1621659 L8.1892478,24.8018007 C6.99870659,12.2854696 10.7860255,9.01801655 10.7860255,9.01801655 L12.5168002,5.84684324 L15.6899684,5.41441639 C17.3397012,3.10247787 20.3775973,1.66666706 20.3775973,1.66666706 L22.2612639,2.89189105 C23.5295527,0.970721959 26.153152,0.00901097973 26.153152,0.00901097973 C29.5089671,1.92679848 30.7657654,3.3963951 30.7657654,3.3963951 L32.709998,2.31531503 C37.9285245,4.85585709 39.3447103,8.87387247 39.3447103,8.87387247 C43.3383323,13.461711 41.7972514,25.0900939 41.7972514,25.0900939 L41.7972514,25.0900939 Z M38.4054081,9.16216047 C38.4054081,9.16216047 37.7860921,6.00900912 32.5675655,3.46846706 L30.6216215,4.62161909 C30.6216215,4.62161909 29.364823,3.07995051 26.0090081,1.16216301 C26.0090081,1.16216301 23.7457688,2.34009003 22.4774799,4.26125912 L20.3153147,2.89189105 C20.3153147,2.89189105 17.7127941,4.11148581 16.0630613,6.42342432 L13.1801811,6.85585642 L11.6666691,9.59459257 C11.6666691,9.59459257 8.52304916,11.9956816 8.85585574,21.7027046 L8.92792787,21.6306326 C8.92792787,21.6306326 9.92807432,15.5966578 14.8244343,11.9009019 C14.8244343,11.9009019 22.7766037,17.3074309 34.9456581,12.0450458 C34.9456581,12.0450458 39.4414644,14.1593417 41.0000002,21.7027046 C41.0000002,21.7027046 41.9251159,13.9440691 38.4054081,9.16216047 L38.4054081,9.16216047 Z" id="Shape-6-copy" fill="#3B434F"></path>
        <path d="M22.8040541,62.5 L24.8310811,60.3040541 L27.027027,62.5 L25.8445946,63.6824324 L27.7027027,71.2837838 L21.9594595,71.2837838 L23.9864865,63.6824324 L22.8040541,62.5 L22.8040541,62.5 Z" id="Shape-34" fill="#3B434F"></path>
        <path d="M27.3140676,71.4002816 L25.2711682,63.7760833 L25.6959451,63.6486466 L25.9775986,63.3493939 L28.1382792,71.4131588 L27.3140676,71.4002816 L27.3140676,71.4002816 Z M21.5515187,71.3102444 L23.684311,63.3864223 L23.822073,63.5045025 L24.2545051,63.7927905 L24.3970819,63.8070493 L22.3740552,71.3230958 L21.5515187,71.3102444 L21.5515187,71.3102444 Z" id="Rectangle-24-copy-4" fill="#3B434F"></path>
        <path d="M29.7543191,64.6600929 L29.1937287,65.2206833 L27.0124333,63.0393878 C26.591502,63.7079394 25.8483834,64.1531507 25,64.1531507 C24.1173358,64.1531507 23.3486743,63.671277 22.9383571,62.9572172 L20.6613799,65.2341997 L20.0992841,64.6721041 L24.5821978,60.1891904 L24.9328046,59.8641164 L25.2834113,60.1891904 L29.7543191,64.6600929 L29.7543191,64.6600929 Z M23.3793155,62.5162588 C23.6667272,63.1014644 24.2679338,63.5045025 24.9639615,63.5045025 C25.6443385,63.5045025 26.2332556,63.1188264 26.5279667,62.5549213 L24.93431,60.9612645 L23.3793155,62.5162588 L23.3793155,62.5162588 Z" id="Ellipse-6" fill="#3B434F"></path>
        <path d="M25.1924206,3.82989932 C25.2984588,3.90878108 25.2459655,3.98177584 25.2229382,4.08041149 C25.1885853,4.22756605 25.1478299,4.37322044 25.1248747,4.52006064 C25.0900836,4.74256571 25.0583649,4.96533361 25.0492611,5.18485405 C25.0416059,5.36944409 25.0449258,5.55342601 25.0481323,5.73622736 C25.0499828,5.84179139 25.0680512,5.94717483 25.0706492,6.05290895 C25.0716853,6.0950924 25.0831758,6.13739949 25.0843615,6.18033024 C25.0869493,6.19198057 25.0895372,6.20363598 25.092125,6.21528108 C25.0936302,6.26923851 25.1077755,6.32070591 25.1092654,6.37456014 C25.1180649,6.42332128 25.1268748,6.47209274 25.1356743,6.52085389 C25.1486236,6.5981272 25.1549179,6.67879257 25.1785535,6.75406588 C25.1811466,6.77334037 25.1837395,6.79262517 25.1863324,6.81189983 C25.2050863,6.87171841 25.211226,6.9334598 25.2300985,6.99346909 C25.231449,7.00532044 25.2327997,7.01717686 25.2341502,7.02903328 C25.2615387,7.11555473 25.2738747,7.20658682 25.3011858,7.2925723 C25.3455343,7.43219527 25.3816193,7.57241115 25.430535,7.71171976 C25.4629753,7.80411284 25.4909412,7.90090304 25.5235775,7.99383733 C25.5816691,8.15927145 25.6525606,8.32084443 25.7164105,8.48447956 C25.7552791,8.58408953 25.807427,8.67612162 25.849064,8.77529865 C25.966897,9.05596757 26.1183042,9.33182179 26.2630875,9.60693868 C26.309864,9.69582111 26.3612078,9.77756402 26.4130463,9.86437416 C26.4461157,9.91976453 26.480453,9.98183074 26.5109552,10.0388811 C26.5278326,10.0704502 26.5489784,10.0942508 26.5673353,10.1249076 C26.6071319,10.1913606 26.6502483,10.2627883 26.6894057,10.3297414 C26.7256196,10.3916581 26.7665039,10.4445329 26.8065015,10.5048875 C26.8496076,10.5699385 26.8922961,10.6431549 26.9359949,10.7084944 C27.0119333,10.8220436 27.0924801,10.9317779 27.1676966,11.0439351 C27.2458412,11.1604535 27.3336823,11.2636154 27.4164199,11.3784687 C27.5767662,11.6010459 27.7641916,11.8145711 27.9370644,12.0379681 C27.9888101,12.1048334 28.0507166,12.1632963 28.1024417,12.2280019 C28.1282426,12.2602824 28.1713796,12.2884853 28.1888446,12.3224052 C28.1959534,12.3362155 28.2000155,12.3575005 28.2049694,12.3731355 C28.2129443,12.3982971 28.2108823,12.4293715 28.2112225,12.4560176 C28.2117637,12.4986752 28.2138412,12.5418843 28.2063716,12.5865164 C28.1986289,12.6327618 28.1692608,12.6836622 28.1501667,12.7293302 C28.1348306,12.7659875 28.0966424,12.7983042 28.0750378,12.8161508 C28.0568561,12.8311775 28.0493556,12.8451527 28.0308233,12.8597105 C27.9826086,12.8975997 27.9280481,12.9287617 27.8752507,12.944603 C27.8205201,12.9610216 27.7497833,12.9118688 27.7065483,12.8600147 C27.6309194,12.7693022 27.5363407,12.6860231 27.4637583,12.5950684 C27.4482417,12.5756186 27.4310035,12.5669892 27.4157601,12.5477044 C27.3319605,12.441697 27.2290926,12.3418757 27.1463291,12.237585 C27.127436,12.2137792 27.1067336,12.2004328 27.0884179,12.1766064 C27.0240731,12.09291 26.9486814,12.0174769 26.8833934,11.9321051 C26.7197274,11.7181056 26.5432409,11.5113336 26.3952564,11.2958289 C26.3606561,11.2454441 26.3235247,11.2056525 26.2896358,11.1550253 C26.0499439,10.7969027 25.8094221,10.4449814 25.6173676,10.0800644 C25.5668279,9.98404223 25.5109787,9.89672179 25.4636816,9.80036453 C25.3293992,9.52677855 25.2041481,9.25336267 25.0892691,8.97741571 C25.0741752,8.94116064 25.0632209,8.90062179 25.0492715,8.86388733 C24.9863547,8.69823666 24.9293405,8.53465304 24.8728314,8.36862095 C24.8158223,8.20113007 24.783387,8.02614882 24.7301101,7.85823514 C24.7188723,7.82282027 24.7154443,7.78441047 24.7040311,7.74811926 C24.7024742,7.73502551 24.7009174,7.72193193 24.6993606,7.70884341 C24.6870041,7.66946436 24.6856535,7.62760068 24.6735856,7.58913919 C24.6446557,7.49689561 24.6357118,7.39720828 24.6198397,7.30242348 C24.6048593,7.21296368 24.5843939,7.12147787 24.5818834,7.03025 C24.5784657,7.01365608 24.5750478,6.99705169 24.5716353,6.9804527 C24.5699959,6.92119595 24.5550258,6.86263007 24.5535515,6.80417247 C24.5509843,6.70213446 24.5347976,6.60042635 24.5329007,6.49862027 C24.5305397,6.37201875 24.5256682,6.24495845 24.5264208,6.11824865 C24.5271785,5.99138936 24.5376897,5.86738074 24.5450098,5.73944409 C24.5648358,5.39286841 24.6282166,5.04462264 24.7119182,4.68571639 C24.7422811,4.55552686 24.7909855,4.42814696 24.8319883,4.29773581 C24.8602377,4.20789983 24.9046789,4.12133699 24.936372,4.03251132 C24.9446456,4.00932922 24.9575022,3.99555524 24.9663431,3.97223919 C24.985334,3.92213767 25.0102326,3.86049426 25.0565813,3.82760017 C25.0773198,3.81288784 25.1249829,3.80501098 25.149397,3.81223311 C25.1664032,3.81725929 25.1771463,3.8303272 25.1924206,3.82989932 L25.1924206,3.82989932 Z M21.8101346,6.3144375 C21.8868926,6.36996199 21.8808611,6.45128193 21.8826965,6.51984341 C21.8845934,6.59089476 21.9050226,6.66162128 21.9069919,6.73324476 C21.9152811,6.7827277 21.9235704,6.83222078 21.9318596,6.88170355 C21.9329576,6.92178361 21.9430304,6.95979662 21.9495824,6.99892297 C21.9563407,7.03924544 21.9592635,7.0798049 21.9716459,7.11924071 C21.9791051,7.16377466 21.9865644,7.20831892 21.9940236,7.25285304 C22.0063235,7.29208243 22.0077103,7.33401841 22.0197986,7.37255709 C22.0571828,7.49174578 22.0714723,7.61821334 22.1095008,7.73723699 C22.1498128,7.86342618 22.1792686,7.99388885 22.2230395,8.11894899 C22.2803735,8.28277483 22.3364804,8.44764713 22.3988559,8.61050372 C22.4307498,8.69377247 22.4686958,8.77161284 22.5026981,8.85459797 C22.5286948,8.91804054 22.5534027,8.98717416 22.5829872,9.04918885 C22.7058617,9.30673243 22.8327262,9.56404916 22.9678799,9.82080929 C23.0748976,10.0241274 23.2025662,10.2181409 23.3198372,10.4186084 C23.3559944,10.4804167 23.3968426,10.5335493 23.4369329,10.5937493 C23.5274186,10.7296299 23.6237035,10.8709387 23.7163492,11.0090255 C23.8039378,11.1395708 23.9091976,11.2612441 24.0013123,11.3890519 C24.0163596,11.4099296 24.0337887,11.4212191 24.0483826,11.4422875 C24.0950765,11.5096995 24.1561993,11.5746318 24.2075791,11.6409715 C24.2334108,11.6743294 24.2661451,11.6974856 24.2896466,11.7322767 C24.3410986,11.8084623 24.3731885,11.9505341 24.3486662,12.039102 C24.306189,12.1925458 24.1580809,12.2958569 24.0453463,12.3353701 C24.0113284,12.3472936 23.9582422,12.3688723 23.9212861,12.3578201 C23.8630449,12.3404064 23.8258826,12.2885524 23.7918596,12.2457505 C23.7478823,12.1904167 23.6966262,12.1502437 23.654051,12.0950184 C23.5753858,11.9929701 23.4827917,11.9017627 23.4041215,11.7988277 C23.2393831,11.5832819 23.0706551,11.3747726 22.9243356,11.1554481 C22.5855647,10.6476603 22.3044627,10.135063 22.0852361,9.60842855 C21.9942351,9.38981554 21.9209774,9.16437196 21.8477145,8.94209375 C21.8216252,8.86294899 21.8073458,8.77827314 21.782241,8.6992728 C21.7478314,8.59099206 21.7325468,8.47932449 21.6987559,8.37170878 C21.6969929,8.35737787 21.6952247,8.34304713 21.6934617,8.32871622 C21.6879819,8.30467838 21.6798473,8.28150152 21.6757698,8.25726284 C21.6729706,8.23675101 21.6701715,8.21623412 21.6673723,8.19571723 C21.6546291,8.15512686 21.6516392,8.11321149 21.6446902,8.07168801 C21.6379372,8.03136571 21.6274777,7.99205372 21.6263385,7.95076216 C21.6212659,7.92426554 21.6161934,7.89776368 21.6111157,7.87127213 C21.6080897,7.76318209 21.5821395,7.6572522 21.579928,7.54839409 C21.5794074,7.52271182 21.571211,7.49549358 21.5705872,7.46983716 C21.5680611,7.36572162 21.5577718,7.26130203 21.5582823,7.15718142 C21.5588647,7.03861132 21.5577203,6.91800507 21.565128,6.79939882 C21.5680458,6.75266892 21.5762319,6.70862973 21.5783299,6.66179662 C21.580624,6.61042703 21.5896968,6.56122264 21.5964652,6.50812095 C21.6004809,6.47663936 21.6005326,6.43852331 21.6100074,6.40670676 C21.6196267,6.37438497 21.6526856,6.32213378 21.683265,6.30874628 C21.7041324,6.29961689 21.7443363,6.29052855 21.7671111,6.29677128 C21.7842051,6.30145203 21.7947779,6.31484476 21.8101346,6.3144375 L21.8101346,6.3144375 Z M19.2256103,6.85308818 C19.311874,6.91634003 19.2879238,6.99614966 19.2873517,7.07363446 C19.2864341,7.19831824 19.2990586,7.32277534 19.3021774,7.44690253 C19.3046672,7.54585777 19.3299887,7.64413784 19.332726,7.74318598 C19.3386284,7.77462618 19.344536,7.80607686 19.3504385,7.8375223 C19.3519541,7.8924076 19.3638209,7.96325794 19.3802757,8.01567382 C19.3818324,8.02876233 19.3833892,8.04186132 19.3849461,8.05494983 C19.3900392,8.08534358 19.3964159,8.11524257 19.4057465,8.14496115 C19.407927,8.16176132 19.4101024,8.17857179 19.4122829,8.19537196 C19.4344649,8.26612416 19.4413056,8.3418201 19.4638123,8.41189206 C19.5176459,8.57948091 19.5604377,8.7509 19.6192199,8.9182674 C19.7466309,9.28103986 19.921277,9.6326777 20.107063,9.98562483 C20.1677787,10.100973 20.2433508,10.2083052 20.3047314,10.3228904 C20.3309084,10.3717495 20.365251,10.4114223 20.3942583,10.4587348 C20.4735473,10.5880583 20.565466,10.717062 20.6516833,10.8452255 C20.7710111,11.022609 20.9163718,11.184311 21.0431899,11.360184 C21.0876258,11.4218118 21.143738,11.4753258 21.1868956,11.5347373 C21.2252745,11.587576 21.2749429,11.6272076 21.3160334,11.6792782 C21.3974309,11.7824245 21.5000461,11.8806633 21.5863924,11.983526 C21.6362309,12.0429014 21.6954978,12.0908427 21.7437074,12.1481973 C21.7975564,12.2122635 21.8652931,12.2634889 21.9183535,12.3252508 C21.931772,12.3370145 21.9451904,12.3487833 21.958609,12.360547 C22.0127313,12.4245875 22.0882777,12.4813235 22.1440909,12.5453434 C22.167912,12.5726649 22.1961769,12.5854441 22.220261,12.6128326 C22.2985448,12.7018542 22.4089546,12.7739983 22.4893416,12.863886 C22.5122865,12.8895424 22.5428247,12.9069096 22.5633466,12.9298287 C22.5720122,12.9360199 22.5806829,12.9422162 22.5893535,12.9484074 C22.6170926,12.9793218 22.6603019,13.0076331 22.6884378,13.0388054 C22.697825,13.045512 22.7072174,13.0522238 22.7166098,13.0589304 C22.7625718,13.1099443 22.8333912,13.1503235 22.8797861,13.2016517 C22.8920654,13.2104255 22.9043444,13.2191993 22.9166236,13.2279731 C22.9757721,13.2933539 23.0695981,13.3401407 23.1296436,13.4063051 C23.1565785,13.4266363 23.1835184,13.4469728 23.2104534,13.4673041 C23.2235986,13.4817794 23.2519819,13.4942853 23.2674213,13.5112711 C23.3083054,13.5562535 23.3772432,13.5915807 23.4216071,13.6344961 C23.4478306,13.6598691 23.488952,13.6773444 23.5110824,13.7016916 C23.5305992,13.723162 23.5659883,13.7375394 23.5832162,13.7564943 C23.6395605,13.7967497 23.6959149,13.8370154 23.7522537,13.8772655 C23.8856188,13.9725505 24.0185145,14.0618659 24.1476007,14.1531867 C24.2087029,14.1964113 24.2845639,14.2304704 24.3222159,14.2844742 C24.3434855,14.3149814 24.3519706,14.3588144 24.3631414,14.3921311 C24.3882772,14.4670745 24.3986542,14.5560497 24.37756,14.6376791 C24.3711368,14.6625519 24.3581772,14.6793365 24.3488363,14.7053745 C24.3338765,14.7470834 24.3089934,14.8118149 24.2644748,14.8509465 C24.2355193,14.8763966 24.2053316,14.910703 24.1732571,14.9328078 C24.1238155,14.966872 24.0698943,14.9486954 24.0095654,14.9236782 C23.9902703,14.9109814 23.9709699,14.8982796 23.9516748,14.8855828 C23.8591632,14.8458635 23.7727294,14.7608731 23.6798725,14.7208034 C23.6619846,14.7130863 23.6432566,14.6937292 23.6284823,14.6873525 C23.5976297,14.6664027 23.5667718,14.6454424 23.5359193,14.6244873 C23.5019581,14.6098059 23.4714508,14.5741747 23.4331389,14.557591 C23.4010954,14.543724 23.3683252,14.517815 23.336859,14.4953392 C23.3253015,14.4870861 23.3137441,14.4788226 23.3021865,14.4705694 C23.2712617,14.4571716 23.2347282,14.4288861 23.2059066,14.4083177 C23.164012,14.3783878 23.1221071,14.3484476 23.0802123,14.3185125 C23.0352196,14.2989699 22.9853193,14.2539823 22.9421358,14.2231348 C22.9063601,14.1975764 22.8579032,14.1700333 22.8309889,14.140459 C22.8064306,14.1229113 22.7818669,14.1053586 22.7573086,14.0878162 C22.7060164,14.0511745 22.6554407,14.0150225 22.6108654,13.9766539 C22.5863071,13.9591062 22.5617383,13.9415586 22.5371799,13.924011 C22.5016208,13.8847764 22.4399515,13.8550887 22.4046655,13.8162664 C22.388051,13.8043997 22.3714365,13.7925225 22.354822,13.7806557 C22.3290623,13.7521899 22.284616,13.7272912 22.2591451,13.6992326 C22.2447008,13.6889123 22.2302514,13.6785868 22.215802,13.6682666 C22.1962645,13.6466052 22.1613858,13.6239439 22.141802,13.6023238 C22.1302444,13.5940655 22.118687,13.5858073 22.1071296,13.5775541 C22.0394547,13.5024508 21.9403395,13.4457304 21.8742834,13.3719882 C21.8536429,13.3550644 21.8330022,13.3381353 21.8123617,13.3212115 C21.7269434,13.2251534 21.6114662,13.1479985 21.5290328,13.0534456 C21.5066188,13.0277274 21.4813439,13.0161285 21.459363,12.990601 C21.3831618,12.9020846 21.2859076,12.8232132 21.2125623,12.7358514 C21.2004635,12.7214483 21.1886845,12.7181027 21.1766424,12.7036584 C21.1420677,12.6621762 21.0974049,12.6193279 21.0639181,12.5773765 C21.0483294,12.5578493 21.0314313,12.5495963 21.0159199,12.5300176 C20.8998912,12.3835899 20.7634848,12.2529056 20.6510956,12.1059985 C20.4520561,11.8458412 20.2444076,11.5919628 20.087041,11.324001 C20.0513995,11.2633111 20.0088965,11.2125191 19.9742755,11.151953 C19.9130238,11.0447909 19.8462255,10.9392733 19.7886905,10.8298481 C19.6986481,10.658625 19.6143743,10.4859687 19.5323995,10.3134774 C19.4747409,10.1921493 19.4290934,10.0616454 19.3817345,9.9379152 C19.3428659,9.83635152 19.3058014,9.73761267 19.2701133,9.63598716 C19.2350027,9.53599054 19.2098463,9.43197297 19.1770554,9.33098142 C19.1437025,9.22826824 19.130052,9.11929155 19.0976014,9.01609882 C19.0852758,8.97690034 19.0865542,8.92742264 19.0743008,8.88835811 C19.044077,8.79202669 19.0368084,8.68734932 19.0202301,8.5883424 C18.9494726,8.16574105 18.9421319,7.73299966 18.9731443,7.29350524 C18.9802995,7.19207044 19.0014194,7.09600186 19.0180907,6.99235034 C19.0256892,6.94513057 19.0411799,6.88513682 19.0934826,6.85017568 C19.1101539,6.83903057 19.1631833,6.83025152 19.1825867,6.83541689 C19.1985052,6.83965422 19.2109752,6.85344392 19.2256103,6.85308818 L19.2256103,6.85308818 Z" id="new_vector_shape_done-copy" fill="#3B434F" opacity="0.2"></path>
    </g>
</svg>