
<svg viewBox="12 7 50 68" version="1.1" xmlns="http://www.w3.org/2000/svg" xmlns:xlink="http://www.w3.org/1999/xlink">
    <g id="svg4226" stroke="none" stroke-width="1" fill="none" fill-rule="evenodd" transform="translate(12.000000, 7.000000)">
        <path d="M49.910973,50.3879523 C46.7440398,64.2401416 30.5337846,58.8150688 25,56.5135932 L25,56.4988699 C19.4662154,58.802113 3.25596025,64.2313512 0.0890270186,50.3685283 C0.0890270186,50.3685283 5.76914907,50.4296061 4.06418323,32.6128373 C4.06418323,32.6128373 -2.08955854,-2.68217283 25,0.267914907 L25,0.325751398 C52.0895585,-2.62207593 45.9358168,32.6458711 45.9358168,32.6458711 C44.2308509,50.4489828 49.910973,50.3879523 49.910973,50.3879523 L49.910973,50.3879523 Z" id="Shape-12" fill="#3B434F"></path>
        <path d="M2.54037034,67.2360248 C2.54037034,67.2360248 1.51319798,53.2626988 14.6645966,51.9585935 L20.5610761,51.9585935 L20.5610761,49.2422352 C20.5610761,49.2422352 24.7088509,51.0238079 28.9089037,49.4409929 L29.0414087,51.9585935 L35.9316761,51.9585935 C35.9316761,51.9585935 47.7306531,52.4219868 47.1946148,67.36853 L2.54037034,67.2360248 L2.54037034,67.2360248 Z" id="body-bg-flat-copy" fill="#FFFFFF"></path>
        <path d="M47.0903621,67.7929612 L2.91079876,67.7929612 L2.05398463,67.7929612 L2.26785885,64.139263 C2.68545217,57.0053764 8.30619286,51.5610784 14.7383554,51.5610784 L19.1612812,51.5610784 C18.8743497,51.7983952 18.6640769,52.0445498 18.5128537,52.2898562 L15.1288382,52.2898562 C8.92955714,52.2898562 3.51231739,57.530293 3.10984068,64.3970512 L2.96128075,66.9316784 L46.9736276,66.9316784 L46.8913203,64.3970512 C46.4888436,57.530293 41.0716039,52.2898562 34.872318,52.2898562 L31.4854213,52.2898562 C31.3559017,52.0463553 31.17173,51.8002196 30.9146005,51.5610784 L35.223512,51.5610784 C41.6556744,51.5610784 47.2764152,57.0053764 47.6940084,64.139263 L47.9078826,67.7929612 L47.0903621,67.7929612 L47.0903621,67.7929612 Z M29.6041026,52.2898562 L29.3726714,52.2898562 L29.3726714,51.5610784 L29.6298152,51.5610784 C29.6144425,51.7504863 29.6045623,51.98922 29.6041026,52.2898562 L29.6041026,52.2898562 Z M20.2856028,51.5610784 L20.5610761,51.5610784 L20.5610761,52.2898562 L20.3229916,52.2898562 C20.3194328,51.9803634 20.3052497,51.7428665 20.2856028,51.5610784 L20.2856028,51.5610784 Z" id="Rounded-Rectangle-13-copy-4" fill="#3B434F"></path>
        <path d="M27.0538283,61.6977242 C27.3099627,61.6977242 27.5176006,61.9053575 27.5176006,62.1614918 C27.5176006,62.4176214 27.3099627,62.6252595 27.0538283,62.6252595 C26.7976986,62.6252595 26.5900606,62.4176214 26.5900606,62.1614918 C26.5900606,61.9053575 26.7976986,61.6977242 27.0538283,61.6977242 L27.0538283,61.6977242 Z" id="Ellipse-5" fill="#3B434F"></path>
        <path d="M27.0538283,64.7453402 C27.3099627,64.7453402 27.5176006,64.9529783 27.5176006,65.2091079 C27.5176006,65.4652424 27.3099627,65.6728756 27.0538283,65.6728756 C26.7976986,65.6728756 26.5900606,65.4652424 26.5900606,65.2091079 C26.5900606,64.9529783 26.7976986,64.7453402 27.0538283,64.7453402 L27.0538283,64.7453402 Z" id="Ellipse-5-copy" fill="#3B434F"></path>
        <path d="M32.4202876,55.4699821 L29.0414087,60.5051787 C28.1222421,57.6562207 25.4637677,58.7163557 25.4637677,58.7163557 L25.4637677,67.1306682 C25.4637677,67.350082 25.2561297,67.5279511 25,67.5279511 C24.7438703,67.5279511 24.5362323,67.350082 24.5362323,67.1306682 L24.5362323,58.7161568 C24.5147231,58.707627 21.8774025,57.6678447 20.9629793,60.5051787 L17.5877683,55.4699821 C17.5877683,55.4699821 16.2821657,52.1506174 20.2349929,50.6997955 L20.2349929,49.1759828 L20.9824461,49.1759828 L20.9824461,53.9715927 C21.0784059,54.7971026 21.6467863,57.1492686 25,57.9213255 C28.3568578,57.1492686 28.925859,54.7971026 29.021923,53.9715927 L29.021923,49.1759828 L29.7701865,49.1759828 L29.7701865,50.6997955 C33.727307,52.1506174 32.4202876,55.4699821 32.4202876,55.4699821 L32.4202876,55.4699821 Z M20.9237994,55.915714 C20.7436366,55.711687 20.4841424,55.2049672 20.4841424,55.2049672 C20.4841424,55.2049672 20.2349929,54.37578 20.2349929,54.0124217 L20.2349929,52.3319458 C20.1786444,51.5740342 20.0364534,51.5610784 20.0364534,51.5610784 C17.0871095,53.013753 18.3819362,55.2712197 18.3819362,55.2712197 L20.8306211,59.113871 C21.7868497,57.4936102 22.8160408,57.7888205 22.8160408,57.7888205 C21.9073516,57.3256877 21.3114009,56.6069087 20.9237994,55.915714 L20.9237994,55.915714 Z M29.9689441,51.5610784 C29.9689441,51.5610784 29.8265966,51.5740342 29.7701865,52.3319458 L29.7701865,54.0124217 C29.7701865,54.37578 29.5207669,55.2049672 29.5207669,55.2049672 C29.5207669,55.2049672 29.2609884,55.711687 29.0806314,55.915714 C28.6926081,56.6069087 28.0960082,57.3256877 27.1863334,57.7888205 C27.1863334,57.7888205 28.2166427,57.4936102 29.1739138,59.113871 L31.6252571,55.2712197 C31.6252571,55.2712197 32.9214913,53.013753 29.9689441,51.5610784 L29.9689441,51.5610784 Z" id="Shape-2-copy-9" fill="#3B434F"></path>
        <path d="M25.0333325,7.37059689 C33.2752394,7.37059689 39.7805825,15.0726508 39.5690587,24.3268553 L39.3442427,34.1624385 C39.1449685,42.8808177 32.7399733,49.7722554 25.0333325,49.7722554 C17.3266915,49.7722554 10.9216963,42.8808177 10.7224222,34.1624385 L10.4976062,24.3268553 C10.2860871,15.0726508 16.7914255,7.37059689 25.0333325,7.37059689 L25.0333325,7.37059689 Z" id="2-copy-5" fill="#FFFFFF"></path>
        <path d="M40.2312711,24.0219163 L39.995703,34.2570666 C39.7868992,43.3296298 33.0755104,50.5010332 25.000218,50.5010332 C16.9249208,50.5010332 10.2135368,43.3296298 10.0047283,34.2570666 L9.76915543,24.0219163 C9.5475191,14.3917581 16.3640514,6.37680901 25.000218,6.37680901 C33.6363846,6.37680901 40.4529121,14.3917581 40.2312711,24.0219163 L40.2312711,24.0219163 Z M24.9671273,7.43684953 C16.8378936,7.43684953 10.4214876,15.0787306 10.6301112,24.2606359 L10.8518565,34.0193801 C11.0484057,42.6696446 17.365843,49.5072453 24.9671273,49.5072453 C32.5684115,49.5072453 38.8858439,42.6696446 39.0823933,34.0193801 L39.3041339,24.2606359 C39.5127669,15.0787306 33.0963609,7.43684953 24.9671273,7.43684953 L24.9671273,7.43684953 Z" id="2-line" fill="#3B434F"></path>
        <path d="M32.1552775,40.1127217 C30.9510509,41.1583467 28.2310581,42.1532056 25.0662573,42.1532056 C21.9014517,42.1532056 19.1814589,41.1583467 17.9772276,40.1127217 C17.9772276,40.1127217 17.85402,39.7737017 18.0347893,39.5929325 C18.218904,39.4088177 18.5072478,39.4488885 18.5072478,39.4488885 C19.7102138,40.4952245 21.9002433,41.3581801 25.0662573,41.3581801 C28.2322665,41.3581801 30.422296,40.4952245 31.625262,39.4488885 C31.625262,39.4488885 31.9195197,39.3395797 32.0624641,39.4825242 C32.3377811,39.7578411 32.1552775,40.1127217 32.1552775,40.1127217 L32.1552775,40.1127217 Z" id="usta" fill="#3B434F"></path>
        <path d="M22.8799193,43.743271 L27.1200856,43.743271 L27.1200856,44.4057963 L22.8799193,44.4057963 L22.8799193,43.743271 L22.8799193,43.743271 Z" id="-" fill="#3B434F"></path>
        <path d="M17.7122175,26.2525902 C18.4440233,26.2525902 19.037268,26.8458349 19.037268,27.5776407 C19.037268,28.3094466 18.4440233,28.9026911 17.7122175,28.9026911 C16.9804116,28.9026911 16.3871623,28.3094466 16.3871623,27.5776407 C16.3871623,26.8458349 16.9804116,26.2525902 17.7122175,26.2525902 L17.7122175,26.2525902 Z" id="oko" fill="#3B434F"></path>
        <path d="M32.4202876,26.2525902 C33.1520933,26.2525902 33.745338,26.8458349 33.745338,27.5776407 C33.745338,28.3094466 33.1520933,28.9026911 32.4202876,28.9026911 C31.6884865,28.9026911 31.095237,28.3094466 31.095237,27.5776407 C31.095237,26.8458349 31.6884865,26.2525902 32.4202876,26.2525902 L32.4202876,26.2525902 Z" id="oko_1" fill="#3B434F"></path>
        <path d="M17.6459651,31.1552818 C18.9266228,31.1552818 19.9648034,31.2287609 19.9648034,32.6790899 C19.9648034,34.1750388 18.9266228,34.202898 17.6459651,34.202898 C16.3653025,34.202898 15.3271267,33.9304575 15.3271267,32.6790899 C15.3271267,31.2173357 16.3653025,31.1552818 17.6459651,31.1552818 L17.6459651,31.1552818 Z" id="Ellipse-3-copy" fill="#F5F3EF"></path>
        <path d="M33.0165649,31.1552818 C34.2972228,31.1552818 35.3354034,31.2287609 35.3354034,32.6790899 C35.3354034,34.1750388 34.2972228,34.202898 33.0165649,34.202898 C31.7359023,34.202898 30.6977266,33.9304575 30.6977266,32.6790899 C30.6977266,31.2173357 31.7359023,31.1552818 33.0165649,31.1552818 L33.0165649,31.1552818 Z" id="Ellipse-3-copy-2" fill="#F5F3EF"></path>
        <path d="M28.5714286,23.8525106 L28.9551919,24.3399579 L29.1932953,24.6420677 C29.1932953,24.6420677 33.4091849,22.314112 36.3354037,25 L36.6473843,25.1529385 C36.6473843,25.1529385 35.9265061,21.2590994 29.6161012,23.5367106 C29.283161,23.6270217 28.9357772,23.7312506 28.5714286,23.8525106 L28.5714286,23.8525106 Z" id="R-copy" fill="#3B434F"></path>
        <path d="M21.2732919,23.8552213 L20.8895286,24.3416543 L20.6514252,24.6431339 C20.6514252,24.6431339 16.4355356,22.3200211 13.5093168,25.0003222 L13.1973362,25.1529433 C13.1973362,25.1529433 13.9182144,21.2671978 20.2286193,23.540075 C20.5615595,23.6302014 20.9089433,23.7342124 21.2732919,23.8552213 L21.2732919,23.8552213 Z" id="L-copy" fill="#3B434F"></path>
        <path d="M39.1780545,18.1697727 L41.9606606,18.1697727 L41.9606606,24.79503 L39.1780545,24.79503 L39.1780545,18.1697727 L39.1780545,18.1697727 Z" id="Rectangle-19" fill="#3B434F"></path>
        <path d="M8.66123463,24.1837543 C8.66123463,24.1837543 11.5878798,18.5486741 17.1884193,19.4450236 C17.1884193,19.4450236 17.4099466,20.7285863 18.6142205,22.1083505 C18.6142205,22.1083505 19.9327315,18.9170458 23.9983885,18.0180188 C27.2282239,17.3038174 30.2943402,14.7290958 30.2943402,14.7290958 C30.2943402,14.7290958 30.7713005,19.8457422 37.064627,21.2705624 C37.064627,21.2705624 42.5787458,21.9523317 42.1785533,18.9054359 C41.7783607,15.8585401 38.7183242,2.59683261 24.0651953,4.60442484 C9.41207127,6.61201242 5.97064565,11.9332592 8.53107531,24.0502967" id="Shape-15" fill="#3B444F"></path>
        <path d="M9.59739441,25.5144629 C9.59556537,25.5145671 9.43472252,25.3861185 9.13099674,25.2904904 C8.9791955,25.2427806 8.79053152,25.2035342 8.57549161,25.1938578 C8.52178727,25.191441 8.46651444,25.1908675 8.40995745,25.1924739 C8.35340031,25.1940804 8.29555435,25.197862 8.2367559,25.2041408 C8.11917329,25.2167033 7.99773323,25.2392787 7.87553012,25.2744307 C7.38622065,25.4150486 6.88706398,25.7569354 6.5939104,26.4625929 C6.44675311,26.8154405 6.349675,27.2592722 6.32400994,27.8145832 C6.31758882,27.9534144 6.31562702,28.0992116 6.31844177,28.2522972 C6.32126134,28.4053826 6.32886242,28.5657562 6.34155745,28.7337404 C6.36693354,29.0696944 6.4127573,29.4360949 6.48103323,29.8353539 C6.47954053,29.8349606 6.41735388,31.0418739 6.84882686,32.4286988 C7.25445481,33.7845938 8.22849627,35.4501902 10.0269152,35.9261506 C9.82007795,32.4821472 9.81365233,28.9735877 9.59739441,25.5144629 L9.59739441,25.5144629 L9.59739441,25.5144629 Z" id="Shape-11-copy" fill="#F7FBFB"></path>
        <path d="M9.95774363,25.6533036 C9.95774363,25.6533036 6.82476351,24.6825461 6.93502019,27.9034301 C6.93502019,27.9034301 7.40146522,32.5738137 7.60401848,33.0042489 C7.60401848,33.0042489 8.83442655,35.7235073 10.8650398,35.8440186 C12.849668,35.9618003 10.8650398,35.8440186 10.8650398,35.8440186 L10.889686,36.7204986 C10.889686,36.7204986 7.32064099,36.2628913 6.63130388,32.1499084 L6.08722376,28.4134623 C6.08722376,28.4134623 5.66476863,23.4686432 9.76260637,24.7259009 C13.7547321,25.9507269 9.76260637,24.7259009 9.76260637,24.7259009 L9.95774363,25.6533036" id="Shape-3" fill="#3B434F"></path>
        <path d="M8.92365264,32.1420516 C8.92365264,32.1420516 8.74831863,32.2745567 8.59769736,32.2745567 C8.44707609,32.2745567 8.27387935,32.1420516 8.27387935,32.1420516 L7.95055419,28.8838547 C7.95055419,28.8838547 8.3966604,27.2792792 10.2896554,28.1272509 L10.3344034,29.0588852 C10.3344034,29.0588852 8.67358851,28.469877 8.70793028,29.2033272 C8.74098789,29.9093116 8.92365264,32.1420516 8.92365264,32.1420516 L8.92365264,32.1420516 Z" id="Shape-4" fill="#3B434F"></path>
        <path d="M40.3436981,25.5220686 C40.3455366,25.5221728 40.5070856,25.3938141 40.8121382,25.2982477 C40.9646076,25.2505711 41.1540961,25.2113533 41.370079,25.2016814 C41.4240155,25.1992694 41.4795301,25.198696 41.5363384,25.2003025 C41.5931418,25.201904 41.6512388,25.2056856 41.710298,25.2119598 C41.8283924,25.2245127 41.950368,25.2470739 42.0731065,25.2822023 C42.5645579,25.4227253 43.0658992,25.76438 43.360337,26.4695589 C43.5081387,26.8221648 43.6056433,27.2656932 43.6314174,27.8206298 C43.6378669,27.9593663 43.6398382,28.1050641 43.6370138,28.2580453 C43.6341801,28.4110264 43.626546,28.5712911 43.6137939,28.7391615 C43.588309,29.074888 43.5422814,29.4410421 43.473707,29.8400262 C43.4752092,29.8396329 43.5376658,31.0457312 43.104302,32.4316132 C42.6969019,33.7865888 41.7185908,35.4510526 39.9122961,35.9266908 C40.1200384,32.4850236 40.1264925,28.9788477 40.3436981,25.5220686 L40.3436981,25.5220686 L40.3436981,25.5220686 Z" id="Shape-11-copy_1" fill="#F7FBFB"></path>
        <path d="M39.981771,25.6608193 C39.981771,25.6608193 43.1284744,24.6907205 43.0177345,27.9094151 C43.0177345,27.9094151 42.549247,32.5766286 42.3458028,33.00677 C42.3458028,33.00677 41.1100068,35.7241849 39.0705037,35.8446157 C37.07718,35.9623169 39.0705037,35.8446157 39.0705037,35.8446157 L39.0457484,36.7204986 C39.0457484,36.7204986 42.6304219,36.263204 43.3227776,32.1530123 L43.8692413,28.4191012 C43.8692413,28.4191012 44.2935494,23.4776373 40.177761,24.7340421 C36.1681542,25.9580387 40.177761,24.7340421 40.177761,24.7340421 L39.981771,25.6608193" id="Shape-3_1" fill="#3B434F"></path>
        <path d="M41.0203922,32.1451602 C41.0203922,32.1451602 41.1964938,32.2775752 41.3477738,32.2775752 C41.4990537,32.2775752 41.6730087,32.1451602 41.6730087,32.1451602 L41.9977508,28.8891762 C41.9977508,28.8891762 41.5496921,27.2856908 39.6484043,28.1330843 L39.603462,29.0640884 C39.603462,29.0640884 41.2715509,28.4754783 41.2370575,29.2084309 C41.2038578,29.9139366 41.0203922,32.1451602 41.0203922,32.1451602 L41.0203922,32.1451602 Z" id="Shape-4_1" fill="#3B434F"></path>
        <path d="M26.2256741,31.8840596 L26.4575556,31.8840596 C26.9369753,32.5351407 27.1320225,33.5356766 27.3850908,34.4016554 C27.4635172,34.6700253 27.3874318,35.139437 27.3188384,35.3291908 C27.0676323,36.0241481 26.2788334,36.0116758 25.6294014,36.3229787 C25.4549868,36.4065893 25.3252491,36.5509033 25.0993812,36.5879935 C24.952129,36.4582843 24.7743357,36.4328089 24.7018613,36.2236023 C24.5229306,35.9772155 24.7535421,35.823353 24.9337475,35.7267061 C25.260802,35.5513057 26.2704174,35.3784312 26.391303,35.0641807 C26.5408724,34.8940357 26.44142,34.3824778 26.391303,34.202898 C26.2629491,33.7429354 26.2013405,33.3589352 26.0269165,32.9441 C25.911054,32.6685556 25.7076334,32.3780273 25.828159,32.0496885 C25.9280329,32.0068028 26.1438879,31.958041 26.2256741,31.8840596 L26.2256741,31.8840596 Z" id="new_vector_shape_done" fill="#3B434F"></path>
    </g>
</svg>