
<svg viewBox="12 6 52 69" version="1.1" xmlns="http://www.w3.org/2000/svg" xmlns:xlink="http://www.w3.org/1999/xlink">
    <!-- Generator: Sketch Beta 3.8 (29681) - http://www.bohemiancoding.com/sketch -->
    <desc>Created with Sketch Beta.</desc>
    <defs></defs>
    <g id="svg6013" stroke="none" stroke-width="1" fill="none" fill-rule="evenodd" transform="translate(12.000000, 6.000000)">
        <path d="M0.690315315,67.6509009 C0.690315315,67.6509009 -1.37872415,51.6947694 14.5702551,50.2526555 L18.3992057,50.2526555 C18.3992057,50.2526555 19.6524141,49.4426863 20.5345791,49.4426863 L20.5345791,47.1600407 C20.5345791,47.1600407 25.3138614,49.5430694 30.25422,47.2336742 L30.25422,49.2954193 C30.25422,49.2954193 30.4641923,48.9007864 32.6104939,50.326289 L38.3539172,50.326289 C38.3539172,50.326289 50.5655968,51.8326461 50.5655968,67.6509009 L0.690315315,67.6509009 L0.690315315,67.6509009 Z" id="body-bg" fill="#FFFFFF"></path>
        <path d="M50.0930643,68.2698842 L0.991559255,68.2698842 L0.0392894687,68.2698842 L0.276990919,64.2091361 C0.741107336,56.2804799 6.98804157,50.2296454 14.1367963,50.2296454 L19.0524699,50.2296454 C18.733572,50.4934011 18.4998732,50.7669793 18.3318026,51.0396146 L14.5707819,51.0396146 C7.68085341,51.0396146 1.66009167,56.8638762 1.21277597,64.4956439 L1.04766532,67.3126479 L49.9633247,67.3126479 L49.8718477,64.4956439 C49.424532,56.8638762 43.4037703,51.0396146 36.5138365,51.0396146 L32.7496135,51.0396146 C32.6056645,50.7689858 32.4009746,50.4954287 32.1151989,50.2296454 L36.9041561,50.2296454 C44.0529107,50.2296454 50.2998451,56.2804799 50.7639614,64.2091361 L51.0016628,68.2698842 L50.0930643,68.2698842 L50.0930643,68.2698842 Z M30.6587016,51.0396146 L30.4014872,51.0396146 L30.4014872,50.2296454 L30.6872788,50.2296454 C30.6701934,50.4401548 30.6592124,50.7054853 30.6587016,51.0396146 L30.6587016,51.0396146 Z M20.3020495,50.2296454 L20.6082126,50.2296454 L20.6082126,51.0396146 L20.3436037,51.0396146 C20.3396484,50.6956419 20.3238852,50.431686 20.3020495,50.2296454 L20.3020495,50.2296454 Z" id="Rounded-Rectangle-13-copy-4" fill="#3B434F"></path>
        <path d="M27.8243071,61.4955912 C28.1089769,61.4955912 28.3397473,61.7263563 28.3397473,62.011026 C28.3397473,62.2956904 28.1089769,62.526461 27.8243071,62.526461 C27.5396427,62.526461 27.3088721,62.2956904 27.3088721,62.011026 C27.3088721,61.7263563 27.5396427,61.4955912 27.8243071,61.4955912 L27.8243071,61.4955912 Z" id="Ellipse-5" fill="#3B434F"></path>
        <path d="M27.8243071,64.8827349 C28.1089769,64.8827349 28.3397473,65.1135054 28.3397473,65.3981699 C28.3397473,65.6828397 28.1089769,65.9136049 27.8243071,65.9136049 C27.5396427,65.9136049 27.3088721,65.6828397 27.3088721,65.3981699 C27.3088721,65.1135054 27.5396427,64.8827349 27.8243071,64.8827349 L27.8243071,64.8827349 Z" id="Ellipse-5-copy" fill="#3B434F"></path>
        <path d="M33.7886311,54.5740309 L30.0333192,60.170187 C29.0117504,57.0038332 26.0571016,58.1820754 26.0571016,58.1820754 L26.0571016,67.5338067 C26.0571016,67.7776649 25.8263311,67.97535 25.5416667,67.97535 C25.2570022,67.97535 25.0262317,67.7776649 25.0262317,67.5338067 L25.0262317,58.1818543 C25.0023262,58.1723742 22.0711879,57.0167522 21.054891,60.170187 L17.3036556,54.5740309 C17.3036556,54.5740309 15.8525988,50.8848635 20.2458012,49.272409 L20.2458012,47.5788318 L21.0765265,47.5788318 L21.0765265,52.9087094 C21.183177,53.8261875 21.8148793,56.4404028 25.5416667,57.2984727 C29.2725041,56.4404028 29.9048964,53.8261875 30.0116627,52.9087094 L30.0116627,47.5788318 L30.8432885,47.5788318 L30.8432885,49.272409 C35.2412625,50.8848635 33.7886311,54.5740309 33.7886311,54.5740309 L33.7886311,54.5740309 Z M21.0113461,55.0694207 C20.8111118,54.8426635 20.5227079,54.2794913 20.5227079,54.2794913 C20.5227079,54.2794913 20.2458012,53.3579263 20.2458012,52.9540871 L20.2458012,51.0863933 C20.1831751,50.2440445 20.025143,50.2296454 20.025143,50.2296454 C16.7472195,51.844159 18.1862999,54.3531249 18.1862999,54.3531249 L20.907787,58.6238769 C21.9705468,56.8231067 23.1143977,57.1512056 23.1143977,57.1512056 C22.1044735,56.6364763 21.4421294,55.8376198 21.0113461,55.0694207 L21.0113461,55.0694207 Z M31.0641892,50.2296454 C31.0641892,50.2296454 30.9059831,50.2440445 30.8432885,51.0863933 L30.8432885,52.9540871 C30.8432885,53.3579263 30.5660816,54.2794913 30.5660816,54.2794913 C30.5660816,54.2794913 30.2773618,54.8426635 30.0769116,55.0694207 C29.6456596,55.8376198 28.9825939,56.6364763 27.9715743,57.1512056 C27.9715743,57.1512056 29.116668,56.8231067 30.1805864,58.6238769 L32.9050282,54.3531249 C32.9050282,54.3531249 34.3456728,51.844159 31.0641892,50.2296454 L31.0641892,50.2296454 Z" id="Shape-2-copy-9" fill="#3B434F"></path>
        <path d="M25.5787126,1.11600585 C34.7388312,1.11600585 41.9689192,9.67612751 41.7338301,19.9613213 L41.4839678,30.8926638 C41.262493,40.5823372 34.1439323,48.2415338 25.5787126,48.2415338 C17.0134928,48.2415338 9.8949321,40.5823372 9.67345737,30.8926638 L9.42359516,19.9613213 C9.18851121,9.67612751 16.4185941,1.11600585 25.5787126,1.11600585 L25.5787126,1.11600585 Z" id="2-copy-5" fill="#FFFFFF"></path>
        <path d="M42.469818,19.6224098 L42.2080058,30.9978342 C41.9759397,41.0811504 34.5168508,49.0515031 25.541909,49.0515031 C16.5669618,49.0515031 9.10787824,41.0811504 8.87580683,30.9978342 L8.61398938,19.6224098 C8.36766106,8.91937815 15.9436073,0.0115023789 25.541909,0.0115023789 C35.1402107,0.0115023789 42.7161515,8.91937815 42.469818,19.6224098 L42.469818,19.6224098 Z M25.5051317,1.18963954 C16.4702391,1.18963954 9.33899632,9.68288466 9.57086219,19.8877245 L9.81731166,30.7336676 C10.035758,40.3476377 17.0570061,47.9469996 25.5051317,47.9469996 C33.9532572,47.9469996 40.9745,40.3476377 41.1929464,30.7336676 L41.4393906,19.8877245 C41.671267,9.68288466 34.5400241,1.18963954 25.5051317,1.18963954 L25.5051317,1.18963954 Z" id="2-line" fill="#3B434F"></path>
        <path d="M42.0102889,21.512524 L41.2739534,33.5884441 C41.2739534,33.5884441 38.0035456,47.5277977 25.3690878,49.1782986 L25.3690878,49.1987703 C25.3442555,49.1957365 25.320213,49.1916654 25.2954543,49.188537 C25.2706956,49.1916654 25.2466532,49.1957365 25.2218206,49.1987703 L25.2218206,49.1782986 C12.5873682,47.5277977 9.31695525,33.5884441 9.31695525,33.5884441 L8.58061954,21.512524 C11.8592328,36.0655255 14.618577,36.9755934 14.618577,36.9755934 C14.060187,32.5625565 18.5947948,32.9993757 18.5947948,32.9993757 C21.3584944,33.466215 23.5585901,33.6918082 25.2954543,33.776149 C27.0323237,33.6918082 29.232414,33.466215 31.9961138,32.9993757 C31.9961138,32.9993757 36.5307163,32.5625565 35.9723314,36.9755934 C35.9723314,36.9755934 38.7316757,36.0655255 42.0102889,21.512524 L42.0102889,21.512524 Z M33.8225327,38.4723756 C33.6081837,35.8765094 32.0428609,36.0966253 32.0428609,36.0966253 C29.2600905,36.9154478 27.0756738,37.3703316 25.3690878,37.6015182 L25.3690878,37.5845489 C23.6744519,37.3552479 21.505335,36.9040982 18.7420618,36.0919853 C18.7420618,36.0919853 17.187699,35.8736707 16.974851,38.4482647 C16.974851,38.4482647 16.3506907,41.0277409 18.4475276,42.1299428 L21.0983358,44.9280236 C21.0983358,44.9280236 22.9098395,45.5021347 22.8655467,43.3080798 C22.8655467,43.3080798 22.6811705,41.6717462 23.7491494,41.3936073 L25.3690878,41.3936073 L25.3690878,41.4420607 L27.000455,41.4420607 C28.0759652,41.7225013 27.8902935,43.3723597 27.8902935,43.3723597 C27.8456846,45.5845478 29.66996,45.0056862 29.66996,45.0056862 L32.3394703,42.1844846 C34.4510962,41.0731714 33.8225327,38.4723756 33.8225327,38.4723756 L33.8225327,38.4723756 Z" id="1-copy-4" fill="#3B434F" opacity="0.058824"></path>
        <path d="M33.4940969,37.5058541 C32.1557102,38.6679698 29.1326894,39.7736635 25.6153055,39.7736635 C22.0979164,39.7736635 19.0748955,38.6679698 17.7365037,37.5058541 C17.7365037,37.5058541 17.5995698,37.1290647 17.8004781,36.9281563 C18.0051047,36.7235298 18.3255722,36.7680648 18.3255722,36.7680648 C19.6625578,37.9309707 22.0965734,38.8900661 25.6153055,38.8900661 C29.1340324,38.8900661 31.5680479,37.9309707 32.9050335,36.7680648 C32.9050335,36.7680648 33.2320739,36.6465781 33.3909434,36.8054478 C33.6969327,37.1114371 33.4940969,37.5058541 33.4940969,37.5058541 L33.4940969,37.5058541 Z" id="usta" fill="#3B434F"></path>
        <path d="M23.1853927,41.5408743 L27.897946,41.5408743 L27.897946,42.27721 L23.1853927,42.27721 L23.1853927,41.5408743 L23.1853927,41.5408743 Z" id="-" fill="#3B434F"></path>
        <path d="M8.59567169,21.2812375 C8.59363889,21.2813533 8.41487691,21.1385945 8.07731375,21.0323127 C7.90860069,20.9792877 7.6989181,20.9356689 7.4599211,20.9249145 C7.40023368,20.9222284 7.33880304,20.9215911 7.27594517,20.9233764 C7.21308713,20.9251619 7.14879668,20.9293648 7.08344764,20.9363432 C6.95276542,20.9503051 6.81779601,20.9753957 6.68197854,21.0144639 C6.13815625,21.1707477 5.58338969,21.5507233 5.25757657,22.3349964 C5.09402482,22.727154 4.98613147,23.2204319 4.95760713,23.8376088 C4.95047065,23.9919069 4.94829029,24.153947 4.95141862,24.3240875 C4.95455231,24.4942278 4.96300021,24.6724682 4.97710957,24.8591671 C5.00531275,25.232549 5.05624162,25.6397693 5.13212402,26.0835088 C5.13046501,26.0830716 5.0613503,27.4244444 5.54089268,28.9657721 C5.99171069,30.4727243 7.07426782,32.3238809 9.07304441,32.8528669 C8.84316389,29.0251752 8.8360224,25.1257353 8.59567169,21.2812375 L8.59567169,21.2812375 L8.59567169,21.2812375 Z" id="Shape-11-copy" fill="#FFFFFF"></path>
        <path d="M8.82358775,21.4355461 C8.82358775,21.4355461 5.34156965,20.3566388 5.46410977,23.9363539 C5.46410977,23.9363539 5.98252035,29.127054 6.20763959,29.605443 C6.20763959,29.605443 7.57512455,32.6276476 9.83196361,32.7615848 C12.0376947,32.8924883 9.83196361,32.7615848 9.83196361,32.7615848 L9.85935566,33.7357114 C9.85935566,33.7357114 5.89269168,33.2271231 5.12655714,28.6559224 L4.52186232,24.5032076 C4.52186232,24.5032076 4.05234246,19.0074977 8.6067107,20.4048237 C13.0435899,21.7661046 8.6067107,20.4048237 8.6067107,20.4048237 L8.82358775,21.4355461" id="Shape-3" fill="#3B434F"></path>
        <path d="M7.6742911,28.6471902 C7.6742911,28.6471902 7.47942355,28.7944575 7.31202191,28.7944575 C7.14462027,28.7944575 6.95212809,28.6471902 6.95212809,28.6471902 L6.59278204,25.0260053 C6.59278204,25.0260053 7.0885879,23.2426678 9.19247707,24.1851101 L9.24221032,25.2205356 C9.24221032,25.2205356 7.39636791,24.5659073 7.43453562,25.3810695 C7.4712761,26.165706 7.6742911,28.6471902 7.6742911,28.6471902 L7.6742911,28.6471902 Z" id="Shape-4" fill="#3B434F"></path>
        <path d="M42.5947703,21.2896905 C42.5968136,21.2898063 42.7763603,21.1471475 43.1153981,21.0409342 C43.2848538,20.9879461 43.4954528,20.9443591 43.7354979,20.9336097 C43.7954433,20.930929 43.8571426,20.9302917 43.9202797,20.9320772 C43.9834115,20.9338572 44.047981,20.93806 44.1136198,20.9450332 C44.2448708,20.9589846 44.3804355,20.9840593 44.516848,21.0231013 C45.0630508,21.1792796 45.6202454,21.5589972 45.9474858,22.3427384 C46.1117537,22.7346273 46.2201211,23.2275682 46.2487666,23.844329 C46.2559347,23.9985218 46.2581256,24.1604515 46.2549865,24.330476 C46.2518372,24.5005003 46.2433525,24.6786198 46.2291798,24.8651922 C46.2008556,25.2383212 46.1497002,25.6452676 46.0734861,26.0887017 C46.0751556,26.0882645 46.1445704,27.4287314 45.6629266,28.9690113 C45.2101389,30.4749416 44.1228365,32.3248394 42.1153068,32.8534673 C42.3461931,29.028372 42.3533663,25.1315812 42.5947703,21.2896905 L42.5947703,21.2896905 L42.5947703,21.2896905 Z" id="Shape-11-copy_1" fill="#F7FBFB"></path>
        <path d="M42.1925216,21.443899 C42.1925216,21.443899 45.6897919,20.3657239 45.5667147,23.9430056 C45.5667147,23.9430056 45.0460342,29.1301825 44.8199247,29.608245 C44.8199247,29.608245 43.4464516,32.6284007 41.1797323,32.7622484 C38.964337,32.8930624 41.1797323,32.7622484 41.1797323,32.7622484 L41.152219,33.7357114 C41.152219,33.7357114 45.1362526,33.2274707 45.905742,28.6593721 L46.5130859,24.5094748 C46.5130859,24.5094748 46.9846652,19.0174939 42.4103465,20.4138718 C37.9540388,21.774231 42.4103465,20.4138718 42.4103465,20.4138718 L42.1925216,21.443899" id="Shape-3_1" fill="#3B434F"></path>
        <path d="M43.3468533,28.6506453 C43.3468533,28.6506453 43.5425739,28.7978122 43.7107076,28.7978122 C43.8788413,28.7978122 44.0721762,28.6506453 44.0721762,28.6506453 L44.433097,25.0319197 C44.433097,25.0319197 43.9351212,23.2497938 41.8220154,24.1915934 L41.7720661,25.2263184 C41.7720661,25.2263184 43.625993,24.5721326 43.5876567,25.3867418 C43.5507583,26.1708463 43.3468533,28.6506453 43.3468533,28.6506453 L43.3468533,28.6506453 Z" id="Shape-4_1" fill="#3B434F"></path>
        <path d="M42.3409263,21.2874943 C42.3429646,21.2876154 42.5219213,21.144193 42.8598636,21.0374214 C43.0287663,20.9841489 43.2386807,20.9403301 43.4779464,20.9295227 C43.537697,20.9268209 43.599196,20.9261836 43.6621277,20.9279796 C43.7250541,20.9297703 43.789413,20.9339942 43.8548358,20.9410042 C43.9856655,20.9550346 44.1207825,20.9802356 44.2567579,21.0194884 C44.8011859,21.1764935 45.3565739,21.5582284 45.6827452,22.3461355 C45.8464864,22.74011 45.9544957,23.2356684 45.9830517,23.8557051 C45.9901987,24.0107142 45.992379,24.1735023 45.9892453,24.3444326 C45.9861117,24.515363 45.9776534,24.6944304 45.9635282,24.8819877 C45.9352934,25.2571023 45.8843119,25.6662028 45.8083451,26.1119964 C45.8099989,26.1115592 45.8791927,27.4591465 45.3991183,29.0076054 C44.9477946,30.5215359 43.8640315,32.3812615 41.8630219,32.9127019 C42.0931551,29.0672823 42.1003072,25.1497935 42.3409263,21.2874943 L42.3409263,21.2874943 L42.3409263,21.2874943 Z" id="Shape-11" fill="#FFFFFF"></path>
        <path d="M42.2684672,21.4438939 C42.2684672,21.4438939 45.7657323,20.3657239 45.6426605,23.943011 C45.6426605,23.943011 45.1219746,29.1301771 44.8958756,29.6082502 C44.8958756,29.6082502 43.5224025,32.6283955 41.2556726,32.762243 C39.0402825,32.8930676 41.2556726,32.762243 41.2556726,32.762243 L41.2281648,33.7357114 C41.2281648,33.7357114 45.2122035,33.2274707 45.981693,28.6593669 L46.5890369,24.5094748 C46.5890369,24.5094748 47.0606107,19.017499 42.4862922,20.4138718 C38.0299843,21.7742258 42.4862922,20.4138718 42.4862922,20.4138718 L42.2684672,21.4438939" id="Shape-3_2" fill="#3B434F"></path>
        <path d="M43.4227988,28.6506453 L44.1481219,28.6506453 L44.5090374,25.0319145 C44.5090374,25.0319145 44.0110669,23.2497884 41.897961,24.1915934 L41.8480118,25.2263184 C41.8480118,25.2263184 43.7019385,24.5721326 43.6636024,25.386747 C43.626704,26.1708463 43.4227988,28.6506453 43.4227988,28.6506453 L43.4227988,28.6506453 Z" id="Shape-4_2" fill="#3B434F"></path>
        <path d="M26.9038902,28.360456 L27.1616051,28.360456 C27.6944359,29.0840725 27.9112128,30.1960757 28.1924749,31.1585313 C28.2796386,31.4567996 28.1950767,31.9785073 28.1188414,32.1894013 C27.839649,32.9617821 26.9629719,32.9479202 26.2411882,33.2939047 C26.0473425,33.3868301 25.903151,33.5472218 25.6521197,33.5884441 C25.4884625,33.4442844 25.2908617,33.4159708 25.2103131,33.183457 C25.0114481,32.9096209 25.2677514,32.7386168 25.4680331,32.6312027 C25.831524,32.4362615 26.9536183,32.2441274 27.0879714,31.894867 C27.254204,31.7057665 27.1436719,31.1372171 27.0879714,30.9376307 C26.9453179,30.4264248 26.8768457,29.9996441 26.6829895,29.538593 C26.5542191,29.2323509 26.3281358,28.9094555 26.4620889,28.5445373 C26.5730896,28.4968737 26.8129924,28.4426795 26.9038902,28.360456 L26.9038902,28.360456 Z" id="new_vector_shape_done" fill="#3B434F"></path>
        <path d="M16.7056286,22.6906663 L17.7365037,22.6906663 C18.305838,22.6906663 18.7673736,23.152202 18.7673736,23.7215363 C18.7673736,24.2908704 18.305838,24.752406 17.7365037,24.752406 L16.7056286,24.752406 C16.1362943,24.752406 15.6747586,24.2908704 15.6747586,23.7215363 C15.6747586,23.152202 16.1362943,22.6906663 16.7056286,22.6906663 L16.7056286,22.6906663 Z" id="Rounded-Rectangle-8" fill="#3B434F"></path>
        <path d="M33.4940969,22.6906663 L34.524972,22.6906663 C35.0943061,22.6906663 35.5558418,23.152202 35.5558418,23.7215363 C35.5558418,24.2908704 35.0943061,24.752406 34.524972,24.752406 L33.4940969,24.752406 C32.9247626,24.752406 32.4632269,24.2908704 32.4632269,23.7215363 C32.4632269,23.152202 32.9247626,22.6906663 33.4940969,22.6906663 L33.4940969,22.6906663 Z" id="Rounded-Rectangle-8-copy" fill="#3B434F"></path>
        <path d="M12.5821489,20.0398527 L22.4490518,20.0398527 C23.0183859,20.0398527 23.4799269,20.5013884 23.4799269,21.0707227 L23.4799269,27.4032144 C23.4799269,27.9725485 23.0183859,28.4340896 22.4490518,28.4340896 L12.5821489,28.4340896 C12.0128148,28.4340896 11.5512738,27.9725485 11.5512738,27.4032144 L11.5512738,21.0707227 C11.5512738,20.5013884 12.0128148,20.0398527 12.5821489,20.0398527 L12.5821489,20.0398527 Z" id="Rounded-Rectangle-10" fill="#3B434F" opacity="0.14902"></path>
        <path d="M28.4870145,20.0398527 L38.3539172,20.0398527 C38.9232515,20.0398527 39.3847923,20.5013884 39.3847923,21.0707227 L39.3847923,27.4032144 C39.3847923,27.9725485 38.9232515,28.4340896 38.3539172,28.4340896 L28.4870145,28.4340896 C27.9176802,28.4340896 27.4561394,27.9725485 27.4561394,27.4032144 L27.4561394,21.0707227 C27.4561394,20.5013884 27.9176802,20.0398527 28.4870145,20.0398527 L28.4870145,20.0398527 Z" id="Rounded-Rectangle-10-copy" fill="#3B434F" opacity="0.14902"></path>
        <path d="M40.2683952,20.7761884 L40.2683952,26.2250773 C40.2683952,27.5566488 38.9694929,29.6344519 36.8529744,29.7534423 C36.5420554,29.7386166 30.25422,29.7594936 30.25422,29.7594936 C27.4276676,29.7594936 26.8670709,26.3723445 26.8670709,26.3723445 L26.8670709,22.6906663 L24.2162625,22.6906663 L24.2162625,26.3723445 C24.2162625,26.3723445 23.6556657,29.7594936 20.8291134,29.7594936 C20.8291134,29.7594936 14.5412779,29.7386166 14.2303589,29.7534423 C12.1138404,29.6344519 10.8149381,27.5566488 10.8149381,26.2250773 L10.8149381,20.7761884 L8.45866412,20.7761884 L8.45866412,19.3035172 L22.1545176,19.3035172 C22.1545176,19.3035172 24.2162625,19.636593 24.2162625,21.0707227 L26.8670709,21.0707227 C26.8670709,19.636593 28.9288158,19.3035172 28.9288158,19.3035172 L42.6246692,19.3035172 L42.6246692,20.7761884 L40.2683952,20.7761884 L40.2683952,20.7761884 Z M22.7435861,21.512524 C22.7435861,20.9875985 22.1545176,20.9234555 22.1545176,20.9234555 L12.2876147,20.9234555 L12.2876147,26.0778102 C12.2876147,27.6838024 14.4966216,28.2868224 14.4966216,28.2868224 L20.5345791,28.2868224 C22.6119978,28.2868224 22.7435861,26.0778102 22.7435861,26.0778102 L22.7435861,21.512524 L22.7435861,21.512524 Z M38.7957186,20.9234555 L28.9288158,20.9234555 C28.9288158,20.9234555 28.3397473,20.9875985 28.3397473,21.512524 L28.3397473,26.0778102 C28.3397473,26.0778102 28.4713355,28.2868224 30.5487542,28.2868224 L36.5867117,28.2868224 C36.5867117,28.2868224 38.7957186,27.6838024 38.7957186,26.0778102 L38.7957186,20.9234555 L38.7957186,20.9234555 Z M36.7339789,29.7623982 C36.7933978,29.7611589 36.8515074,29.7567395 36.9100923,29.7534423 C36.9593548,29.7557962 36.9098662,29.7587348 36.7339789,29.7623982 L36.7339789,29.7623982 Z M14.2362042,29.7534423 C14.2947892,29.7567395 14.3528987,29.7611589 14.4123176,29.7623982 C14.2364303,29.7587348 14.1869418,29.7557962 14.2362042,29.7534423 L14.2362042,29.7534423 Z" id="Shape-1-copy-5" fill="#3B434F"></path>
    </g>
</svg>