
<svg viewBox="13 3 50 72" version="1.1" xmlns="http://www.w3.org/2000/svg" xmlns:xlink="http://www.w3.org/1999/xlink">
    <!-- Generator: Sketch Beta 3.8 (29681) - http://www.bohemiancoding.com/sketch -->
    <desc>Created with Sketch Beta.</desc>
    <defs></defs>
    <g id="svg4230" stroke="none" stroke-width="1" fill="none" fill-rule="evenodd" transform="translate(13.000000, 3.000000)">
        <path d="M0.506756757,71.4527027 C0.506756757,71.4527027 -1.23342568,56.1974448 13.7567571,54.495497 L20.1711706,54.495497 L20.1711706,51.5405397 C20.1711706,51.5405397 24.683277,53.4786019 29.2522534,51.7567557 L29.3963973,54.495497 L36.8918909,54.495497 C36.8918909,54.495497 49.9448416,55.7985821 49.1554054,71.4527027 L0.506756757,71.4527027 L0.506756757,71.4527027 Z" id="body-bg-flat" fill="#FFFFFF"></path>
        <path d="M49.0307318,71.7207213 L49.0307318,71.7207213 L0.970531081,71.7207213 L0.970531081,71.7207213 L0.03845625,71.7207213 L0.271116723,67.7460902 C0.725390541,59.9855784 6.83984493,54.063065 13.8369948,54.063065 L19.1621625,54.063065 L19.1621625,54.8558571 L14.2617767,54.8558571 C7.51796419,54.8558571 1.62488581,60.5566025 1.18705642,68.026522 L1.0254473,70.7837853 L48.9037436,70.7837853 L48.8142066,68.026522 C48.3763772,60.5566025 42.4832988,54.8558571 35.7394811,54.8558571 L29.1801814,54.8558571 L29.1801814,54.063065 L36.1215231,54.063065 C43.1186728,54.063065 49.2331274,59.9855784 49.687401,67.7460902 L49.9200615,71.7207213 L49.0307318,71.7207213 L49.0307318,71.7207213 Z" id="Rounded-Rectangle-13-copy" fill="#3B434F"></path>
        <path d="M20.8918907,51.2071095 L20.8918907,55.6522267 C20.8918907,57.9588968 22.7634223,59.8288304 25.072072,59.8288304 C27.3807216,59.8288304 29.2522534,57.9588968 29.2522534,55.6522267 L29.2522534,51.2988167 C29.4948475,51.2249767 29.7351579,51.1447752 29.9729733,51.0581301 L29.9729733,55.6824812 C29.9729733,58.4102889 27.7626346,60.6216225 25.0360385,60.6216225 C22.3094424,60.6216225 20.0990986,58.4102889 20.0990986,55.6824812 L20.0990986,50.9212287 C20.3602198,51.0244782 20.624697,51.1194436 20.8918907,51.2071095 L20.8918907,51.2071095 Z" id="neck-copy-5" fill="#3B434F"></path>
        <path d="M20.0630652,59.7567584 C20.3217894,59.7567584 20.5315306,59.9664946 20.5315306,60.2252238 L20.5315306,67.2882853 C20.5315306,67.5470145 20.3217894,67.7567559 20.0630652,67.7567559 C19.804336,67.7567559 19.5945946,67.5470145 19.5945946,67.2882853 L19.5945946,60.2252238 C19.5945946,59.9664946 19.804336,59.7567584 20.0630652,59.7567584 L20.0630652,59.7567584 Z" id="Rounded-Rectangle-14" fill="#3B434F"></path>
        <path d="M29.9009014,59.6846865 C30.1795289,59.6846865 30.4054054,59.9105578 30.4054054,60.1891904 L30.4054054,64.5855826 C30.4054054,64.8642154 30.1795289,65.0900919 29.9009014,65.0900919 C29.6222688,65.0900919 29.3963973,64.8642154 29.3963973,64.5855826 L29.3963973,60.1891904 C29.3963973,59.9105578 29.6222688,59.6846865 29.9009014,59.6846865 L29.9009014,59.6846865 Z" id="Rounded-Rectangle-15" fill="#3B434F"></path>
        <path d="M20.0630652,67.2522519 C20.2023789,67.2522519 20.3153147,67.3651875 20.3153147,67.5045064 L20.3153147,69.3063066 C20.3153147,69.4456204 20.2023789,69.5585561 20.0630652,69.5585561 C19.9237463,69.5585561 19.8108106,69.4456204 19.8108106,69.3063066 L19.8108106,67.5045064 C19.8108106,67.3651875 19.9237463,67.2522519 20.0630652,67.2522519 L20.0630652,67.2522519 Z" id="Rounded-Rectangle-16" fill="#3B434F"></path>
        <path d="M29.9369348,64.5855826 C30.0762537,64.5855826 30.1891894,64.6985235 30.1891894,64.8378372 L30.1891894,66.6396373 C30.1891894,66.7789562 30.0762537,66.8918919 29.9369348,66.8918919 C29.7976211,66.8918919 29.6846853,66.7789562 29.6846853,66.6396373 L29.6846853,64.8378372 C29.6846853,64.6985235 29.7976211,64.5855826 29.9369348,64.5855826 L29.9369348,64.5855826 Z" id="Rounded-Rectangle-16-copy" fill="#3B434F"></path>
        <path d="M17.3590377,49.4334711 L12.7942318,50.4816519 C12.7942318,50.4816519 7.20419493,51.7478736 10.9232515,55.5153615 C14.6423133,59.2828493 24.2072079,59.9481995 24.2072079,59.9481995 C24.2072079,59.9481995 21.6782596,58.7503537 20.6036027,57.0653142 L20.2432426,51.0112608 L17.3590377,49.4334711 L17.3590377,49.4334711 Z" id="Shape-1-copy" fill="#F5F3EF"></path>
        <path d="M24.351352,60.3085595 C24.0681159,60.6670483 16.1036105,60.4205569 10.5855838,55.6238742 C6.59020912,52.1507882 12.6036051,50.1463968 12.6036051,50.1463968 L17.0000025,49.1373887 L20.8198186,51.0833328 L21.1081066,56.9211703 C22.7161253,59.442515 24.8073216,59.731437 24.351352,60.3085595 L24.351352,60.3085595 Z M20.3873867,57.2094583 L19.9549546,51.0833328 L17.6486505,49.7860367 L13.2522532,50.8671167 C13.2522532,50.8671167 7.92709561,51.9590997 11.3063039,55.1193701 C14.9531493,58.5299208 21.6995909,59.4452007 22.4054079,59.3716235 C23.1369534,59.2953552 21.9954052,59.7308081 20.3873867,57.2094583 L20.3873867,57.2094583 Z" id="Shape-1-copy-2" fill="#3B434F"></path>
        <path d="M32.7802812,49.6032767 L37.3477936,50.654597 C37.3477936,50.654597 42.9411399,51.9246076 39.2198821,55.7033797 C35.4986139,59.4821517 25.9280488,60.1494917 25.9280488,60.1494917 C25.9280488,60.1494917 28.4585025,58.9480632 29.5337883,57.257977 L29.8943649,51.1857934 L32.7802812,49.6032767 L32.7802812,49.6032767 Z" id="Shape-1-copy-4" fill="#F5F3EF"></path>
        <path d="M25.7838223,60.4388573 C26.0672235,60.7984233 34.0364508,60.5511949 39.5577456,55.7401451 C43.5554917,52.2566564 37.5385336,50.2462645 37.5385336,50.2462645 L33.1395279,49.2342356 L29.3174486,51.1860049 L29.0289853,57.041328 C27.4200182,59.5702248 25.3275846,59.8600078 25.7838223,60.4388573 L25.7838223,60.4388573 Z M29.7501333,57.3304769 L30.182823,51.1860049 L32.4904983,49.884827 L36.889499,50.9691444 C36.889499,50.9691444 42.2178166,52.0643956 38.8365978,55.2341306 C35.1875924,58.6548986 28.4371505,59.5729157 27.7309211,59.4991169 C26.9989375,59.4226218 28.141166,59.8593738 29.7501333,57.3304769 L29.7501333,57.3304769 Z" id="Shape-1-copy-6" fill="#3B434F"></path>
        <path d="M25.3740981,5.99098716 C34.3399564,5.99098716 41.4167147,14.3695728 41.1866111,24.4366466 L40.9420478,35.1361662 C40.7252698,44.620349 33.7576736,52.1171157 25.3740981,52.1171157 C16.9905225,52.1171157 10.0229264,44.620349 9.80614848,35.1361662 L9.56158514,24.4366466 C9.33148666,14.3695728 16.4082399,5.99098716 25.3740981,5.99098716 L25.3740981,5.99098716 Z" id="2-copy-5" fill="#FFFFFF"></path>
        <path d="M41.9069909,24.1049225 L41.6507309,35.2391062 C41.4235863,45.1085838 34.1226836,52.9099078 25.338075,52.9099078 C16.5534611,52.9099078 9.25256368,45.1085838 9.02541385,35.2391062 L8.76914882,24.1049225 C8.52804443,13.628872 15.9433262,4.90990709 25.338075,4.90990709 C34.7328238,4.90990709 42.1481003,13.628872 41.9069909,24.1049225 L41.9069909,24.1049225 Z M25.3020777,6.06305929 C16.4587897,6.06305929 9.47878041,14.3761867 9.70572905,24.3646106 L9.94695203,34.9805419 C10.1607657,44.3906269 17.033113,51.8288277 25.3020777,51.8288277 C33.5710422,51.8288277 40.4433843,44.3906269 40.6571981,34.9805419 L40.8984159,24.3646106 C41.1253748,14.3761867 34.1453655,6.06305929 25.3020777,6.06305929 L25.3020777,6.06305929 Z" id="2-line" fill="#3B434F"></path>
        <path d="M41.4572071,25.9549527 L40.7364872,37.7747767 C40.7364872,37.7747767 37.5354355,51.4185159 25.1689189,53.0340144 L25.1689189,53.0540519 C25.1446132,53.0510824 25.1210806,53.0470976 25.096847,53.0440356 C25.0726133,53.0470976 25.0490807,53.0510824 25.0247748,53.0540519 L25.0247748,53.0340144 C12.6582635,51.4185159 9.45720676,37.7747767 9.45720676,37.7747767 L8.73648666,25.9549527 C11.9455698,40.1993262 14.6463961,41.0900941 14.6463961,41.0900941 C14.099848,36.7706453 18.5382895,37.1982007 18.5382895,37.1982007 C21.2433789,37.6551397 23.3968167,37.8759486 25.096847,37.9585008 C26.7968823,37.8759486 28.9503149,37.6551397 31.6554044,37.1982007 C31.6554044,37.1982007 36.0938407,36.7706453 35.5472976,41.0900941 C35.5472976,41.0900941 38.248124,40.1993262 41.4572071,25.9549527 L41.4572071,25.9549527 Z M33.44309,42.5551338 C33.2332868,40.0143186 31.7011601,40.2297664 31.7011601,40.2297664 C28.9774044,41.031224 26.839313,41.476461 25.1689189,41.7027448 L25.1689189,41.6861353 C23.5102215,41.4616971 21.3871054,41.020115 18.6824334,40.2252248 C18.6824334,40.2252248 17.1610343,40.01154 16.9527002,42.5315341 C16.9527002,42.5315341 16.3417765,45.0563069 18.3941454,46.1351343 L20.9887375,48.8738757 C20.9887375,48.8738757 22.7618243,49.4358115 22.7184708,47.2882863 C22.7184708,47.2882863 22.5380047,45.6866547 23.5833348,45.4144144 L25.1689189,45.4144144 L25.1689189,45.4618402 L26.7656894,45.4618402 C27.818391,45.7363334 27.6366569,47.351203 27.6366569,47.351203 C27.5929941,49.5164769 29.3785818,48.9498912 29.3785818,48.9498912 L31.9914792,46.1885194 C34.0583235,45.100774 33.44309,42.5551338 33.44309,42.5551338 L33.44309,42.5551338 Z" id="1-copy-4" fill="#3B434F" opacity="0.058824"></path>
        <path d="M33.1216194,41.6091095 C31.8116162,42.7465799 28.8527051,43.828825 25.409915,43.828825 C21.9671198,43.828825 19.0082086,42.7465799 17.6982003,41.6091095 C17.6982003,41.6091095 17.5641704,41.2403106 17.7608181,41.043663 C17.9611051,40.843376 18.2747764,40.8869666 18.2747764,40.8869666 C19.5834083,42.0252105 21.9658052,42.9639662 25.409915,42.9639662 C28.8540196,42.9639662 31.2364166,42.0252105 32.5450485,40.8869666 C32.5450485,40.8869666 32.8651532,40.7680563 33.0206535,40.9235568 C33.3201537,41.2230569 33.1216194,41.6091095 33.1216194,41.6091095 L33.1216194,41.6091095 Z" id="usta" fill="#3B434F"></path>
        <path d="M23.0315338,45.5585583 L27.6441471,45.5585583 L27.6441471,46.2792784 L23.0315338,46.2792784 L23.0315338,45.5585583 L23.0315338,45.5585583 Z" id="-" fill="#3B434F"></path>
        <path d="M8.75121959,25.7285711 C8.7492299,25.7286845 8.57425895,25.5889532 8.24385456,25.4849253 C8.07871943,25.4330248 7.87348361,25.3903311 7.63955507,25.3798047 C7.58113345,25.3771757 7.52100557,25.3765519 7.45948074,25.3782993 C7.39795574,25.380047 7.33502872,25.3841606 7.27106554,25.390991 C7.14315473,25.4046569 7.01104764,25.4292154 6.87811047,25.4674551 C6.34582111,25.6204245 5.80281959,25.9923419 5.48391605,26.7599828 C5.32383277,27.1438238 5.21822753,27.6266407 5.19030811,28.2307291 C5.18332297,28.3817549 5.18118885,28.5403586 5.18425084,28.7068909 C5.18731807,28.873423 5.19558682,29.0478834 5.20939696,29.230623 C5.23700203,29.5960865 5.28685084,29.9946708 5.36112399,30.4289998 C5.35950017,30.428572 5.29185118,31.741498 5.76122382,33.2501385 C6.20248125,34.7251324 7.26208041,36.5370312 9.21846858,37.054799 C8.99346318,33.3082818 8.98647314,29.491538 8.75121959,25.7285711 L8.75121959,25.7285711 L8.75121959,25.7285711 Z" id="Shape-11-copy" fill="#FFFFFF"></path>
        <path d="M8.9743022,25.8796073 C8.9743022,25.8796073 5.56612787,24.8235806 5.68606926,28.3273801 C5.68606926,28.3273801 6.19348581,33.408 6.41383091,33.8762437 C6.41383091,33.8762437 7.75231537,36.8343559 9.96129324,36.9654527 C12.120247,37.0935801 9.96129324,36.9654527 9.96129324,36.9654527 L9.98810439,37.9189208 C9.98810439,37.9189208 6.10556216,37.4211182 5.35567517,32.9468598 L4.76380422,28.8822123 C4.76380422,28.8822123 4.30424155,23.503051 8.76202449,24.8707436 C13.10481,26.2031556 8.76202449,24.8707436 8.76202449,24.8707436 L8.9743022,25.8796073" id="Shape-3" fill="#3B434F"></path>
        <path d="M7.84937889,32.9383128 C7.84937889,32.9383128 7.65864392,33.0824569 7.4947924,33.0824569 C7.33094088,33.0824569 7.14253091,32.9383128 7.14253091,32.9383128 L6.79080557,29.393923 C6.79080557,29.393923 7.27609679,27.6484051 9.33536841,28.5708608 L9.38404696,29.5843279 C9.38404696,29.5843279 7.57734966,28.9435824 7.61470794,29.7414573 C7.65066926,30.5094539 7.84937889,32.9383128 7.84937889,32.9383128 L7.84937889,32.9383128 Z" id="Shape-4" fill="#3B434F"></path>
        <path d="M41.8603743,25.7368449 C41.8623743,25.7369583 42.0381133,25.5973248 42.3699611,25.493364 C42.5358231,25.4414997 42.7419559,25.398837 42.9769103,25.3883155 C43.0355845,25.3856917 43.0959753,25.3850679 43.1577735,25.3868155 C43.2195664,25.3885578 43.2827666,25.3926715 43.3470133,25.3994968 C43.4754809,25.4131524 43.6081706,25.4376953 43.7416902,25.4759093 C44.2763096,25.6287755 44.8216877,26.0004404 45.1419882,26.7675606 C45.3027725,27.1511387 45.4088417,27.6336257 45.4368797,28.2373068 C45.4438958,28.3882296 45.4460402,28.5467252 45.4429677,28.7131439 C45.4398851,28.8795625 45.4315804,29.0539046 45.4177083,29.2365203 C45.3899848,29.6017363 45.3399142,30.0000525 45.2653164,30.4340826 C45.2669505,30.4336547 45.3348932,31.7456941 44.8634637,33.253309 C44.4202784,34.7273027 43.3560346,36.5379694 41.3910789,37.0553867 C41.6170687,33.3114108 41.6240899,29.49726 41.8603743,25.7368449 L41.8603743,25.7368449 L41.8603743,25.7368449 Z" id="Shape-11-copy_1" fill="#FFFFFF"></path>
        <path d="M41.6355752,25.8877831 C41.6355752,25.8877831 45.0586782,24.832473 44.9382111,28.3338907 C44.9382111,28.3338907 44.4285728,33.4110622 44.2072584,33.8789863 C44.2072584,33.8789863 42.8629128,36.8350931 40.6442642,36.9661022 C38.4758512,37.0941421 40.6442642,36.9661022 40.6442642,36.9661022 L40.6173345,37.9189208 C40.6173345,37.9189208 44.5168779,37.4214584 45.2700486,32.9502363 L45.8645125,28.8883466 C45.8645125,28.8883466 46.3260909,23.5128351 41.8487806,24.8795998 C37.4869785,26.2111096 41.8487806,24.8795998 41.8487806,24.8795998 L41.6355752,25.8877831" id="Shape-3_1" fill="#3B434F"></path>
        <path d="M42.7654267,32.9416946 C42.7654267,32.9416946 42.9569966,33.0857405 43.1215647,33.0857405 C43.2861328,33.0857405 43.4753676,32.9416946 43.4753676,32.9416946 L43.8286343,29.399712 C43.8286343,29.399712 43.3412191,27.6553799 41.2729264,28.5772066 L41.2240363,29.589988 C41.2240363,29.589988 43.0386466,28.9496757 43.0011233,29.7470093 C42.9650074,30.5144851 42.7654267,32.9416946 42.7654267,32.9416946 L42.7654267,32.9416946 Z" id="Shape-4_1" fill="#3B434F"></path>
        <path d="M26.6711725,32.6576595 L26.923422,32.6576595 C27.4449529,33.3659301 27.6571326,34.4543508 27.9324299,35.3963954 C28.0177451,35.6883383 27.9349765,36.1989821 27.8603579,36.4054035 C27.5870865,37.1614044 26.7290012,37.1478365 26.0225245,37.4864836 C25.8327897,37.5774383 25.6916561,37.7344285 25.4459485,37.7747767 C25.285762,37.6336742 25.0923517,37.605961 25.0135113,37.3783782 C24.8188637,37.1103493 25.0697316,36.9429718 25.2657659,36.8378356 C25.6215481,36.6470285 26.7198459,36.4589691 26.8513498,36.1171155 C27.0140571,35.9320253 26.9058691,35.3755333 26.8513498,35.1801796 C26.7117216,34.6798149 26.6447015,34.262085 26.4549564,33.8108115 C26.3289169,33.5110639 26.1076282,33.1950162 26.2387405,32.8378368 C26.3473872,32.7911841 26.5822024,32.7381392 26.6711725,32.6576595 L26.6711725,32.6576595 Z" id="new_vector_shape_done" fill="#3B434F"></path>
        <path d="M16.1846831,27.5693687 L18.7792804,27.5693687 C19.1375166,27.5693687 19.4279284,27.917862 19.4279284,28.3477475 C19.4279284,28.7776328 19.1375166,29.126126 18.7792804,29.126126 L16.1846831,29.126126 C15.826447,29.126126 15.5360351,28.7776328 15.5360351,28.3477475 C15.5360351,27.917862 15.826447,27.5693687 16.1846831,27.5693687 L16.1846831,27.5693687 Z" id="Rounded-Rectangle-9" fill="#3B434F"></path>
        <path d="M32.0405394,27.396398 L34.6351367,27.396398 C34.9933728,27.396398 35.2837846,27.744886 35.2837846,28.1747767 C35.2837846,28.6046622 34.9933728,28.9531502 34.6351367,28.9531502 L32.0405394,28.9531502 C31.6823032,28.9531502 31.3918912,28.6046622 31.3918912,28.1747767 C31.3918912,27.744886 31.6823032,27.396398 32.0405394,27.396398 L32.0405394,27.396398 Z" id="Rounded-Rectangle-9-copy" fill="#3B434F"></path>
        <path d="M17.3378404,31.8648674 C18.7309883,31.8648674 19.8603605,31.9448007 19.8603605,33.5225235 C19.8603605,35.1498733 18.7309883,35.1801796 17.3378404,35.1801796 C15.9446872,35.1801796 14.8153203,34.8838084 14.8153203,33.5225235 C14.8153203,31.932372 15.9446872,31.8648674 17.3378404,31.8648674 L17.3378404,31.8648674 Z" id="Ellipse-3-copy" fill="#000000" opacity="0.121569"></path>
        <path d="M34.0585605,31.8648674 C35.4517086,31.8648674 36.5810807,31.9448007 36.5810807,33.5225235 C36.5810807,35.1498733 35.4517086,35.1801796 34.0585605,35.1801796 C32.6654073,35.1801796 31.5360404,34.8838084 31.5360404,33.5225235 C31.5360404,31.932372 32.6654073,31.8648674 34.0585605,31.8648674 L34.0585605,31.8648674 Z" id="Ellipse-3-copy-2" fill="#000000" opacity="0.121569"></path>
        <path d="M41.0371471,24.9796635 C40.9396507,25.8124171 40.8539953,26.831462 40.6739313,27.7425456 C40.1354867,30.4669561 37.7944895,32.9911052 33.797228,33.2787076 C29.7999718,33.56631 26.397937,31.553985 26.1985728,28.7840508 C26.1647715,28.3144049 26.0743476,27.7873735 26.0049563,27.2749824 C25.4392726,26.9613679 24.8562323,26.9606514 24.2558402,27.2728481 C24.185722,27.796838 24.0918907,28.3377312 24.0572851,28.81861 C23.8572971,31.5977252 20.444535,33.6167206 16.4346694,33.3281645 C12.4248041,33.0396084 10.0764248,30.507098 9.53627922,27.7736561 C9.35564814,26.8595515 9.26972466,25.8371302 9.17191892,25.0016135 L8.58267703,24.9592084 L8.66544561,23.8090309 L8.80921858,23.819377 L12.4559299,24.0818024 L15.5341535,24.3033177 L18.6180992,24.5252404 L23.4215917,24.8709086 C23.7528723,24.9128084 23.9731557,25.0548853 24.115016,25.2669824 C24.8048628,25.5689569 25.4748319,25.5701632 26.1249181,25.2705497 C26.2654949,25.0448073 26.4887422,24.8928277 26.832266,24.8493865 L31.6206596,24.5048627 L34.6949139,24.283672 L37.7634615,24.0628887 L41.3987083,23.8013294 L41.5420274,23.7910193 L41.6245383,24.9373978 L41.0371471,24.9796635 L41.0371471,24.9796635 Z M22.1317343,26.2225125 L12.7176182,25.5450584 C11.4863267,25.4389068 11.0498892,26.8225541 10.9740025,27.8771169 C10.814012,30.1004049 13.291261,32.0903417 16.5070921,32.3217598 C19.7229231,32.5531728 22.4595715,30.9384424 22.6195618,28.7151492 C22.6954486,27.6605916 23.0399003,27.0093093 22.1317343,26.2225125 L22.1317343,26.2225125 Z M39.2407289,27.8456662 C39.1650792,26.7945882 38.730013,25.4155081 37.5025929,25.5213093 L28.1180716,26.1965262 C27.2127615,26.9807301 27.5561307,27.6298524 27.6317752,28.6809302 C27.7912655,30.8968775 30.5193101,32.5062777 33.7250323,32.2756226 C36.9307544,32.0449726 39.4002193,30.0616084 39.2407289,27.8456662 L39.2407289,27.8456662 Z" id="glasses" fill="#3B444F"></path>
        <path d="M9.24847061,25.0900939 C9.24847061,25.0900939 9.80457618,16.4082193 15.1622721,12.5495498 C15.1622721,12.5495498 22.8982255,17.811935 35.0672799,12.5495498 C35.0672799,12.5495498 40.4497662,15.0011269 41.2695652,25.0900939 L41.5585132,25.0900939 C41.5585132,25.0900939 43.0995941,13.5337829 39.1059721,8.94594443 C39.1059721,8.94594443 38.1222184,5.43243311 32.9036919,2.89189105 L31.0285826,4.04504831 C31.0285826,4.04504831 29.7687427,2.50337449 26.4129277,0.585586993 C26.4129277,0.585586993 23.9309981,1.69144189 22.6627093,3.61261115 L20.6433632,2.31531503 C20.6433632,2.31531503 17.8216831,3.60698193 16.1719503,5.91892044 L13.142926,6.3513473 L11.5562954,9.23423243 C11.5562954,9.23423243 7.76897635,12.2854696 8.95951757,24.8018007 L9.24847061,25.0900939 L9.24847061,25.0900939 Z" id="Shape-6-copy-3" fill="#9EA0A4"></path>
        <path d="M42.1350892,25.0900939 L40.7650613,25.0180218 C39.9452622,14.9290549 35.0672799,13.1261258 35.0672799,13.1261258 C22.8982255,18.388511 15.1622721,13.0540539 15.1622721,13.0540539 C10.4826902,17.0461706 9.75297466,25.1621659 9.75297466,25.1621659 L8.52708564,24.8018007 C7.33654443,12.2854696 11.1238633,9.01801655 11.1238633,9.01801655 L12.854638,5.84684324 L16.0278063,5.41441639 C17.677539,3.10247787 20.7154351,1.66666706 20.7154351,1.66666706 L22.5991017,2.89189105 C23.8673905,0.970721959 26.4909899,0.00901097973 26.4909899,0.00901097973 C29.8468049,1.92679848 31.1036032,3.3963951 31.1036032,3.3963951 L33.0478358,2.31531503 C38.2663623,4.85585709 39.6825481,8.87387247 39.6825481,8.87387247 C43.6761701,13.461711 42.1350892,25.0900939 42.1350892,25.0900939 L42.1350892,25.0900939 Z M38.7432459,9.16216047 C38.7432459,9.16216047 38.1239299,6.00900912 32.9054034,3.46846706 L30.9594593,4.62161909 C30.9594593,4.62161909 29.7026608,3.07995051 26.3468459,1.16216301 C26.3468459,1.16216301 24.0836066,2.34009003 22.8153177,4.26125912 L20.6531525,2.89189105 C20.6531525,2.89189105 18.0506319,4.11148581 16.4008992,6.42342432 L13.5180189,6.85585642 L12.0045069,9.59459257 C12.0045069,9.59459257 8.86088699,11.9956816 9.19369358,21.7027046 L9.26576571,21.6306326 C9.26576571,21.6306326 10.2659122,15.5966578 15.1622721,11.9009019 C15.1622721,11.9009019 23.1144416,17.3074309 35.2834959,12.0450458 C35.2834959,12.0450458 39.7793022,14.1593417 41.337838,21.7027046 C41.337838,21.7027046 42.2629537,13.9440691 38.7432459,9.16216047 L38.7432459,9.16216047 Z" id="Shape-6-copy" fill="#3B434F"></path>
        <path d="M25.5302584,3.82989932 C25.6362966,3.90878108 25.5838034,3.98177584 25.560776,4.08041149 C25.5264231,4.22756605 25.4856677,4.37322044 25.4627125,4.52006064 C25.4279215,4.74256571 25.3962027,4.96533361 25.387099,5.18485405 C25.3794438,5.36944409 25.3827637,5.55342601 25.3859701,5.73622736 C25.3878206,5.84179139 25.405889,5.94717483 25.408487,6.05290895 C25.4095231,6.0950924 25.4210137,6.13739949 25.4221993,6.18033024 C25.4247872,6.19198057 25.427375,6.20363598 25.4299628,6.21528108 C25.4314681,6.26923851 25.4456133,6.32070591 25.4471032,6.37456014 C25.4559027,6.42332128 25.4647127,6.47209274 25.4735122,6.52085389 C25.4864615,6.5981272 25.4927557,6.67879257 25.5163914,6.75406588 C25.5189845,6.77334037 25.5215774,6.79262517 25.5241703,6.81189983 C25.5429242,6.87171841 25.5490639,6.9334598 25.5679363,6.99346909 C25.5692868,7.00532044 25.5706375,7.01717686 25.571988,7.02903328 C25.5993765,7.11555473 25.6117125,7.20658682 25.6390236,7.2925723 C25.6833721,7.43219527 25.7194571,7.57241115 25.7683728,7.71171976 C25.8008132,7.80411284 25.8287791,7.90090304 25.8614154,7.99383733 C25.9195069,8.15927145 25.9903985,8.32084443 26.0542483,8.48447956 C26.0931169,8.58408953 26.1452649,8.67612162 26.1869019,8.77529865 C26.3047348,9.05596757 26.4561421,9.33182179 26.6009253,9.60693868 C26.6477019,9.69582111 26.6990456,9.77756402 26.7508841,9.86437416 C26.7839535,9.91976453 26.8182909,9.98183074 26.8487931,10.0388811 C26.8656704,10.0704502 26.8868162,10.0942508 26.9051731,10.1249076 C26.9449698,10.1913606 26.9880861,10.2627883 27.0272436,10.3297414 C27.0634574,10.3916581 27.1043417,10.4445329 27.1443394,10.5048875 C27.1874454,10.5699385 27.230134,10.6431549 27.2738328,10.7084944 C27.3497711,10.8220436 27.4303179,10.9317779 27.5055345,11.0439351 C27.5836791,11.1604535 27.6715201,11.2636154 27.7542578,11.3784687 C27.9146041,11.6010459 28.1020294,11.8145711 28.2749022,12.0379681 C28.326648,12.1048334 28.3885544,12.1632963 28.4402796,12.2280019 C28.4660804,12.2602824 28.5092174,12.2884853 28.5266824,12.3224052 C28.5337912,12.3362155 28.5378534,12.3575005 28.5428073,12.3731355 C28.5507821,12.3982971 28.5487201,12.4293715 28.5490603,12.4560176 C28.5496015,12.4986752 28.5516791,12.5418843 28.5442095,12.5865164 C28.5364667,12.6327618 28.5070986,12.6836622 28.4880046,12.7293302 C28.4726684,12.7659875 28.4344802,12.7983042 28.4128757,12.8161508 C28.3946939,12.8311775 28.3871934,12.8451527 28.3686611,12.8597105 C28.3204465,12.8975997 28.265886,12.9287617 28.2130885,12.944603 C28.1583579,12.9610216 28.0876211,12.9118687 28.0443861,12.8600147 C27.9687573,12.7693022 27.8741785,12.6860231 27.8015961,12.5950684 C27.7860796,12.5756186 27.7688414,12.5669892 27.753598,12.5477044 C27.6697983,12.441697 27.5669304,12.3418757 27.4841669,12.237585 C27.4652738,12.2137792 27.4445715,12.2004328 27.4262557,12.1766064 C27.361911,12.09291 27.2865193,12.0174769 27.2212313,11.9321051 C27.0575652,11.7181056 26.8810787,11.5113336 26.7330943,11.2958289 C26.6984939,11.2454441 26.6613625,11.2056525 26.6274736,11.1550253 C26.3877818,10.7969027 26.14726,10.4449814 25.9552054,10.0800644 C25.9046657,9.98404223 25.8488166,9.89672179 25.8015194,9.80036453 C25.667237,9.52677855 25.541986,9.25336267 25.4271069,8.97741571 C25.412013,8.94116064 25.4010588,8.90062179 25.3871093,8.86388733 C25.3241926,8.69823666 25.2671784,8.53465304 25.2106693,8.36862095 C25.1536601,8.20113007 25.1212248,8.02614882 25.067948,7.85823514 C25.0567101,7.82282027 25.0532821,7.78441047 25.0418689,7.74811926 C25.040312,7.73502551 25.0387552,7.72193193 25.0371985,7.70884341 C25.0248419,7.66946436 25.0234914,7.62760068 25.0114235,7.58913919 C24.9824936,7.49689561 24.9735497,7.39720828 24.9576775,7.30242348 C24.9426971,7.21296368 24.9222318,7.12147787 24.9197213,7.03025 C24.9163035,7.01365608 24.9128856,6.99705169 24.9094731,6.9804527 C24.9078338,6.92119595 24.8928637,6.86263007 24.8913894,6.80417247 C24.8888221,6.70213446 24.8726355,6.60042635 24.8707385,6.49862027 C24.8683775,6.37201875 24.8635061,6.24495845 24.8642586,6.11824865 C24.8650164,5.99138936 24.8755275,5.86738074 24.8828476,5.73944409 C24.9026736,5.39286841 24.9660544,5.04462264 25.0497561,4.68571639 C25.0801189,4.55552686 25.1288233,4.42814696 25.1698262,4.29773581 C25.1980755,4.20789983 25.2425167,4.12133699 25.2742098,4.03251132 C25.2824834,4.00932922 25.29534,3.99555524 25.3041809,3.97223919 C25.3231718,3.92213767 25.3480704,3.86049426 25.3944191,3.82760017 C25.4151576,3.81288784 25.4628208,3.80501098 25.4872348,3.81223311 C25.504241,3.81725929 25.5149841,3.8303272 25.5302584,3.82989932 L25.5302584,3.82989932 Z M22.1479725,6.3144375 C22.2247304,6.36996199 22.218699,6.45128193 22.2205343,6.51984341 C22.2224313,6.59089476 22.2428605,6.66162128 22.2448297,6.73324476 C22.2531189,6.7827277 22.2614083,6.83222078 22.2696975,6.88170355 C22.2707954,6.92178361 22.2808682,6.95979662 22.2874203,6.99892297 C22.2941785,7.03924544 22.2971014,7.0798049 22.3094838,7.11924071 C22.3169429,7.16377466 22.3244022,7.20831892 22.3318615,7.25285304 C22.3441613,7.29208243 22.3455481,7.33401841 22.3576365,7.37255709 C22.3950206,7.49174578 22.4093101,7.61821334 22.4473387,7.73723699 C22.4876507,7.86342618 22.5171064,7.99388885 22.5608774,8.11894899 C22.6182113,8.28277483 22.6743182,8.44764713 22.7366938,8.61050372 C22.7685877,8.69377247 22.8065336,8.77161284 22.840536,8.85459797 C22.8665326,8.91804054 22.8912405,8.98717416 22.920825,9.04918885 C23.0436995,9.30673243 23.170564,9.56404916 23.3057177,9.82080929 C23.4127355,10.0241274 23.5404041,10.2181409 23.657675,10.4186084 C23.6938323,10.4804167 23.7346804,10.5335493 23.7747708,10.5937493 C23.8652564,10.7296299 23.9615414,10.8709387 24.054187,11.0090255 C24.1417757,11.1395708 24.2470355,11.2612441 24.3391502,11.3890519 C24.3541975,11.4099296 24.3716265,11.4212191 24.3862204,11.4422875 C24.4329144,11.5096995 24.4940372,11.5746318 24.5454169,11.6409715 C24.5712486,11.6743294 24.6039829,11.6974856 24.6274845,11.7322767 C24.6789365,11.8084623 24.7110264,11.9505341 24.6865041,12.039102 C24.6440269,12.1925458 24.4959188,12.2958569 24.3831841,12.3353701 C24.3491662,12.3472936 24.2960801,12.3688723 24.259124,12.3578201 C24.2008828,12.3404064 24.1637204,12.2885524 24.1296975,12.2457505 C24.0857201,12.1904167 24.034464,12.1502437 23.9918889,12.0950184 C23.9132236,11.9929701 23.8206296,11.9017627 23.7419593,11.7988277 C23.5772209,11.5832819 23.4084929,11.3747726 23.2621735,11.1554481 C22.9234025,10.6476603 22.6423005,10.135063 22.423074,9.60842855 C22.332073,9.38981554 22.2588152,9.16437196 22.1855524,8.94209375 C22.159463,8.86294899 22.1451836,8.77827314 22.1200789,8.6992728 C22.0856693,8.59099206 22.0703846,8.47932449 22.0365938,8.37170878 C22.0348307,8.35737787 22.0330625,8.34304713 22.0312995,8.32871622 C22.0258198,8.30467838 22.0176851,8.28150152 22.0136076,8.25726284 C22.0108084,8.23675101 22.0080093,8.21623412 22.0052101,8.19571723 C21.9924669,8.15512686 21.989477,8.11321149 21.982528,8.07168801 C21.975775,8.03136571 21.9653155,7.99205372 21.9641764,7.95076216 C21.9591037,7.92426554 21.9540313,7.89776368 21.9489535,7.87127213 C21.9459275,7.76318209 21.9199774,7.6572522 21.9177659,7.54839409 C21.9172453,7.52271182 21.9090488,7.49549358 21.908425,7.46983716 C21.905899,7.36572162 21.8956096,7.26130203 21.8961201,7.15718142 C21.8967025,7.03861132 21.8955581,6.91800507 21.9029659,6.79939882 C21.9058836,6.75266892 21.9140698,6.70862973 21.9161677,6.66179662 C21.9184618,6.61042703 21.9275346,6.56122264 21.934303,6.50812095 C21.9383188,6.47663936 21.9383704,6.43852331 21.9478453,6.40670676 C21.9574645,6.37438497 21.9905235,6.32213378 22.0211029,6.30874628 C22.0419703,6.29961689 22.0821742,6.29052855 22.104949,6.29677128 C22.1220429,6.30145203 22.1326157,6.31484476 22.1479725,6.3144375 L22.1479725,6.3144375 Z M19.5634481,6.85308818 C19.6497118,6.91634003 19.6257617,6.99614966 19.6251895,7.07363446 C19.624272,7.19831824 19.6368965,7.32277534 19.6400152,7.44690253 C19.6425051,7.54585777 19.6678265,7.64413784 19.6705639,7.74318598 C19.6764662,7.77462618 19.6823738,7.80607686 19.6882764,7.8375223 C19.6897919,7.8924076 19.7016588,7.96325794 19.7181135,8.01567382 C19.7196703,8.02876233 19.721227,8.04186132 19.722784,8.05494983 C19.727877,8.08534358 19.7342537,8.11524257 19.7435843,8.14496115 C19.7457649,8.16176132 19.7479402,8.17857179 19.7501208,8.19537196 C19.7723027,8.26612416 19.7791434,8.3418201 19.8016502,8.41189206 C19.8554838,8.57948091 19.8982755,8.7509 19.9570578,8.9182674 C20.0844688,9.28103986 20.2591149,9.6326777 20.4449008,9.98562483 C20.5056166,10.100973 20.5811887,10.2083052 20.6425693,10.3228904 C20.6687463,10.3717495 20.7030889,10.4114223 20.7320961,10.4587348 C20.8113851,10.5880583 20.9033039,10.717062 20.9895211,10.8452255 C21.108849,11.022609 21.2542096,11.184311 21.3810277,11.360184 C21.4254637,11.4218118 21.4815758,11.4753258 21.5247334,11.5347373 C21.5631123,11.587576 21.6127807,11.6272076 21.6538713,11.6792782 C21.7352688,11.7824245 21.837884,11.8806633 21.9242302,11.983526 C21.9740688,12.0429014 22.0333356,12.0908427 22.0815453,12.1481973 C22.1353943,12.2122635 22.2031309,12.2634889 22.2561914,12.3252508 C22.2696098,12.3370145 22.2830282,12.3487833 22.2964468,12.360547 C22.3505691,12.4245875 22.4261155,12.4813235 22.4819287,12.5453434 C22.5057498,12.5726649 22.5340147,12.5854441 22.5580988,12.6128326 C22.6363826,12.7018542 22.7467924,12.7739983 22.8271794,12.863886 C22.8501243,12.8895424 22.8806625,12.9069096 22.9011845,12.9298287 C22.90985,12.9360199 22.9185208,12.9422162 22.9271914,12.9484074 C22.9549304,12.9793218 22.9981397,13.0076331 23.0262757,13.0388054 C23.0356628,13.045512 23.0450552,13.0522238 23.0544476,13.0589304 C23.1004096,13.1099443 23.1712291,13.1503235 23.217624,13.2016517 C23.2299032,13.2104255 23.2421823,13.2191993 23.2544615,13.2279731 C23.31361,13.2933539 23.407436,13.3401407 23.4674814,13.4063051 C23.4944164,13.4266363 23.5213563,13.4469728 23.5482912,13.4673041 C23.5614365,13.4817794 23.5898198,13.4942853 23.6052591,13.5112711 C23.6461432,13.5562535 23.7150811,13.5915807 23.7594449,13.6344961 C23.7856684,13.6598691 23.8267899,13.6773444 23.8489203,13.7016916 C23.868437,13.723162 23.9038262,13.7375394 23.9210541,13.7564943 C23.9773983,13.7967497 24.0337527,13.8370154 24.0900916,13.8772655 C24.2234566,13.9725505 24.3563524,14.0618659 24.4854385,14.1531867 C24.5465407,14.1964113 24.6224017,14.2304704 24.6600537,14.2844742 C24.6813233,14.3149814 24.6898084,14.3588144 24.7009792,14.3921311 C24.726115,14.4670745 24.7364921,14.5560497 24.7153978,14.6376791 C24.7089747,14.6625519 24.696015,14.6793365 24.6866742,14.7053745 C24.6717144,14.7470834 24.6468313,14.8118149 24.6023127,14.8509465 C24.5733571,14.8763966 24.5431694,14.910703 24.5110949,14.9328078 C24.4616534,14.966872 24.4077321,14.9486954 24.3474032,14.9236782 C24.3281081,14.9109814 24.3088078,14.8982796 24.2895127,14.8855828 C24.197001,14.8458635 24.1105672,14.7608731 24.0177103,14.7208034 C23.9998225,14.7130863 23.9810944,14.6937292 23.9663201,14.6873525 C23.9354676,14.6664027 23.9046096,14.6454424 23.8737571,14.6244873 C23.8397959,14.6098059 23.8092887,14.5741747 23.7709767,14.557591 C23.7389333,14.543724 23.706163,14.517815 23.6746968,14.4953392 C23.6631394,14.4870861 23.6515819,14.4788226 23.6400243,14.4705694 C23.6090995,14.4571716 23.572566,14.4288861 23.5437444,14.4083177 C23.5018498,14.3783878 23.4599449,14.3484476 23.4180502,14.3185125 C23.3730574,14.2989699 23.3231571,14.2539823 23.2799736,14.2231348 C23.244198,14.1975764 23.195741,14.1700333 23.1688267,14.140459 C23.1442684,14.1229113 23.1197047,14.1053586 23.0951465,14.0878162 C23.0438542,14.0511745 22.9932785,14.0150225 22.9487032,13.9766539 C22.9241449,13.9591062 22.8995762,13.9415586 22.8750177,13.924011 C22.8394586,13.8847764 22.7777894,13.8550887 22.7425034,13.8162664 C22.7258889,13.8043997 22.7092743,13.7925225 22.6926598,13.7806557 C22.6669002,13.7521899 22.6224539,13.7272912 22.5969829,13.6992326 C22.5825387,13.6889123 22.5680892,13.6785868 22.5536399,13.6682666 C22.5341024,13.6466052 22.4992236,13.6239439 22.4796399,13.6023238 C22.4680823,13.5940655 22.4565248,13.5858073 22.4449674,13.5775541 C22.3772926,13.5024508 22.2781774,13.4457304 22.2121213,13.3719882 C22.1914807,13.3550644 22.17084,13.3381353 22.1501995,13.3212115 C22.0647813,13.2251534 21.9493041,13.1479985 21.8668706,13.0534456 C21.8444566,13.0277274 21.8191818,13.0161285 21.7972008,12.990601 C21.7209997,12.9020846 21.6237454,12.8232132 21.5504002,12.7358514 C21.5383014,12.7214483 21.5265223,12.7181027 21.5144802,12.7036584 C21.4799056,12.6621762 21.4352427,12.6193279 21.4017559,12.5773765 C21.3861672,12.5578493 21.3692691,12.5495963 21.3537578,12.5300176 C21.2377291,12.3835899 21.1013226,12.2529056 20.9889334,12.1059985 C20.7898939,11.8458412 20.5822454,11.5919628 20.4248789,11.324001 C20.3892373,11.2633111 20.3467343,11.2125191 20.3121133,11.151953 C20.2508617,11.0447909 20.1840633,10.9392733 20.1265284,10.8298481 C20.036486,10.658625 19.9522122,10.4859687 19.8702373,10.3134774 C19.8125787,10.1921493 19.7669313,10.0616454 19.7195723,9.9379152 C19.6807037,9.83635152 19.6436392,9.73761267 19.6079512,9.63598716 C19.5728405,9.53599054 19.5476841,9.43197297 19.5148932,9.33098142 C19.4815404,9.22826824 19.4678899,9.11929155 19.4354392,9.01609882 C19.4231137,8.97690034 19.4243921,8.92742264 19.4121387,8.88835811 C19.3819149,8.79202669 19.3746463,8.68734932 19.3580679,8.5883424 C19.2873105,8.16574105 19.2799698,7.73299966 19.3109821,7.29350524 C19.3181373,7.19207044 19.3392573,7.09600186 19.3559285,6.99235034 C19.363527,6.94513057 19.3790177,6.88513682 19.4313204,6.85017568 C19.4479917,6.83903057 19.5010211,6.83025152 19.5204245,6.83541689 C19.5363431,6.83965422 19.548813,6.85344392 19.5634481,6.85308818 L19.5634481,6.85308818 Z" id="new_vector_shape_done-copy" fill="#3B434F" opacity="0.2"></path>
    </g>
</svg>