
<svg viewBox="12 3 50 72" version="1.1" xmlns="http://www.w3.org/2000/svg" xmlns:xlink="http://www.w3.org/1999/xlink">
    <!-- Generator: Sketch Beta 3.8 (29681) - http://www.bohemiancoding.com/sketch -->
    <desc>Created with Sketch Beta.</desc>
    <defs></defs>
    <g id="svg9797" stroke="none" stroke-width="1" fill="none" fill-rule="evenodd" transform="translate(12.000000, 3.000000)">
        <path d="M0.506756757,71.1148649 C0.506756757,71.1148649 -1.23342568,55.8596069 13.7567571,54.1576591 L20.1711706,54.1576591 L20.1711706,51.2027019 C20.1711706,51.2027019 24.683277,53.140764 29.2522534,51.4189179 L29.3963973,54.1576591 L36.8918909,54.1576591 C36.8918909,54.1576591 49.9448416,55.4607443 49.1554054,71.1148649 L0.506756757,71.1148649 L0.506756757,71.1148649 Z" id="body-bg-flat" fill="#FFFFFF"></path>
        <path d="M22.8040541,62.1621622 L24.8310811,59.9662162 L27.027027,62.1621622 L25.8445946,63.3445946 L27.7027027,70.9459459 L21.9594595,70.9459459 L23.9864865,63.3445946 L22.8040541,62.1621622 L22.8040541,62.1621622 Z" id="Shape-34" fill="#3B434F"></path>
        <path d="M49.0307318,71.3828834 L49.0307318,71.3828834 L0.970531081,71.3828834 L0.970531081,71.3828834 L0.03845625,71.3828834 L0.271116723,67.4082524 C0.725390541,59.6477405 6.83984493,53.7252272 13.8369948,53.7252272 L20.1711706,53.7252272 L20.1711706,54.5180193 L14.2617767,54.5180193 C7.51796419,54.5180193 1.62488581,60.2187647 1.18705642,67.6886841 L1.0254473,70.4459475 L48.9037436,70.4459475 L48.8142066,67.6886841 C48.3763772,60.2187647 42.4832988,54.5180193 35.7394811,54.5180193 L29.7567574,54.5180193 L29.7567574,53.7252272 L36.1215231,53.7252272 C43.1186728,53.7252272 49.2331274,59.6477405 49.687401,67.4082524 L49.9200615,71.3828834 L49.0307318,71.3828834 L49.0307318,71.3828834 Z" id="Rounded-Rectangle-13-copy-3" fill="#3B434F"></path>
        <path d="M20.6756747,50.8692716 L20.6756747,55.3143889 C20.6756747,57.621059 22.5472064,59.4909926 24.8558559,59.4909926 C27.1645056,59.4909926 29.0360373,57.621059 29.0360373,55.3143889 L29.0360373,50.9609789 C29.2786314,50.8871389 29.5189419,50.8069373 29.7567574,50.7202922 L29.7567574,55.3446434 C29.7567574,58.072451 27.5464188,60.2837846 24.8198226,60.2837846 C22.0932265,60.2837846 19.8828826,58.072451 19.8828826,55.3446434 L19.8828826,50.5833909 C20.1440037,50.6866404 20.4084809,50.7816057 20.6756747,50.8692716 L20.6756747,50.8692716 Z" id="neck-copy-7" fill="#3B434F"></path>
        <path d="M37.7905304,63.258336 L35.749085,67.51626 C35.6458355,67.731615 35.3875547,67.8224924 35.1722047,67.7192431 C34.9568497,67.6159936 34.8659721,67.3577128 34.9692216,67.1423578 L36.9408478,63.0300676 L35.4002772,60.361723 C35.2808669,60.1548943 35.3517275,59.8904223 35.5585563,59.771012 C35.7653902,59.6515965 36.0298569,59.7224622 36.1492725,59.929291 L37.8069285,62.8004383 C37.8923519,62.9483919 37.8799645,63.1255897 37.7905304,63.258336 L37.7905304,63.258336 Z" id="Rounded-Rectangle-2" fill="#3B434F"></path>
        <path d="M11.8855399,63.262491 L13.9379399,67.533524 C14.0417409,67.7495441 14.3014083,67.8406998 14.517913,67.7371309 C14.7344228,67.6335618 14.82579,67.3744872 14.7219838,67.1584723 L12.7397846,63.0335215 L14.2886188,60.3569598 C14.4086682,60.149497 14.3374262,59.8842105 14.1294892,59.7644291 C13.921547,59.6446475 13.6556625,59.7157297 13.5356078,59.9231978 L11.8690595,62.803186 C11.7831772,62.9515931 11.7956265,63.1293373 11.8855399,63.262491 L11.8855399,63.262491 Z" id="Rounded-Rectangle-2-copy-3" fill="#3B434F"></path>
        <path d="M19.8828826,53.5810831 L20.6756747,53.5810831 L20.6756747,71.0945954 L19.8828826,71.0945954 L19.8828826,53.5810831 L19.8828826,53.5810831 Z" id="Rectangle-24" fill="#3B434F"></path>
        <path d="M29.0360373,53.7252272 L29.8288294,53.7252272 L29.8288294,71.2387394 L29.0360373,71.2387394 L29.0360373,53.7252272 L29.0360373,53.7252272 Z" id="Rectangle-24-copy" fill="#3B434F"></path>
        <path d="M27.4829865,71.0624437 L25.4400872,63.4382454 L25.864864,63.3108088 L26.1465176,63.0115561 L28.3071981,71.0753209 L27.4829865,71.0624437 L27.4829865,71.0624437 Z M21.7204377,70.9724066 L23.8532299,63.0485845 L23.9909919,63.1666647 L24.423424,63.4549527 L24.5660008,63.4692115 L22.5429742,70.9852579 L21.7204377,70.9724066 L21.7204377,70.9724066 Z" id="Rectangle-24-copy-4" fill="#3B434F"></path>
        <path d="M29.7543191,64.3222551 L29.1937287,64.8828454 L27.0124333,62.70155 C26.591502,63.3701015 25.8483834,63.8153128 25,63.8153128 C24.1173358,63.8153128 23.3486743,63.3334392 22.9383571,62.6193794 L20.6613799,64.8963618 L20.0992841,64.3342662 L24.5821978,59.8513525 L24.9328046,59.5262785 L25.2834113,59.8513525 L29.7543191,64.3222551 L29.7543191,64.3222551 Z M23.3793155,62.1784209 C23.6667272,62.7636265 24.2679338,63.1666647 24.9639615,63.1666647 C25.6443385,63.1666647 26.2332556,62.7809885 26.5279667,62.2170834 L24.93431,60.6234267 L23.3793155,62.1784209 L23.3793155,62.1784209 Z" id="Ellipse-6" fill="#3B434F"></path>
        <path d="M25.0011753,7.16666149 C34.1277561,7.16666149 41.0705051,15.1706644 40.6990154,24.3293865 L40.1948774,36.7583765 C38.7666444,45.196724 32.9490816,51.2888934 25.0648654,52.1396431 C17.3740954,51.3314171 11.4424113,45.1945537 9.80746807,36.7583765 L9.30333007,24.3293865 C8.93184037,15.1706644 15.8745946,7.16666149 25.0011753,7.16666149 L25.0011753,7.16666149 Z" id="1-copy-4" fill="#FFFFFF"></path>
        <path d="M41.707209,23.8022108 L41.1706564,36.7889147 C39.6505922,45.6059017 33.4589829,51.9714407 25.0678397,52.8603632 C16.8825769,52.0158716 10.5695054,45.6036336 8.82944155,36.7889147 L8.29288902,23.8022108 C7.89751622,14.2325221 15.2866672,5.86936537 25.0000515,5.86936537 C34.713441,5.86936537 42.1025818,14.2325221 41.707209,23.8022108 L41.707209,23.8022108 Z M25.0011753,6.87837348 C15.8745946,6.87837348 8.93184037,14.8823764 9.30333007,24.0410985 L9.80746807,36.4700885 C11.4424113,44.9062657 17.3740954,51.0431289 25.0648654,51.8513551 C32.9490816,51.0006054 38.7666444,44.908436 40.1948774,36.4700885 L40.6990154,24.0410985 C41.0705051,14.8823764 34.1277561,6.87837348 25.0011753,6.87837348 L25.0011753,6.87837348 Z" id="1-line" fill="#3B434F"></path>
        <path d="M32.7837816,41.2712716 C31.4737784,42.4087421 28.5148672,43.4909872 25.0720772,43.4909872 C21.6292819,43.4909872 18.6703708,42.4087421 17.3603625,41.2712716 C17.3603625,41.2712716 17.2263326,40.9024728 17.4229802,40.7058252 C17.6232672,40.5055382 17.9369385,40.5491287 17.9369385,40.5491287 C19.2455704,41.6873726 21.6279674,42.6261284 25.0720772,42.6261284 C28.5161818,42.6261284 30.8985787,41.6873726 32.2072106,40.5491287 C32.2072106,40.5491287 32.5273154,40.4302184 32.6828157,40.5857189 C32.9823159,40.8852191 32.7837816,41.2712716 32.7837816,41.2712716 L32.7837816,41.2712716 Z" id="-" fill="#3B434F"></path>
        <path d="M22.6936959,45.2207204 L27.3063093,45.2207204 L27.3063093,45.9414405 L22.6936959,45.9414405 L22.6936959,45.2207204 L22.6936959,45.2207204 Z" id="-_1" fill="#3B434F"></path>
        <path d="M8.41338176,25.3907333 C8.41139206,25.3908466 8.23642111,25.2511154 7.90601672,25.1470875 C7.74088159,25.095187 7.53564578,25.0524932 7.30171723,25.0419669 C7.24329561,25.0393378 7.18316774,25.038714 7.12164291,25.0404615 C7.06011791,25.0422091 6.99719088,25.0463228 6.9332277,25.0531532 C6.80531689,25.0668191 6.6732098,25.0913775 6.54027264,25.1296172 C6.00798328,25.2825867 5.46498176,25.6545041 5.14607821,26.4221449 C4.98599493,26.805986 4.8803897,27.2888029 4.85247027,27.8928912 C4.84548514,28.0439171 4.84335101,28.2025208 4.84641301,28.369053 C4.84948024,28.5355851 4.85774899,28.7100456 4.87155912,28.8927851 C4.89916419,29.2582486 4.94901301,29.6568329 5.02328615,30.091162 C5.02166233,30.0907341 4.95401334,31.4036601 5.42338598,32.9123007 C5.86464341,34.3872946 6.92424257,36.1991934 8.88063074,36.7169611 C8.65562534,32.9704439 8.6486353,29.1537002 8.41338176,25.3907333 L8.41338176,25.3907333 L8.41338176,25.3907333 Z" id="Shape-11-copy" fill="#FFFFFF"></path>
        <path d="M8.63646436,25.5417694 C8.63646436,25.5417694 5.22829003,24.4857427 5.34823142,27.9895422 C5.34823142,27.9895422 5.85564797,33.0701622 6.07599307,33.5384059 C6.07599307,33.5384059 7.41447753,36.4965181 9.62345541,36.6276149 C11.7824091,36.7557422 9.62345541,36.6276149 9.62345541,36.6276149 L9.65026655,37.5810829 C9.65026655,37.5810829 5.76772432,37.0832804 5.01783733,32.609022 L4.42596639,28.5443745 C4.42596639,28.5443745 3.96640372,23.1652132 8.42418666,24.5329057 C12.7669721,25.8653177 8.42418666,24.5329057 8.42418666,24.5329057 L8.63646436,25.5417694" id="Shape-3" fill="#3B434F"></path>
        <path d="M7.51154105,32.600475 C7.51154105,32.600475 7.32080608,32.7446191 7.15695456,32.7446191 C6.99310304,32.7446191 6.80469307,32.600475 6.80469307,32.600475 L6.45296774,29.0560851 C6.45296774,29.0560851 6.93825895,27.3105672 8.99753057,28.233023 L9.04620912,29.24649 C9.04620912,29.24649 7.23951182,28.6057446 7.2768701,29.4036194 C7.31283142,30.171616 7.51154105,32.600475 7.51154105,32.600475 L7.51154105,32.600475 Z" id="Shape-4" fill="#3B434F"></path>
        <path d="M41.5225365,25.3990071 C41.5245365,25.3991204 41.7002755,25.259487 42.0321233,25.1555262 C42.1979853,25.1036618 42.4041181,25.0609992 42.6390725,25.0504777 C42.6977466,25.0478539 42.7581375,25.0472301 42.8199356,25.0489777 C42.8817285,25.0507199 42.9449287,25.0548336 43.0091755,25.061659 C43.1376431,25.0753145 43.2703328,25.0998574 43.4038524,25.1380715 C43.9384718,25.2909377 44.4838498,25.6626025 44.8041503,26.4297228 C44.9649346,26.8133008 45.0710039,27.2957878 45.0990419,27.8994689 C45.1060579,28.0503917 45.1082024,28.2088873 45.1051299,28.3753061 C45.1020473,28.5417247 45.0937426,28.7160667 45.0798704,28.8986824 C45.052147,29.2638985 45.0020764,29.6622147 44.9274785,30.0962448 C44.9291127,30.0958169 44.9970554,31.4078563 44.5256258,32.9154711 C44.0824405,34.3894649 43.0181968,36.2001316 41.053241,36.7175488 C41.2792309,32.973573 41.286252,29.1594221 41.5225365,25.3990071 L41.5225365,25.3990071 L41.5225365,25.3990071 Z" id="Shape-11-copy_1" fill="#FFFFFF"></path>
        <path d="M41.2977373,25.5499453 C41.2977373,25.5499453 44.7208404,24.4946351 44.6003733,27.9960529 C44.6003733,27.9960529 44.090735,33.0732243 43.8694206,33.5411485 C43.8694206,33.5411485 42.525075,36.4972552 40.3064264,36.6282644 C38.1380133,36.7563042 40.3064264,36.6282644 40.3064264,36.6282644 L40.2794966,37.5810829 C40.2794966,37.5810829 44.17904,37.0836206 44.9322108,32.6123985 L45.5266747,28.5505088 C45.5266747,28.5505088 45.988253,23.1749973 41.5109427,24.541762 C37.1491407,25.8732718 41.5109427,24.541762 41.5109427,24.541762 L41.2977373,25.5499453" id="Shape-3_1" fill="#3B434F"></path>
        <path d="M42.4275889,32.6038568 C42.4275889,32.6038568 42.6191588,32.7479027 42.7837269,32.7479027 C42.9482949,32.7479027 43.1375297,32.6038568 43.1375297,32.6038568 L43.4907965,29.0618742 C43.4907965,29.0618742 43.0033813,27.3175421 40.9350885,28.2393688 L40.8861985,29.2521502 C40.8861985,29.2521502 42.7008088,28.6118378 42.6632855,29.4091715 C42.6271696,30.1766473 42.4275889,32.6038568 42.4275889,32.6038568 L42.4275889,32.6038568 Z" id="Shape-4_1" fill="#3B434F"></path>
        <path d="M26.3333346,32.3198216 L26.5855841,32.3198216 C27.107115,33.0280922 27.3192948,34.116513 27.5945921,35.0585576 C27.6799073,35.3505005 27.5971387,35.8611443 27.5225201,36.0675657 C27.2492486,36.8235666 26.3911633,36.8099986 25.6846867,37.1486458 C25.4949519,37.2396005 25.3538182,37.3965907 25.1081106,37.4369389 C24.9479242,37.2958363 24.7545139,37.2681231 24.6756735,37.0405404 C24.4810258,36.7725115 24.7318937,36.605134 24.927928,36.4999978 C25.2837103,36.3091907 26.3820081,36.1211313 26.513512,35.7792777 C26.6762193,35.5941875 26.5680312,35.0376954 26.513512,34.8423417 C26.3738838,34.341977 26.3068637,33.9242471 26.1171186,33.4729736 C25.9910791,33.173226 25.7697904,32.8571784 25.9009027,32.499999 C26.0095493,32.4533463 26.2443645,32.4003014 26.3333346,32.3198216 L26.3333346,32.3198216 Z" id="new_vector_shape_done" fill="#3B434F"></path>
        <path d="M16.3513493,26.7702721 L17.3603625,26.7702721 C17.9176228,26.7702721 18.3693706,27.2220199 18.3693706,27.7792802 C18.3693706,28.3365404 17.9176228,28.7882882 17.3603625,28.7882882 L16.3513493,28.7882882 C15.794089,28.7882882 15.3423412,28.3365404 15.3423412,27.7792802 C15.3423412,27.2220199 15.794089,26.7702721 16.3513493,26.7702721 L16.3513493,26.7702721 Z" id="Rounded-Rectangle-8" fill="#3B434F"></path>
        <path d="M32.7837816,26.7702721 L33.7927948,26.7702721 C34.3500549,26.7702721 34.8018027,27.2220199 34.8018027,27.7792802 C34.8018027,28.3365404 34.3500549,28.7882882 33.7927948,28.7882882 L32.7837816,28.7882882 C32.2265213,28.7882882 31.7747735,28.3365404 31.7747735,27.7792802 C31.7747735,27.2220199 32.2265213,26.7702721 32.7837816,26.7702721 L32.7837816,26.7702721 Z" id="Rounded-Rectangle-8-copy" fill="#3B434F"></path>
        <path d="M17.0000025,31.5270296 C18.3931505,31.5270296 19.5225226,31.6069628 19.5225226,33.1846856 C19.5225226,34.8120355 18.3931505,34.8423417 17.0000025,34.8423417 C15.6068493,34.8423417 14.4774824,34.5459706 14.4774824,33.1846856 C14.4774824,31.5945341 15.6068493,31.5270296 17.0000025,31.5270296 L17.0000025,31.5270296 Z" id="Ellipse-3-copy" fill="#F5F3EF"></path>
        <path d="M33.7207226,31.5270296 C35.1138708,31.5270296 36.2432429,31.6069628 36.2432429,33.1846856 C36.2432429,34.8120355 35.1138708,34.8423417 33.7207226,34.8423417 C32.3275694,34.8423417 31.1982025,34.5459706 31.1982025,33.1846856 C31.1982025,31.5945341 32.3275694,31.5270296 33.7207226,31.5270296 L33.7207226,31.5270296 Z" id="Ellipse-3-copy-2" fill="#F5F3EF"></path>
        <path d="M29.6160311,24.2298899 C29.6160311,24.2298899 33.9310002,21.7628633 37.0134765,24.4809176 L37.8288269,24.6072975 C37.8288269,24.6072975 36.7844917,20.8070703 29.1801814,23.2781024 L29.3918919,23.9864865 M29.5608108,23.9864865 C29.5608108,23.9864865 33.950548,21.465152 36.8445576,24.6498365 L38.3355836,24.6072975 C38.3355836,24.6072975 36.4760167,20.5478358 28.8423436,23.1091834 L29.5608108,24.1554054" id="R-copy" fill="#3B434F"></path>
        <path d="M20.3443166,24.2441796 C20.3443166,24.2441796 16.0437507,21.7989845 12.9715584,24.4929855 L12.1589299,24.6182468 C12.1589299,24.6182468 13.1997804,20.8516507 20.7787127,23.3008152 L20.5677084,24.0029309 M20.3993566,24.0029309 C20.3993566,24.0029309 16.0242647,21.5039073 13.1399155,24.6604095 L11.653864,24.6182468 C11.653864,24.6182468 13.5072245,20.5947103 21.1154267,23.1333914 L20.3993566,24.1703549" id="R-copy-3" fill="#3B434F"></path>
        <path d="M9.73601993,22.7304407 C9.73601993,22.7304407 14.4814929,20.324475 13.9569824,12.0510049 C13.9569824,12.0510049 21.5482867,20.3688081 39.8468481,17.8333334 L40.7117122,25.6171149 C40.7117122,25.6171149 51.4687873,5.68470304 32.2072054,1.11261318 C13.357312,-3.36175861 13.1400186,8.44309003 13.1400186,8.44309003 C13.1400186,8.44309003 7.35934493,7.57927247 6.87665676,13.2055385 C6.39397382,18.8318046 8.13513581,24.7522508 8.13513581,24.7522508 L9.57657584,25.9054029 L9.73601993,22.7304407 L9.73601993,22.7304407 Z" id="Shape-1" fill="#3B434F"></path>
    </g>
</svg>