<?xml version="1.0" encoding="iso-8859-1"?>
<!-- Generator: Adobe Illustrator 16.0.0, SVG Export Plug-In . SVG Version: 6.00 Build 0)  -->
<!DOCTYPE svg PUBLIC "-//W3C//DTD SVG 1.1//EN" "http://www.w3.org/Graphics/SVG/1.1/DTD/svg11.dtd">
<svg version="1.1" id="Capa_1" xmlns="http://www.w3.org/2000/svg" xmlns:xlink="http://www.w3.org/1999/xlink" x="0px" y="0px"
	 width="28.194px" height="28.194px" viewBox="0 0 28.194 28.194" style="enable-background:new 0 0 28.194 28.194;"
	 xml:space="preserve">
<g>
	<path d="M27.845,16.94c-0.097-0.541-0.594-1.055-1.132-1.168l-2.165-0.457c0.325-0.396,0.603-0.889,0.759-1.396
		c0.377-0.137,0.68-0.455,0.769-0.811c0.128-0.513-0.007-0.978-0.297-1.103v-0.68c0-1.688-1.285-2.912-3.057-2.912
		s-3.057,1.226-3.057,2.912l0.048,0.594c-0.338,0.209-0.474,0.676-0.345,1.188c0.09,0.358,0.394,0.678,0.712,0.754
		c0.207,0.559,0.486,1.057,0.812,1.453L18.73,15.77c-0.277,0.059-0.543,0.227-0.75,0.447l-1.393-0.295
		c0.597-0.658,1.062-1.506,1.384-2.354c0.466-0.168,0.937-0.584,1.07-1.127c0.181-0.717-0.009-1.359-0.456-1.637V9.773
		c0-2.476-1.889-4.271-4.489-4.271c-2.601,0-4.49,1.797-4.49,4.271v1.031c-0.446,0.274-0.636,0.918-0.456,1.637
		c0.136,0.543,0.608,0.961,1.076,1.129c0.316,0.85,0.778,1.695,1.373,2.354l-1.387,0.293c-0.207-0.223-0.471-0.391-0.75-0.447
		l-2.165-0.457c0.326-0.396,0.602-0.89,0.759-1.396c0.377-0.138,0.679-0.455,0.768-0.812c0.128-0.512-0.007-0.977-0.297-1.102v-0.68
		c0-1.688-1.285-2.912-3.056-2.912s-3.056,1.225-3.056,2.912l0.047,0.594c-0.337,0.209-0.473,0.676-0.344,1.188
		c0.09,0.359,0.393,0.679,0.712,0.754c0.207,0.56,0.486,1.058,0.812,1.453L1.48,15.766c-0.538,0.113-1.035,0.627-1.131,1.168
		l-0.333,1.873c-0.052,0.293,0.019,0.574,0.199,0.789c0.18,0.215,0.444,0.334,0.742,0.334h5.221l-0.22,1.234
		c-0.071,0.402,0.024,0.783,0.27,1.076c0.244,0.291,0.604,0.451,1.011,0.451h13.716c0.407,0,0.768-0.16,1.013-0.453
		c0.245-0.291,0.339-0.674,0.269-1.074l-0.221-1.234h5.221c0.298,0,0.562-0.119,0.742-0.334c0.181-0.217,0.25-0.496,0.198-0.789
		L27.845,16.94z M20.59,13.419l-0.047-0.084l-0.088,0.02c-0.133,0-0.42-0.164-0.479-0.397c-0.064-0.256-0.004-0.486,0.168-0.498
		l0.146,0.078V11.33c0-1.347,0.999-2.285,2.43-2.285c1.432,0,2.431,0.938,2.431,2.285v1.043l0.076,0.151l0.146-0.08
		c0.086,0.023,0.162,0.232,0.092,0.515c-0.059,0.229-0.348,0.396-0.494,0.396c-0.001,0-0.088-0.016-0.088-0.016l-0.026,0.082
		c-0.235,0.717-0.633,1.383-1.062,1.779c-0.062,0.059-0.128,0.113-0.195,0.162c-0.079,0.059-0.162,0.105-0.247,0.15
		c-0.212,0.107-0.419,0.16-0.632,0.16c-0.215,0-0.431-0.055-0.639-0.16c-0.086-0.043-0.169-0.092-0.249-0.148
		c-0.067-0.049-0.134-0.104-0.195-0.162C21.027,14.635,20.701,13.768,20.59,13.419z M16.614,16.579
		c-0.709,0.562-1.575,0.871-2.498,0.871c-0.912,0-1.794-0.318-2.502-0.877l0.545-0.115c0.559,0.441,1.206,0.719,1.938,0.719
		c0.728,0,1.373-0.277,1.932-0.721L16.614,16.579z M10.714,13c-0.249,0.053-0.821-0.26-0.934-0.713
		c-0.116-0.461-0.006-0.895,0.245-0.965c0.075-0.021,0.152-0.004,0.229,0.037V9.774c0-2.236,1.721-3.625,3.843-3.625
		c2.123,0,3.842,1.389,3.842,3.625v1.584c0.077-0.041,0.155-0.06,0.229-0.037c0.251,0.07,0.361,0.504,0.246,0.965
		c-0.112,0.449-0.683,0.76-0.929,0.713c-0.298,0.904-0.859,2.033-1.652,2.769c-0.1,0.092-0.204,0.18-0.312,0.258
		c-0.127,0.093-0.259,0.172-0.396,0.242c-0.316,0.162-0.659,0.26-1.028,0.26c-0.375,0-0.72-0.098-1.039-0.258
		c-0.137-0.07-0.271-0.147-0.398-0.242c-0.108-0.078-0.211-0.166-0.312-0.258C11.562,15.042,11.012,13.924,10.714,13z M3.341,13.419
		l-0.046-0.084l-0.088,0.02c-0.133,0-0.42-0.164-0.478-0.397c-0.065-0.256-0.004-0.486,0.168-0.498l0.147,0.078V11.33
		c0-1.347,0.999-2.285,2.429-2.285c1.431,0,2.43,0.938,2.43,2.285v1.043l0.077,0.151l0.147-0.08
		c0.086,0.023,0.162,0.232,0.091,0.515c-0.058,0.229-0.347,0.396-0.494,0.396c-0.001,0-0.088-0.016-0.088-0.016L7.609,13.42
		c-0.235,0.717-0.632,1.383-1.061,1.779c-0.063,0.059-0.128,0.113-0.196,0.162c-0.079,0.059-0.162,0.105-0.247,0.15
		c-0.212,0.107-0.419,0.16-0.632,0.16c-0.215,0-0.43-0.055-0.638-0.16c-0.086-0.043-0.169-0.092-0.249-0.148
		c-0.068-0.049-0.134-0.104-0.196-0.162C3.778,14.635,3.452,13.768,3.341,13.419z M2.597,19.319H0.958
		c-0.113,0-0.208-0.039-0.27-0.113c-0.023-0.027-0.039-0.061-0.049-0.102h1.958V19.319z M6.288,19.319H3.213v-0.98
		c0-0.17-0.139-0.309-0.309-0.309s-0.308,0.139-0.308,0.309v0.148H0.7l0.256-1.438c0.053-0.298,0.357-0.611,0.651-0.675l1.653-0.396
		c0.591,0.582,1.401,0.916,2.224,0.916c0.834,0,1.623-0.324,2.13-0.885l1.721,0.362c0.016,0.004,0.032,0.017,0.048,0.021
		l-1.32,0.279c-0.761,0.159-1.463,0.887-1.6,1.651L6.288,19.319z M9.881,22.065H7.239c-0.217,0-0.404-0.08-0.526-0.228
		c-0.092-0.108-0.125-0.252-0.128-0.403h3.296V22.065z M17.996,20.106c-0.175,0-0.316,0.144-0.316,0.318v1.641h-7.167v-1.641
		c0-0.177-0.142-0.318-0.317-0.318c-0.174,0-0.316,0.144-0.316,0.318v0.377H6.666l0.154-0.865l0.11-0.617l0.157-0.881
		c0.091-0.514,0.599-1.037,1.108-1.146l1.746-0.368l0.602-0.127l0.301-0.062c0.869,0.855,2.046,1.349,3.271,1.349
		c1.238,0,2.39-0.479,3.268-1.34l0.268,0.056l0.603,0.127l1.745,0.368c0.511,0.106,1.019,0.632,1.107,1.146l0.157,0.882l0.108,0.616
		l0.154,0.865h-3.215v-0.377C18.312,20.248,18.171,20.106,17.996,20.106z M21.481,21.837c-0.121,0.146-0.309,0.228-0.525,0.228
		h-2.644v-0.631h3.298C21.606,21.585,21.573,21.729,21.481,21.837z M25.288,18.03c-0.17,0-0.31,0.139-0.31,0.309v0.98h-3.074
		l-0.178-0.992c-0.136-0.766-0.839-1.492-1.602-1.652l-1.318-0.279c0.018-0.004,0.032-0.016,0.049-0.02l1.653-0.395
		c0.591,0.582,1.4,0.916,2.225,0.916c0.834,0,1.622-0.324,2.13-0.887l1.721,0.363c0.296,0.062,0.6,0.377,0.651,0.674l0.256,1.438
		h-1.896v-0.147C25.597,18.167,25.458,18.03,25.288,18.03z M27.507,19.205c-0.062,0.074-0.157,0.112-0.271,0.112h-1.641v-0.215
		h1.958C27.546,19.145,27.53,19.178,27.507,19.205z"/>
</g>
<g>
</g>
<g>
</g>
<g>
</g>
<g>
</g>
<g>
</g>
<g>
</g>
<g>
</g>
<g>
</g>
<g>
</g>
<g>
</g>
<g>
</g>
<g>
</g>
<g>
</g>
<g>
</g>
<g>
</g>
</svg>
