<?xml version="1.0" encoding="utf-8"?>
<!-- Generator: Adobe Illustrator 16.0.4, SVG Export Plug-In . SVG Version: 6.00 Build 0)  -->
<!DOCTYPE svg PUBLIC "-//W3C//DTD SVG 1.1//EN" "http://www.w3.org/Graphics/SVG/1.1/DTD/svg11.dtd">
<svg version="1.1" xmlns="http://www.w3.org/2000/svg" xmlns:xlink="http://www.w3.org/1999/xlink" x="0px" y="0px" width="1296px"
	 height="1296px" viewBox="0 0 1296 1296" enable-background="new 0 0 1296 1296" xml:space="preserve">
<g id="white_backgrnd">
</g>
<g id="stin_3">
</g>
<g id="colors">
</g>
<g id="brushes">
	<path fill="#1C75BC" d="M941.064,691.876c0.001-16.615,12.852-30.215,29.152-31.437c-2.287-14.907-6.184-29.281-11.493-42.951
		c-14.73,7.105-32.67,1.749-40.98-12.645c-8.301-14.378-3.984-32.567,9.5-41.781c-9.315-11.572-19.856-22.113-31.428-31.428
		c-9.214,13.486-27.405,17.797-41.784,9.497c-14.394-8.312-19.746-26.251-12.642-40.98c-13.67-5.308-28.044-9.204-42.951-11.491
		c-1.22,16.302-14.824,29.152-31.438,29.152c-16.615,0-30.219-12.85-31.438-29.152c-14.906,2.287-29.28,6.184-42.95,11.491
		c7.104,14.731,1.749,32.67-12.644,40.98c-14.38,8.301-32.567,3.987-41.782-9.497c-11.572,9.314-22.112,19.855-31.427,31.427
		c13.483,9.214,17.796,27.405,9.497,41.781c-8.312,14.395-26.25,19.749-40.98,12.645c-5.307,13.669-9.205,28.043-11.49,42.949
		c16.302,1.222,29.148,14.825,29.15,31.438c-0.002,16.614-12.85,30.218-29.15,31.439c2.285,14.905,6.184,29.279,11.49,42.949
		c14.731-7.103,32.668-1.747,40.98,12.643c8.299,14.381,3.984,32.568-9.497,41.783c9.314,11.572,19.854,22.111,31.426,31.427
		c9.217-13.484,27.404-17.795,41.783-9.497c14.392,8.312,19.745,26.249,12.643,40.98c13.67,5.307,28.044,9.203,42.949,11.49
		c1.224-16.302,14.825-29.147,31.44-29.151c16.614,0.004,30.215,12.852,31.437,29.152c14.905-2.287,29.281-6.183,42.95-11.49
		c-7.104-14.733-1.747-32.669,12.645-40.981c14.379-8.3,32.566-3.984,41.781,9.499c11.573-9.315,22.112-19.855,31.428-31.428
		c-13.484-9.215-17.796-27.405-9.497-41.784c8.312-14.393,26.25-19.744,40.98-12.641c5.309-13.67,9.204-28.045,11.491-42.951
		C953.912,722.095,941.065,708.49,941.064,691.876z M767,747.274c-30.596,0-55.399-24.802-55.399-55.398s24.804-55.4,55.399-55.4
		s55.399,24.803,55.399,55.4S797.596,747.274,767,747.274z"/>
	<path fill="#262262" d="M621.02,871.648c-16.528,2.019-31.926-9.238-34.853-25.832c-2.93-16.618,7.727-32.485,23.987-36.213
		c-3.706-12.832-8.266-25.301-13.603-37.349c-14.851,7.595-33.21,2.286-41.645-12.325c-8.427-14.595-3.863-33.12,10.101-42.197
		c-7.836-10.715-16.369-20.885-25.549-30.433c-11.364,12.169-30.396,13.443-43.303,2.612c-12.916-10.837-14.96-29.819-4.926-43.127
		c-10.967-7.375-22.462-14.021-34.408-19.892c-6.498,15.359-23.97,23.089-39.821,17.319c-15.853-5.768-24.265-22.921-19.374-38.864
		c-12.743-3.135-25.81-5.448-39.145-6.866c-0.872,16.639-14.637,29.861-31.493,29.861c-16.855,0-30.621-13.223-31.493-29.861
		c-13.336,1.417-26.402,3.731-39.147,6.866c4.896,15.943-3.521,33.097-19.371,38.866c-15.851,5.77-33.323-1.962-39.822-17.323
		c-11.946,5.873-23.441,12.52-34.409,19.895c10.037,13.307,7.992,32.29-4.924,43.127c-12.906,10.831-31.938,9.557-43.303-2.613
		c-9.179,9.548-17.714,19.718-25.55,30.433c13.966,9.075,18.531,27.604,10.104,42.197c-8.435,14.61-26.794,19.917-41.646,12.325
		c-5.339,12.048-9.897,24.517-13.603,37.349c16.263,3.727,26.919,19.597,23.988,36.213c-2.926,16.594-18.324,27.851-34.853,25.832
		c-0.438,6.567-0.682,13.189-0.682,19.867c0,6.68,0.244,13.301,0.682,19.869c16.528-2.018,31.928,9.239,34.853,25.831
		c2.931,16.618-7.724,32.486-23.987,36.214c3.706,12.833,8.264,25.301,13.603,37.349c14.851-7.593,33.21-2.286,41.645,12.324
		c8.426,14.595,3.862,33.121-10.103,42.198c7.836,10.715,16.371,20.885,25.551,30.434c11.364-12.169,30.396-13.445,43.302-2.614
		c12.916,10.838,14.96,29.819,4.925,43.126c10.968,7.376,22.463,14.021,34.409,19.894c6.497-15.358,23.969-23.089,39.82-17.319
		c15.852,5.768,24.266,22.92,19.373,38.863c12.745,3.136,25.81,5.448,39.146,6.865c0.872-16.638,14.637-29.859,31.493-29.857
		c16.856,0,30.621,13.22,31.494,29.857c13.336-1.417,26.402-3.729,39.146-6.865c-4.894-15.943,3.521-33.096,19.372-38.863
		c15.85-5.77,33.322,1.961,39.821,17.317c11.946-5.871,23.441-12.517,34.408-19.892c-10.035-13.306-7.992-32.289,4.926-43.126
		c12.906-10.831,31.938-9.555,43.301,2.612c9.18-9.548,17.715-19.717,25.551-30.432c-13.965-9.076-18.529-27.603-10.101-42.198
		c8.435-14.609,26.792-19.916,41.645-12.325c5.337-12.048,9.896-24.517,13.603-37.349c-16.264-3.726-26.917-19.594-23.987-36.213
		c2.926-16.592,18.325-27.849,34.853-25.832c0.438-6.569,0.681-13.189,0.681-19.868C621.7,884.838,621.457,878.216,621.02,871.648z
		 M326.99,968.584c-42.563,0-77.067-34.506-77.067-77.068s34.504-77.068,77.067-77.068c42.562,0,77.067,34.506,77.067,77.068
		S369.553,968.584,326.99,968.584z"/>
	<g>
		<path fill="#ED1C24" d="M641.416,460.162c-0.001-16.221,12.247-29.575,27.998-31.334c-3.513-15.293-9.551-29.621-17.639-42.533
			c-12.381,9.88-30.475,9.094-41.938-2.373c-11.467-11.463-12.252-29.557-2.37-41.938c-12.912-8.087-27.24-14.125-42.533-17.639
			c-1.761,15.751-15.114,28-31.336,28c-16.221,0-29.574-12.248-31.334-28c-15.293,3.514-29.621,9.551-42.532,17.639
			c9.879,12.381,9.093,30.475-2.372,41.94c-11.466,11.464-29.557,12.251-41.939,2.371c-8.087,12.912-14.125,27.238-17.638,42.532
			c15.751,1.76,27.998,15.114,27.998,31.335c0,16.222-12.248,29.575-27.998,31.336c3.514,15.292,9.551,29.619,17.638,42.53
			c12.382-9.879,30.474-9.092,41.939,2.373c11.464,11.465,12.251,29.558,2.371,41.938c12.912,8.088,27.24,14.125,42.532,17.639
			c1.759-15.75,15.114-27.998,31.335-27.998c16.222,0,29.575,12.247,31.334,27.998c15.293-3.514,29.621-9.551,42.532-17.639
			c-9.879-12.381-9.094-30.474,2.373-41.939c11.464-11.464,29.558-12.252,41.938-2.371c8.089-12.913,14.126-27.24,17.64-42.532
			C653.663,489.738,641.415,476.383,641.416,460.162z M533.598,512.705c-29.018,0-52.543-23.525-52.543-52.543
			c0-29.02,23.525-52.543,52.543-52.543c29.02,0,52.543,23.523,52.543,52.543C586.141,489.18,562.617,512.705,533.598,512.705z"/>
	</g>
	<g>
		<path fill="#262262" d="M812.133,400.017c7.954-13.776,24.726-19.275,39.066-13.494c2.054-8.449,3.149-17.274,3.149-26.354
			c0-9.081-1.096-17.906-3.149-26.354c-14.34,5.778-31.112,0.281-39.066-13.495c-7.949-13.771-4.332-31.036,7.833-40.568
			c-12.71-12.15-28.297-21.311-45.634-26.371c-2.162,15.311-15.311,27.089-31.219,27.089c-15.907,0-29.058-11.778-31.219-27.089
			c-17.337,5.06-32.924,14.221-45.633,26.371c12.162,9.532,15.781,26.799,7.831,40.568c-7.953,13.775-24.726,19.274-39.065,13.495
			c-2.055,8.449-3.15,17.273-3.15,26.354c0,9.081,1.096,17.905,3.148,26.354c14.342-5.78,31.115-0.281,39.067,13.494
			c7.95,13.771,4.331,31.036-7.831,40.568c12.709,12.149,28.296,21.311,45.63,26.371c2.164-15.311,15.314-27.09,31.222-27.089
			c15.909-0.001,29.059,11.778,31.22,27.089c17.336-5.06,32.923-14.222,45.633-26.371
			C807.803,431.054,804.184,413.786,812.133,400.017z M743.113,392.264c-17.726,0-32.096-14.369-32.096-32.095
			s14.37-32.097,32.096-32.097c17.727,0,32.096,14.371,32.096,32.097S760.84,392.264,743.113,392.264z"/>
	</g>
	<g>
		<path fill="none" d="M326.99,1074.276c-48.817,0-94.712-19.011-129.231-53.529c-34.518-34.52-53.529-80.415-53.529-129.231
			c0-48.817,19.011-94.713,53.529-129.231c34.519-34.519,80.414-53.528,129.231-53.528c48.817,0,94.712,19.01,129.231,53.528
			c34.519,34.519,53.529,80.414,53.529,129.231c0,48.816-19.01,94.712-53.529,129.231
			C421.703,1055.266,375.808,1074.276,326.99,1074.276z M326.99,725.76c-91.397,0-165.755,74.357-165.755,165.756
			s74.358,165.756,165.755,165.756c91.398,0,165.756-74.357,165.756-165.756S418.389,725.76,326.99,725.76z"/>
	</g>
	<g>
		<path fill="#262262" d="M1205.963,775.106c2.076-16.087,15.934-27.764,31.78-27.489c-1.526-15.617-5.679-30.601-12.046-44.443
			c-13.545,8.215-31.39,5.117-41.29-7.724c-9.903-12.837-8.364-30.884,3.021-41.896c-11.771-9.674-25.208-17.497-39.924-22.94
			c-3.765,15.396-18.576,25.832-34.665,23.755c-16.086-2.078-27.763-15.935-27.489-31.782c-15.618,1.527-30.6,5.68-44.442,12.047
			c8.214,13.544,5.117,31.388-7.722,41.291c-12.841,9.901-30.883,8.364-41.897-3.021c-9.676,11.771-17.497,25.206-22.941,39.922
			c15.397,3.763,25.832,18.577,23.756,34.664c-2.078,16.086-15.936,27.763-31.782,27.492c1.527,15.615,5.679,30.598,12.047,44.439
			c13.545-8.213,31.387-5.115,41.291,7.724c9.899,12.839,8.362,30.883-3.021,41.896c11.771,9.676,25.207,17.497,39.922,22.941
			c3.762-15.396,18.576-25.831,34.664-23.754c16.088,2.078,27.763,15.934,27.489,31.78c15.618-1.527,30.601-5.679,44.442-12.046
			c-8.213-13.546-5.117-31.388,7.724-41.29c12.838-9.902,30.883-8.365,41.896,3.021c9.676-11.772,17.498-25.208,22.942-39.922
			C1214.32,806.008,1203.885,791.194,1205.963,775.106z M1092.303,813.408c-28.777-3.717-49.097-30.06-45.381-58.839
			c3.718-28.779,30.061-49.097,58.84-45.38s49.098,30.058,45.38,58.839C1147.426,796.806,1121.084,817.125,1092.303,813.408z"/>
	</g>
</g>
</svg>
